
<svg xmlns="http://www.w3.org/2000/svg"
 width="300.000000pt" height="302.000000pt" viewBox="0 0 300.000000 302.000000"
 preserveAspectRatio="xMidYMid meet">
<g transform="translate(0.000000,302.000000) scale(0.100000,-0.100000)"
fill="#000000" stroke="none">
<path d="M403 444 c-3 -8 -1 -20 6 -27 8 -8 11 -5 12 14 0 21 1 22 8 5 5 -14
10 -16 15 -8 4 7 4 17 1 22 -9 15 -35 12 -42 -6z"/>
<path d="M1365 450 c-3 -5 -3 -15 1 -22 5 -8 10 -6 15 8 7 17 8 16 8 -5 1 -17
4 -22 11 -15 6 6 8 18 4 27 -7 19 -29 23 -39 7z"/>
<path d="M1596 443 c-4 -9 -2 -21 4 -27 7 -7 10 -2 11 15 0 21 1 22 8 5 5 -14
10 -16 15 -8 4 7 4 17 1 22 -10 16 -32 12 -39 -7z"/>
<path d="M2555 450 c-3 -5 -3 -15 1 -22 5 -8 10 -6 15 8 7 17 8 16 8 -5 1 -19
4 -22 12 -14 7 7 9 19 6 27 -7 18 -33 21 -42 6z"/>
<path d="M1483 419 c-15 -15 -5 -39 17 -39 22 0 32 24 17 39 -6 6 -14 11 -17
11 -3 0 -11 -5 -17 -11z"/>
<path d="M412 398 c-16 -16 -15 -33 2 -47 10 -8 16 -8 25 3 7 9 8 17 2 20 -5
3 -12 0 -14 -6 -3 -8 -6 -6 -6 5 -1 9 4 17 9 17 6 0 219 0 475 0 256 0 470 0
475 0 6 0 10 -8 10 -17 0 -14 -2 -15 -9 -4 -7 10 -10 10 -16 1 -11 -18 17 -32
33 -16 11 11 11 18 3 35 -12 21 -13 21 -494 21 -362 0 -486 -3 -495 -12z"/>
<path d="M1599 389 c-8 -17 -8 -24 3 -35 16 -16 44 -2 33 16 -6 9 -9 9 -16 -1
-7 -11 -9 -10 -9 4 0 9 5 17 10 17 6 0 219 0 475 0 256 0 470 0 475 0 6 0 10
-8 10 -17 0 -14 -2 -15 -9 -4 -5 8 -11 9 -15 3 -3 -5 0 -15 8 -21 20 -16 44
14 29 37 -9 15 -55 17 -496 20 l-486 2 -12 -21z"/>
</g>
</svg>