
<svg xmlns="http://www.w3.org/2000/svg"
 width="300%" height="auto" viewBox="0 0 100 100"
 preserveAspectRatio="xMidYMid meet">
<g transform="translate(0, 300) scale(0.1,-0.1)"
fill="#000000" stroke="none">


<path d="M1477 656 c-10 -26 4 -47 27 -44 15 2 21 10 21 28 0 29 -38 41 -48
16z"/>
<path d="M1414 649 c-10 -17 13 -36 27 -22 12 12 4 33 -11 33 -5 0 -12 -5
-16 -11z"/>
<path d="M1554 649 c-10 -17 13 -36 27 -22 12 12 4 33 -11 33 -5 0 -12 -5
-16 -11z"/>
<path d="M410 640 c0 -7 170 -10 490 -10 320 0 490 3 490 10 0 7 -170 10
-490 10 -320 0 -490 -3 -490 -10z"/>
<path d="M1610 640 c0 -7 170 -10 490 -10 320 0 490 3 490 10 0 7 -170 10
-490 10 -320 0 -490 -3 -490 -10z"/>


</g>
</svg>