
<svg xmlns="http://www.w3.org/2000/svg"
 width="300.000000pt" height="302.000000pt" viewBox="0 0 300.000000 302.000000"
 preserveAspectRatio="xMidYMid meet">
<g transform="translate(0.000000,302.000000) scale(0.100000,-0.100000)"
fill="#000000" stroke="none">
<path d="M1447 754 c-11 -11 -8 -34 4 -34 5 0 8 4 4 9 -3 5 -1 12 5 16 6 3 13
-1 17 -11 16 -42 -6 -44 -484 -44 -283 1 -455 4 -458 11 -4 5 -11 7 -16 3 -5
-3 -16 -1 -23 5 -10 8 -24 7 -56 -7 l-43 -18 43 -17 c31 -12 47 -14 56 -6 7 6
18 8 23 5 5 -4 12 -2 16 3 3 7 175 10 458 11 369 0 456 -2 471 -13 20 -15 16
-47 -5 -47 -6 0 -9 7 -5 15 3 8 1 15 -4 15 -6 0 -10 -9 -10 -21 0 -15 5 -20
23 -17 27 4 38 55 12 64 -14 6 -14 7 1 18 20 15 15 60 -6 64 -9 1 -19 0 -23
-4z"/>
<path d="M1517 754 c-11 -11 -8 -52 3 -59 8 -5 7 -11 0 -20 -19 -22 -8 -60 18
-63 17 -3 22 2 22 17 0 12 -4 21 -10 21 -5 0 -7 -7 -4 -15 4 -8 1 -15 -5 -15
-21 0 -25 32 -5 47 15 11 102 13 471 13 283 -1 455 -4 458 -11 4 -5 11 -7 16
-3 5 3 16 1 23 -5 9 -8 25 -6 56 6 l43 17 -43 18 c-32 14 -46 15 -56 7 -7 -6
-18 -8 -23 -5 -5 4 -12 2 -16 -3 -3 -7 -175 -10 -458 -11 -478 0 -500 2 -484
44 4 10 11 14 17 11 6 -4 8 -11 5 -16 -4 -5 -1 -9 5 -9 17 0 7 34 -11 38 -8 1
-18 0 -22 -4z"/>
</g>
</svg>