
<svg xmlns="http://www.w3.org/2000/svg"
 width="300.000000pt" height="302.000000pt" viewBox="0 0 300.000000 302.000000"
 preserveAspectRatio="xMidYMid meet">

<g transform="translate(0.000000,302.000000) scale(0.100000,-0.100000)"
fill="#000000" stroke="none">

<path d="M1485 2491 c-6 -20 3 -51 15 -51 13 0 21 35 14 54 -8 21 -21 20 -29
-3z"/>
<path d="M1235 2455 c-14 -13 -25 -36 -25 -50 0 -33 41 -75 74 -75 13 0 47 15
75 34 28 19 59 37 69 40 23 7 45 -8 40 -28 -3 -19 -24 -18 -22 2 1 6 -2 12 -7
12 -15 0 -10 -40 6 -46 18 -7 45 12 45 32 0 20 -29 44 -53 44 -12 0 -44 -16
-71 -35 -76 -54 -138 -44 -138 20 0 35 21 57 50 53 50 -6 55 -73 6 -73 -15 0
-19 6 -17 29 2 20 -1 26 -8 19 -19 -19 -6 -58 19 -61 51 -7 73 62 30 92 -31
22 -45 20 -73 -9z"/>
<path d="M1692 2464 c-43 -30 -21 -99 30 -92 25 3 38 42 19 61 -7 7 -10 1 -8
-19 2 -23 -2 -29 -17 -29 -49 0 -44 67 6 73 29 4 51 -18 51 -53 0 -64 -63 -74
-139 -20 -27 19 -59 35 -71 35 -24 0 -53 -24 -53 -44 0 -20 27 -39 45 -32 16
6 21 46 6 46 -5 0 -8 -6 -7 -12 2 -21 -18 -25 -22 -4 -5 22 16 38 40 30 10 -3
41 -21 69 -40 28 -19 62 -34 75 -34 33 0 74 42 74 75 0 27 -40 75 -62 75 -8 0
-24 -7 -36 -16z"/>
<path d="M404 2415 c-11 -27 10 -39 47 -26 21 7 153 12 378 13 l346 3 -360 5
c-198 3 -370 9 -382 14 -17 6 -24 4 -29 -9z"/>
<path d="M2550 2420 c-9 -6 -158 -11 -370 -12 l-355 -2 360 -7 c198 -3 371 -8
385 -10 20 -3 25 0 25 16 0 22 -22 30 -45 15z"/>
<path d="M1460 2220 c-10 -20 -21 -20 -506 -20 -421 0 -498 2 -510 15 -20 19
-44 8 -44 -21 0 -17 6 -24 19 -24 11 0 23 5 26 10 4 6 183 10 503 10 485 0
498 0 515 -20 9 -11 26 -20 37 -20 11 0 28 9 37 20 17 20 30 20 515 20 320 0
499 -4 503 -10 3 -5 15 -10 26 -10 13 0 19 7 19 24 0 29 -24 40 -44 21 -12
-13 -89 -15 -510 -15 -485 0 -496 0 -506 20 -7 13 -21 20 -40 20 -19 0 -33 -7
-40 -20z m69 -7 c12 -23 -4 -53 -29 -53 -25 0 -41 29 -29 52 12 23 45 23 58 1z"/>

<path d="M1487 2214 c-14 -15 -6 -34 14 -34 14 0 19 5 17 17 -3 18 -20 27 -31
17z"/>
<path d="M1486 2045 c-6 -17 2 -45 14 -45 4 0 10 7 14 15 6 17 -2 45 -14 45
-4 0 -10 -7 -14 -15z"/>
<path d="M850 1980 c-19 -5 -41 -18 -49 -29 -13 -20 -22 -21 -207 -21 -123 0
-194 -4 -194 -10 0 -6 73 -10 200 -10 l200 0 9 24 c17 44 94 47 326 11 183
-28 297 -32 338 -11 23 13 31 13 55 0 40 -21 154 -17 337 11 233 36 316 32
328 -14 5 -20 11 -21 206 -21 127 0 201 4 201 10 0 6 -71 10 -194 10 -184 0
-194 1 -207 21 -17 25 -87 42 -143 34 -23 -3 -122 -17 -221 -31 -208 -30 -289
-28 -317 6 l-18 22 -18 -22 c-28 -34 -109 -36 -312 -6 -226 32 -277 37 -320
26z"/>
<path d="M1451 1787 c-14 -14 -14 -44 -1 -52 6 -4 9 3 7 17 -1 13 4 23 13 25
12 3 15 -7 15 -43 -1 -37 -5 -49 -20 -55 -36 -14 -46 -10 -40 14 9 33 -17 54
-39 32 -12 -13 -13 -21 -6 -36 11 -19 2 -19 -454 -19 -286 0 -475 4 -491 10
-19 7 -26 16 -23 32 3 26 38 38 38 14 0 -19 -16 -21 -23 -3 -3 7 -6 6 -6 -5
-1 -24 18 -33 35 -16 22 22 7 50 -25 46 -21 -2 -27 -9 -29 -33 -7 -56 -15 -55
547 -55 363 1 519 4 528 12 10 8 20 8 38 0 17 -8 183 -11 538 -12 560 0 552
-1 545 55 -2 24 -8 31 -29 33 -32 4 -47 -24 -25 -46 17 -17 36 -8 35 16 0 11
-3 12 -6 5 -7 -18 -23 -16 -23 3 0 22 34 13 38 -10 9 -45 -5 -46 -505 -46
-465 0 -474 0 -463 19 7 15 6 23 -6 36 -22 22 -48 1 -39 -32 6 -24 -4 -28 -40
-14 -15 6 -19 18 -20 55 0 36 3 46 15 43 9 -2 14 -12 13 -25 -2 -14 1 -21 7
-17 14 9 12 41 -2 52 -18 13 -84 13 -97 0z"/>
<path d="M407 1543 c-16 -15 -6 -70 16 -91 23 -22 24 -22 524 -22 481 0 501 1
517 19 24 27 13 61 -20 61 -28 0 -43 -25 -25 -43 9 -9 16 -9 31 1 24 15 26 9
4 -12 -14 -14 -70 -16 -473 -16 l-457 0 1 28 c0 20 -5 27 -20 27 -15 0 -20 -7
-20 -27 1 -33 -13 -35 -49 -7 -34 27 -33 72 2 77 15 2 22 -2 22 -12 0 -9 -4
-16 -10 -16 -5 0 -10 5 -10 11 0 5 -5 7 -11 3 -7 -4 -6 -12 6 -23 15 -15 17
-15 30 3 11 14 12 23 4 33 -12 14 -51 18 -62 6z"/>
<path d="M2532 1537 c-9 -10 -8 -18 3 -33 13 -18 15 -18 30 -3 12 11 13 19 6
23 -6 4 -11 2 -11 -3 0 -6 -4 -11 -10 -11 -5 0 -10 7 -10 16 0 10 7 14 23 12
34 -5 35 -50 1 -77 -36 -28 -50 -26 -49 7 0 20 -5 27 -20 27 -15 0 -20 -7 -20
-27 l1 -28 -457 0 c-403 0 -459 2 -473 16 -22 21 -20 27 4 12 15 -10 22 -10
31 -1 18 18 3 43 -25 43 -33 0 -44 -34 -20 -61 16 -18 36 -19 519 -19 l502 0
22 24 c32 34 26 90 -10 94 -14 2 -31 -3 -37 -11z"/>
<path d="M1482 1523 c2 -10 10 -18 18 -18 8 0 16 8 18 18 2 12 -3 17 -18 17
-15 0 -20 -5 -18 -17z"/>
<path d="M1486 1265 c-5 -13 -72 -15 -526 -15 l-521 0 -24 -25 c-28 -27 -30
-37 -15 -66 13 -23 33 -25 50 -4 18 21 -6 51 -27 34 -21 -18 -26 -4 -6 20 18
21 21 21 543 25 289 2 532 4 540 4 8 0 251 -2 540 -4 522 -4 525 -4 543 -25
20 -24 15 -38 -6 -20 -11 9 -17 8 -27 -4 -19 -23 12 -55 38 -39 27 17 26 51
-2 79 l-25 25 -521 0 c-454 0 -521 2 -526 15 -4 8 -10 15 -14 15 -4 0 -10 -7
-14 -15z"/>
<path d="M422 1038 c-13 -13 -16 -47 -6 -73 18 -45 -1 -45 1084 -45 1110 0
1072 -2 1086 54 13 52 -18 92 -53 70 -26 -16 -23 -48 5 -52 16 -3 22 2 22 15
0 15 -2 16 -10 3 -11 -18 -25 -6 -16 15 4 13 10 14 26 5 26 -14 26 -44 0 -70
-28 -28 -57 -26 -56 3 1 16 -5 23 -21 25 -22 3 -28 -6 -24 -35 2 -10 -97 -13
-461 -13 l-463 0 0 33 c0 30 -2 32 -35 32 -33 0 -35 -2 -35 -32 l0 -33 -463 0
c-364 0 -463 3 -461 13 4 29 -2 38 -23 35 -17 -2 -23 -9 -22 -25 1 -29 -28
-31 -56 -3 -26 26 -26 56 0 70 16 9 22 8 26 -5 9 -21 -5 -33 -16 -15 -8 13
-10 12 -10 -2 0 -22 38 -24 46 -3 13 33 -38 59 -64 33z m1108 -62 c0 -7 -7
-19 -15 -26 -12 -10 -18 -10 -30 0 -25 21 -18 40 15 40 19 0 30 -5 30 -14z"/>

<!--  -->
</g>
</svg>
