<?xml version="1.0" encoding="UTF-8"?>
<svg id="Layer_1" data-name="Layer 1" xmlns="http://www.w3.org/2000/svg" viewBox="0 0 300 300">
  <defs>
    <style>
      .cls-1 {
        fill: #221f1f;
        stroke-width: 0px;
      }
    </style>
  </defs>
  <g>
    <path class="cls-1" d="m138.05,130.11h-8.14v-1.1c.7,0,1.22-.07,1.54-.21.33-.14.54-.34.64-.61s.15-.63.15-1.09v-10.17l-6.12,13.18h-.73l-6.21-13.18v9.65c0,.51.02.9.05,1.17.04.27.13.5.28.69.15.19.38.33.7.42s.76.14,1.33.14v1.1h-6.01v-1.1c.57,0,1.02-.05,1.33-.14s.54-.24.69-.43.23-.42.26-.69c.03-.27.05-.66.05-1.17v-9.19c0-.69-.04-1.18-.11-1.48-.07-.3-.27-.53-.59-.69-.32-.16-.87-.23-1.63-.23v-1.1h5.93l5.38,11.45,5.4-11.45h5.8v1.1c-1,0-1.64.15-1.93.44-.29.29-.44.78-.44,1.48v10.19c0,.44.05.79.14,1.06.1.27.32.48.66.63.35.15.87.22,1.56.22v1.1Z"/>
    <path class="cls-1" d="m160.85,122c0,1.48-.35,2.86-1.05,4.15-.7,1.29-1.74,2.32-3.12,3.1s-3,1.17-4.88,1.17c-1.53,0-2.88-.25-4.04-.74-1.16-.5-2.12-1.16-2.85-1.99-.74-.83-1.28-1.74-1.64-2.73-.35-.99-.53-1.98-.53-2.98,0-1.44.34-2.81,1.02-4.09s1.7-2.32,3.06-3.1c1.36-.79,3-1.18,4.89-1.18,1.73,0,3.2.28,4.41.85,1.21.57,2.16,1.28,2.84,2.14.68.86,1.16,1.76,1.45,2.71.29.94.44,1.84.44,2.7Zm-3.88-.05c0-.91-.08-1.77-.23-2.58-.16-.81-.43-1.55-.82-2.21s-.92-1.18-1.6-1.57c-.68-.39-1.52-.58-2.51-.58-1.37,0-2.44.34-3.21,1.02-.77.68-1.29,1.54-1.57,2.56s-.41,2.14-.41,3.36c0,.67.04,1.37.13,2.09s.3,1.47.63,2.23.87,1.4,1.6,1.93c.73.52,1.68.78,2.85.78s2.1-.27,2.82-.81c.72-.54,1.25-1.2,1.58-1.97.33-.78.54-1.52.62-2.23.08-.71.12-1.38.12-2.02Z"/>
    <path class="cls-1" d="m183.08,130.11h-4.34c-.16-.18-.36-.43-.59-.77s-.49-.73-.77-1.18c-.28-.45-.51-.82-.69-1.12l-1.1-1.82c-.5-.81-.87-1.37-1.12-1.67-.25-.3-.54-.49-.86-.57s-.87-.13-1.64-.13h-.61v4.24c0,.45.05.81.14,1.08.1.27.32.48.68.62s.87.22,1.55.22v1.1h-8.14v-1.1c.99,0,1.62-.14,1.91-.43s.42-.78.42-1.48v-10.24c0-.69-.14-1.19-.41-1.48-.27-.29-.92-.44-1.92-.44v-1.12l3.76-.12c.29-.02.62-.03.99-.04.37,0,.72-.01,1.03-.01.25,0,.66,0,1.23.02.81.02,1.56.07,2.26.14.7.07,1.26.16,1.66.28.6.15,1.17.4,1.71.75.54.35.98.81,1.32,1.39.34.57.51,1.24.51,2,0,.54-.12,1.07-.35,1.58-.24.51-.61.97-1.14,1.36s-1.21.71-2.06.95c.58.34,1.08.77,1.48,1.27.41.51,1.04,1.44,1.91,2.79.5.77.92,1.36,1.24,1.75.33.39.63.66.9.8.28.14.62.23,1.05.27v1.1Zm-6.72-11.9c0-1.29-.39-2.15-1.18-2.57-.79-.42-1.81-.63-3.08-.63-.18,0-.31,0-.41,0s-.21,0-.34,0v6.52h.75c1.2,0,2.21-.2,3.03-.59s1.23-1.3,1.23-2.74Z"/>
    <path class="cls-1" d="m201.35,118.5h-1.14c-.1-1-.33-1.75-.66-2.23s-.7-.77-1.09-.88c-.39-.11-.84-.17-1.35-.17h-2.06v11.88c0,.47.05.83.14,1.09.1.26.32.46.67.6.35.14.87.22,1.54.22v1.1h-8.14v-1.1c1,0,1.64-.14,1.93-.43s.43-.78.43-1.48v-11.88h-1.72c-.68,0-1.24.05-1.69.16-.45.11-.84.4-1.18.88s-.53,1.23-.58,2.23h-1.14v-4.61h16.03v4.61Z"/>
    <path class="cls-1" d="m223.53,122c0,1.48-.35,2.86-1.05,4.15-.7,1.29-1.74,2.32-3.12,3.1s-3,1.17-4.88,1.17c-1.53,0-2.88-.25-4.04-.74-1.16-.5-2.12-1.16-2.85-1.99-.74-.83-1.28-1.74-1.64-2.73-.35-.99-.53-1.98-.53-2.98,0-1.44.34-2.81,1.02-4.09s1.7-2.32,3.06-3.1c1.36-.79,3-1.18,4.89-1.18,1.73,0,3.2.28,4.41.85,1.21.57,2.16,1.28,2.84,2.14.68.86,1.16,1.76,1.45,2.71.29.94.44,1.84.44,2.7Zm-3.88-.05c0-.91-.08-1.77-.23-2.58-.16-.81-.43-1.55-.82-2.21s-.92-1.18-1.6-1.57c-.68-.39-1.52-.58-2.51-.58-1.37,0-2.44.34-3.21,1.02-.77.68-1.29,1.54-1.57,2.56s-.41,2.14-.41,3.36c0,.67.04,1.37.13,2.09s.3,1.47.63,2.23.87,1.4,1.6,1.93c.73.52,1.68.78,2.85.78s2.1-.27,2.82-.81c.72-.54,1.25-1.2,1.58-1.97.33-.78.54-1.52.62-2.23.08-.71.12-1.38.12-2.02Z"/>
    <path class="cls-1" d="m245.85,114.99c-.77,0-1.33.08-1.66.23-.33.16-.54.38-.62.69-.08.3-.12.8-.12,1.48v12.86h-1.1l-10.61-12.61v8.94c0,.68.04,1.17.13,1.48.08.31.3.54.64.71s.9.25,1.66.25v1.1h-6.03v-1.1c.72,0,1.24-.08,1.56-.25.32-.16.52-.4.6-.71.08-.31.11-.8.11-1.48v-8.28c0-.67-.02-1.17-.05-1.51s-.12-.63-.26-.88-.36-.46-.66-.61c-.31-.16-.73-.26-1.27-.32v-1.1h4.73l9.24,10.91v-7.41c0-.61-.04-1.07-.13-1.39-.08-.32-.29-.57-.62-.75s-.86-.26-1.57-.26v-1.1h6.05v1.1Z"/>
    <path class="cls-1" d="m254.88,116.88c0,.8-.17,1.52-.5,2.18-.33.65-.82,1.2-1.47,1.63-.65.43-1.42.71-2.31.83v-1.1c.57-.11,1.07-.29,1.52-.52.45-.24.8-.53,1.06-.89.26-.36.39-.77.39-1.23,0-.39-.14-.59-.42-.59-.08,0-.23.02-.45.06-.22.04-.4.06-.53.06-.43,0-.83-.17-1.2-.52-.37-.35-.55-.78-.55-1.3,0-.57.19-1.02.58-1.36s.84-.51,1.36-.51c.37,0,.76.12,1.15.37.39.24.72.62.98,1.12.26.5.39,1.1.39,1.79Z"/>
    <path class="cls-1" d="m271.97,125.46c0,.5-.11,1.03-.32,1.6-.21.56-.54,1.1-.97,1.62-.44.51-.98.93-1.65,1.26s-1.43.48-2.3.48-1.72-.19-2.57-.56c-.85-.37-1.57-.93-2.16-1.67-.25.59-.42,1.14-.49,1.64h-1.1v-5.55h1.1c.2.8.47,1.55.83,2.25.35.7.85,1.31,1.49,1.81.64.51,1.43.76,2.36.76.81,0,1.46-.22,1.96-.67.49-.45.74-1.01.74-1.69,0-.38-.08-.72-.23-1s-.37-.54-.66-.77-.68-.47-1.18-.73c-.5-.26-1.07-.53-1.71-.82-.98-.46-1.79-.93-2.42-1.4-.63-.47-1.11-.93-1.43-1.37-.32-.44-.55-.86-.67-1.26-.12-.4-.19-.8-.19-1.21,0-.73.2-1.44.59-2.15s.96-1.28,1.72-1.74c.75-.45,1.62-.68,2.61-.68.76,0,1.48.17,2.17.51s1.28.8,1.78,1.39c.14-.33.28-.81.4-1.41h1.12v4.52h-1.12c-.8-2.46-2.19-3.7-4.16-3.7-.72,0-1.29.19-1.73.57s-.65.87-.65,1.46c0,.47.13.88.41,1.23s.63.64,1.07.89c.44.25,1.16.6,2.15,1.06,1.2.57,2.13,1.06,2.8,1.47s1.24.94,1.71,1.57.7,1.39.7,2.29Z"/>
    <path class="cls-1" d="m137.29,154.63h-8.14v-1.1c.7,0,1.22-.07,1.54-.21.33-.14.54-.34.64-.61s.15-.63.15-1.09v-10.17l-6.12,13.18h-.73l-6.21-13.18v9.65c0,.51.02.9.05,1.17.04.27.13.5.28.69.15.19.38.33.7.42s.76.14,1.33.14v1.1h-6.01v-1.1c.57,0,1.02-.05,1.33-.14s.54-.24.69-.43.23-.42.26-.69c.03-.27.05-.66.05-1.17v-9.19c0-.69-.04-1.18-.11-1.48-.07-.3-.27-.53-.59-.69-.32-.16-.87-.23-1.63-.23v-1.1h5.93l5.38,11.45,5.4-11.45h5.8v1.1c-1,0-1.64.15-1.93.44-.29.29-.44.78-.44,1.48v10.19c0,.44.05.79.14,1.06.1.27.32.48.66.63.35.15.87.22,1.56.22v1.1Z"/>
    <path class="cls-1" d="m154.53,149.3l-.13,5.34h-14.45v-1.1c1,0,1.64-.14,1.93-.43s.43-.78.43-1.48v-10.19c0-.46-.05-.82-.14-1.08-.09-.26-.31-.46-.65-.61s-.86-.22-1.57-.22v-1.1h13.46l.22,4.21h-1.1c-.25-.93-.53-1.6-.86-2-.32-.4-.69-.65-1.09-.74-.4-.09-1.01-.14-1.81-.14h-3.04v5.73h1.65c.57,0,.99-.05,1.27-.15s.47-.29.59-.57c.11-.28.19-.72.23-1.32h1.15v5.4h-1.1c-.03-.6-.11-1.04-.24-1.32-.13-.28-.33-.47-.6-.57s-.7-.14-1.26-.14h-1.67v3.82c0,.64.02,1.1.05,1.4.03.29.12.54.26.74.14.2.37.34.68.42.31.09.76.13,1.35.13h1.3c.55,0,1.08-.07,1.57-.21.5-.14.99-.5,1.47-1.08s.81-1.49,1-2.72h1.12Z"/>
    <path class="cls-1" d="m180.05,154.63h-8.14v-1.1c.7,0,1.22-.07,1.54-.21.33-.14.54-.34.64-.61s.15-.63.15-1.09v-10.17l-6.12,13.18h-.73l-6.21-13.18v9.65c0,.51.02.9.05,1.17.04.27.13.5.28.69.15.19.38.33.7.42s.76.14,1.33.14v1.1h-6.01v-1.1c.57,0,1.02-.05,1.33-.14s.54-.24.69-.43.23-.42.26-.69c.03-.27.05-.66.05-1.17v-9.19c0-.69-.04-1.18-.11-1.48-.07-.3-.27-.53-.59-.69-.32-.16-.87-.23-1.63-.23v-1.1h5.93l5.38,11.45,5.4-11.45h5.8v1.1c-1,0-1.64.15-1.93.44-.29.29-.44.78-.44,1.48v10.19c0,.44.05.79.14,1.06.1.27.32.48.66.63.35.15.87.22,1.56.22v1.1Z"/>
    <path class="cls-1" d="m197.29,149.3l-.13,5.34h-14.45v-1.1c1,0,1.64-.14,1.93-.43s.43-.78.43-1.48v-10.19c0-.46-.05-.82-.14-1.08-.09-.26-.31-.46-.65-.61s-.86-.22-1.57-.22v-1.1h13.46l.22,4.21h-1.1c-.25-.93-.53-1.6-.86-2-.32-.4-.69-.65-1.09-.74-.4-.09-1.01-.14-1.81-.14h-3.04v5.73h1.65c.57,0,.99-.05,1.27-.15s.47-.29.59-.57c.11-.28.19-.72.23-1.32h1.15v5.4h-1.1c-.03-.6-.11-1.04-.24-1.32-.13-.28-.33-.47-.6-.57s-.7-.14-1.26-.14h-1.67v3.82c0,.64.02,1.1.05,1.4.03.29.12.54.26.74.14.2.37.34.68.42.31.09.76.13,1.35.13h1.3c.55,0,1.08-.07,1.57-.21.5-.14.99-.5,1.47-1.08s.81-1.49,1-2.72h1.12Z"/>
    <path class="cls-1" d="m217.89,139.51c-.77,0-1.33.08-1.66.23-.33.16-.54.38-.62.69-.08.3-.12.8-.12,1.48v12.86h-1.1l-10.61-12.61v8.94c0,.68.04,1.17.13,1.48.08.31.3.54.64.71s.9.25,1.66.25v1.1h-6.03v-1.1c.72,0,1.24-.08,1.56-.25.32-.16.52-.4.6-.71.08-.31.11-.8.11-1.48v-8.28c0-.67-.02-1.17-.05-1.51s-.12-.63-.26-.88-.36-.46-.66-.61c-.31-.16-.73-.26-1.27-.32v-1.1h4.73l9.24,10.91v-7.41c0-.61-.04-1.07-.13-1.39-.08-.32-.29-.57-.62-.75s-.86-.26-1.57-.26v-1.1h6.05v1.1Z"/>
    <path class="cls-1" d="m236.43,143.02h-1.14c-.1-1-.33-1.75-.66-2.23s-.7-.77-1.09-.88c-.39-.11-.84-.17-1.35-.17h-2.06v11.88c0,.47.05.83.14,1.09.1.26.32.46.67.6.35.14.87.22,1.54.22v1.1h-8.14v-1.1c1,0,1.64-.14,1.93-.43s.43-.78.43-1.48v-11.88h-1.72c-.68,0-1.24.05-1.69.16-.45.11-.84.4-1.18.88s-.53,1.23-.58,2.23h-1.14v-4.61h16.03v4.61Z"/>
    <path class="cls-1" d="m257.13,146.52c0,1.48-.35,2.86-1.05,4.15-.7,1.29-1.74,2.32-3.12,3.1s-3,1.17-4.88,1.17c-1.53,0-2.88-.25-4.04-.74-1.16-.5-2.12-1.16-2.85-1.99-.74-.83-1.28-1.74-1.64-2.73-.35-.99-.53-1.98-.53-2.98,0-1.44.34-2.81,1.02-4.09s1.7-2.32,3.06-3.1c1.36-.79,3-1.18,4.89-1.18,1.73,0,3.2.28,4.41.85,1.21.57,2.16,1.28,2.84,2.14.68.86,1.16,1.76,1.45,2.71.29.94.44,1.84.44,2.7Zm-3.88-.05c0-.91-.08-1.77-.23-2.58-.16-.81-.43-1.55-.82-2.21s-.92-1.18-1.6-1.57c-.68-.39-1.52-.58-2.51-.58-1.37,0-2.44.34-3.21,1.02-.77.68-1.29,1.54-1.57,2.56s-.41,2.14-.41,3.36c0,.67.04,1.37.13,2.09s.3,1.47.63,2.23.87,1.4,1.6,1.93c.73.52,1.68.78,2.85.78s2.1-.27,2.82-.81c.72-.54,1.25-1.2,1.58-1.97.33-.78.54-1.52.62-2.23.08-.71.12-1.38.12-2.02Z"/>
    <path class="cls-1" d="m272.73,149.98c0,.5-.11,1.03-.32,1.6-.21.56-.54,1.1-.97,1.62-.44.51-.98.93-1.65,1.26s-1.43.48-2.3.48-1.72-.19-2.57-.56c-.85-.37-1.57-.93-2.16-1.67-.25.59-.42,1.14-.49,1.64h-1.1v-5.55h1.1c.2.8.47,1.55.83,2.25.35.7.85,1.31,1.49,1.81.64.51,1.43.76,2.36.76.81,0,1.46-.22,1.96-.67.49-.45.74-1.01.74-1.69,0-.38-.08-.72-.23-1s-.37-.54-.66-.77-.68-.47-1.18-.73c-.5-.26-1.07-.53-1.71-.82-.98-.46-1.79-.93-2.42-1.4-.63-.47-1.11-.93-1.43-1.37-.32-.44-.55-.86-.67-1.26-.12-.4-.19-.8-.19-1.21,0-.73.2-1.44.59-2.15s.96-1.28,1.72-1.74c.75-.45,1.62-.68,2.61-.68.76,0,1.48.17,2.17.51s1.28.8,1.78,1.39c.14-.33.28-.81.4-1.41h1.12v4.52h-1.12c-.8-2.46-2.19-3.7-4.16-3.7-.72,0-1.29.19-1.73.57s-.65.87-.65,1.46c0,.47.13.88.41,1.23s.63.64,1.07.89c.44.25,1.16.6,2.15,1.06,1.2.57,2.13,1.06,2.8,1.47s1.24.94,1.71,1.57.7,1.39.7,2.29Z"/>
    <path class="cls-1" d="m125.95,177.53c.18-.14.36-.22.53-.22s.3.05.39.14c.09.09.12.21.08.37-.04.15-.17.29-.41.42-.24.15-.51.27-.83.37s-.63.15-.94.15c-.91,0-1.75-.32-2.53-.95-.29.27-.65.53-1.09.79-.44.25-.89.44-1.37.57-.48.13-.95.16-1.4.09-.45-.06-.85-.29-1.2-.69-.42-.47-.68-.94-.79-1.4-.11-.46-.13-.88-.05-1.26.11-.45.3-.9.58-1.33.28-.44.6-.84.96-1.22s.76-.72,1.18-1.03c.43-.31.83-.57,1.21-.79.02-1.27.24-2.36.66-3.26.42-.91.91-1.62,1.47-2.15.56-.53,1.16-.85,1.78-.97.62-.12,1.15-.02,1.58.29.36.25.64.57.82.94.18.37.27.72.27,1.05,0,.47-.18.94-.53,1.4-.36.46-.79.91-1.29,1.33s-1.03.81-1.57,1.16c-.55.34-1.02.63-1.42.87,0,.2.01.45.04.73.03.29.06.59.09.9.04.31.08.6.12.88.04.28.1.51.15.69.27-.2.57-.45.88-.76.32-.31.61-.63.88-.97.27-.33.5-.67.69-.99.19-.33.29-.62.29-.87,0-.18-.04-.29-.11-.34-.07-.04-.19-.05-.35-.01-.05,0-.08-.04-.08-.11,0-.13.1-.19.3-.19.15,0,.31.03.49.1.18.06.35.15.5.27.15.12.28.26.38.42.1.16.15.34.15.54,0,.43-.11.88-.33,1.32-.22.44-.49.86-.82,1.25-.33.39-.67.74-1.03,1.05-.36.31-.69.55-.98.73.16.27.37.48.61.61.25.14.49.23.75.27.25.05.49.05.72.01.23-.04.4-.1.53-.19Zm-7.18-2.28c-.54.63-.86,1.16-.95,1.58-.09.42,0,.69.26.82s.68.08,1.24-.15c.56-.23,1.22-.66,1.99-1.29-.13-.33-.27-.75-.43-1.26-.16-.52-.28-.94-.35-1.26-.04,0-.11.05-.23.14-.12.09-.26.21-.42.35-.16.15-.34.31-.53.49-.19.18-.38.38-.56.6Zm6.66-8.27c-.36.04-.7.18-1.02.42-.32.25-.61.54-.88.87-.27.34-.51.69-.72,1.07-.21.38-.39.73-.56,1.06.18-.11.44-.29.77-.54.34-.25.68-.54,1.02-.87.34-.33.65-.67.91-1.02s.42-.68.48-.99Z"/>
    <path class="cls-1" d="m140.98,168.33c.73,0,1.79-.05,2.09,1.06.38,1.41-2.04,4.73-3.83,4.7-.6,0-.95-.19-.98-.19-.19,0-.41,1.36-.41,1.99,0,.95.03,2.39,1.33,2.39,3.51,0,7.75-7.7,8.35-7.7.14,0,.14.25.14.49-.05.95-.9,1.66-1.39,2.42-.65.71-1.93,2.39-2.61,3.07-1.03,1.03-2.96,2.83-4.62,2.83s-2.64-1.22-2.96-2.47h.08c-.03-.16-.03-.57-.16-.57l.08.49c-.14-.57-.19-1.14-.19-1.71,0-2.72,2.39-6.8,5.08-6.8Zm-2.5,4.7s.19.35.33.35c1.09,0,3.4-2.8,3.4-3.59,0-.19-.16-.38-.41-.35-1.79.3-2.67,2.69-3.21,3.45-.08.11-.11.14-.11.14Z"/>
    <path class="cls-1" d="m158.63,171.33c0,1.55-3.7,3.7-4.62,4.51-.9.79-2.39,1.69-3.02,2.31-.84.84-2.39,1.79-3.43,1.79-2.04-.11-2.61-1.69-2.61-3.13,0-5.14,2.5-7.4,4.35-7.4.84,0,1.77.38,1.77,1.41,0,.49-.27,1.82-1.01,1.82.03,0-.41-.05-.41-.16,0-.54.24-.98.24-1.47,0-.33-.08-.6-.35-.6-.71,0-1.41,1.6-1.74,2.2-.05.14-1.01,2.2-1.01,2.72.03.05.05.11.05.16,0,.49-.27,1.33-.27,2.07,0,.9.11,1.2.92,1.2.05,0,1.14-.54,1.2-.54.57-.05.92-.65,1.5-.82.33-.16,1.3-1.17,1.82-1.17,0,.05-.03.08-.08.14l.05-.03c.38-.38.6-.49.73-.57l-.08-.08c.16-.08.25-.27.44-.3l-.08.16c.05,0,.65-.3.95-.87,0,.08.03.08.05.08s.11-.03.11-.08h-.16c.16-.11.22-.33.43-.38,0,.27-.14.11-.19.3.35-.35.73-.3,1.06-.95-.22.05-.38.38-.71.46.22-.35.57-.57.9-.9v.19c.35-.52,2.42-2.37,2.8-2.37.3,0,.38.14.38.27Z"/>
    <path class="cls-1" d="m166.87,173.15c-1.5,1.88-2.56,4.7-4.08,6.61-1.39,1.74-2.04,3.48-3.97,3.48-2.64,0-2.88-3.18-2.88-5.28,0-.73.03-1.44.11-2.18.05-.35.25-.71.25-1.01,0-.05,0-.11-.03-.19.3-.41.6-1.79.87-2.67.22-.73.82-1.71.82-2.34,0-.16.33-1.17.44-1.31,0-.03-.03-.03-.05-.03,0,0,.35-.79.6-1.44.16-.44.76-1.12.76-1.41,0-.03-.03-.05-.08-.08.35-.84,1.5-3.34,3.32-3.34,1.01,0,1.74,1.28,1.74,1.82,0,1.33-.14,2.53-.52,3.54-.33.87-2.26,4.84-4.6,6.28-.68.43-1.63.52-1.63,1.52-.05,0-.35,1.33-.35,2.91,0,.6.08,1.25.14,1.85,0,.11-.11.16-.11.24,0,.41.44,1.93.92,1.93.82,0,1.47-.76,1.88-1.41.05-.08.52-.52.82-.79v.05s.03-.05.05-.08h-.05l.3-.27s-.03-.05-.03-.08c0-.11.11-.16.14-.27.08,0,.73-1.12.82-1.22.11-.14.79-.84,1.55-2.01.03-.03.46-.76,1.09-1.71v.14s.05-.05.05-.08-.03-.05-.03-.08c.87-1.25,2.12-2.8,3.26-3.32.25,0,.35.08.38.22-.08.52-1.3,1.22-1.82,2.12l-.05-.11Zm-8.32-.22c0,.08.03.16.03.24.08-.03.14-.08.22-.14,1.47-1.09,2.67-2.75,3.62-4.46-.08.24-.25.49-.35.71.16,0,1.39-2.28,1.41-2.91.16-1.28.19-1.63.19-2.31,0-.27-.46-.68-.62-.68-.68,0-1.39,2.64-1.71,3.04-.19.84-1.06,1.85-1.22,2.64-.14.57-.68,1.3-.68,1.66,0,.03-.44,1.66-.76,2.09-.11.03-.11.05-.11.11Z"/>
    <path class="cls-1" d="m170.6,168.33c.73,0,1.79-.05,2.09,1.06.38,1.41-2.04,4.73-3.83,4.7-.6,0-.95-.19-.98-.19-.19,0-.41,1.36-.41,1.99,0,.95.03,2.39,1.33,2.39,3.51,0,7.75-7.7,8.35-7.7.14,0,.14.25.14.49-.05.95-.9,1.66-1.39,2.42-.65.71-1.93,2.39-2.61,3.07-1.03,1.03-2.96,2.83-4.62,2.83s-2.64-1.22-2.96-2.47h.08c-.03-.16-.03-.57-.16-.57l.08.49c-.14-.57-.19-1.14-.19-1.71,0-2.72,2.39-6.8,5.08-6.8Zm-2.5,4.7s.19.35.33.35c1.09,0,3.4-2.8,3.4-3.59,0-.19-.16-.38-.41-.35-1.79.3-2.67,2.69-3.21,3.45-.08.11-.11.14-.11.14Z"/>
    <path class="cls-1" d="m188.25,171.33c0,1.55-3.7,3.7-4.62,4.51-.9.79-2.39,1.69-3.02,2.31-.84.84-2.39,1.79-3.43,1.79-2.04-.11-2.61-1.69-2.61-3.13,0-5.14,2.5-7.4,4.35-7.4.84,0,1.77.38,1.77,1.41,0,.49-.27,1.82-1.01,1.82.03,0-.41-.05-.41-.16,0-.54.24-.98.24-1.47,0-.33-.08-.6-.35-.6-.71,0-1.41,1.6-1.74,2.2-.05.14-1.01,2.2-1.01,2.72.03.05.05.11.05.16,0,.49-.27,1.33-.27,2.07,0,.9.11,1.2.92,1.2.05,0,1.14-.54,1.2-.54.57-.05.92-.65,1.5-.82.33-.16,1.3-1.17,1.82-1.17,0,.05-.03.08-.08.14l.05-.03c.38-.38.6-.49.73-.57l-.08-.08c.16-.08.25-.27.44-.3l-.08.16c.05,0,.65-.3.95-.87,0,.08.03.08.05.08s.11-.03.11-.08h-.16c.16-.11.22-.33.43-.38,0,.27-.14.11-.19.3.35-.35.73-.3,1.06-.95-.22.05-.38.38-.71.46.22-.35.57-.57.9-.9v.19c.35-.52,2.42-2.37,2.8-2.37.3,0,.38.14.38.27Z"/>
    <path class="cls-1" d="m184.96,184.02c-.19-.22-.24-.49-.24-.76,0-.11,0-.22.03-.33l.16.41c0-.68-.27-.82-.27-1.31,0-.11,0-.27.14-.27.03,0,.05.03.05.05,0,.16-.03.27-.03.54.08-.14.14-.68.22-1.36-.08.08,0,.19-.14.33-.03-.03-.08-.08-.08-.11.14-.41-.03-.92.27-1.22v.6c.05-.3.08-.6.14-.92-.03-.03-.03-.05-.03-.08-.08-.11-.11-.19-.11-.27,0-.33.16-.71.3-1.06-.03.25-.03.38-.03.57.08-.46.19-.82.27-1.22.11-.35.22-.73.33-1.12-.03.03-.05.05-.11.08l.08-.49c.03.05.05.14.05.22v.05c.25-.76.44-1.55.68-2.37-.05.11-.08.19-.11.24l-.05.25s-.03-.08-.03-.14q-.05.05-.11.05c.68-2.01,1.31-4.24,2.34-6.36.03-.05.05-.11.05-.14s-.03-.03-.08-.03c-1.39,0-2.53.54-3.89.54-.38,0-.6.27-.6.05,0-.92,3.32-1.33,5.06-1.52.87-.11,2.96-5.82,3.86-5.82.05.03.08.08.14.08.08,0,.08-.25.22-.25.41,0,.79.92.82,1.33,0,.05-.03.11-.05.16-.57,1.41-1.39,2.67-2.07,4.05,1.31,0,2.53-.16,3.86-.16.65,0,1.63.05,1.63.49,0,.22-4.13.43-5.87.6-.84.08-1.22,2.47-1.88,3.37-.11.11-.71,1.6-.71,1.77,0,.19-.22.24-.22.27.03.05.05.14.05.19,0,.25-.76,1.74-1.12,2.83-.73,2.2-1.55,4.89-1.55,7.02,0,.87-.05,1.11.41,1.11.19,0,1.09-1.14,1.79-2.07.33-.43.65-.84.82-1.03,0-.03.03-.03.05-.03.03.03.05.03.08.03,0,0,.05-.03.08-.05h-.11c.08-.27.22-.52.46-.68v.05c.03-.19.27-.38.41-.54.05-.03,2.94-3.67,2.99-3.7,1.14-1.33,2.69-2.31,3.67-3.62-.05.03-.08.03-.11.03s-.03-.03-.03-.05c0-.38,1.06-1.28,1.55-1.28.19,0,.35,0,.35.16,0,.41-1.82,2.04-2.09,2.17-.71.35-1.14,1.28-1.66,1.85-4.7,5.14-6.69,10.22-8.46,10.22-.9,0-1.25-.79-1.52-1.47l-.08.03Zm.33-5.85s-.03-.08-.03-.11c0-.24.24-1.06.49-1.47.03.03.03.08.03.11,0,.35-.27,1.09-.44,1.55l-.05-.08Zm.57-2.04c.03-.52.14-1.01.44-1.44-.14.46-.25.98-.44,1.44Zm1.09-2.99c.33-.9.68-1.77,1.09-2.66.14-.35.62-1.55.71-2.12-.3.11-1.12,2.88-1.47,3.75-.11.3-.22.65-.33,1.03Zm6.66,2.23c-.05.19-.3.24-.3.46-.14,0-2.8,3.62-2.99,3.73-.19.27-.19.41-.41.41,0,.14,3.29-4.38,3.7-4.59Zm.43-.49l-.33.33c0-.16.14-.27.33-.33Zm.38-.35c-.14.19-.16.24-.41.33.11-.14.16-.33.41-.33Zm.35-.38l-.08-.08.33-.16-.24.25Zm.46-.38c.05-.19.19-.3.35-.35-.11.14-.16.3-.35.35Zm.71-.63c-.03.11-.11.16-.22.16.03-.11.11-.16.22-.16Zm.73-.73c-.16.3-.44.46-.73.6.22-.22.38-.52.73-.6Z"/>
    <path class="cls-1" d="m205.35,171.38c-.9,1.03-3.32,3.86-4.79,6.04-.22.33-1.69,1.63-2.12,1.63-1.36,0-2.01-1.22-2.01-2.83,0-1.25.27-2.18.54-3.13.08-.3,1.09-2.56,1.69-2.61.03,0,.05,0,.05.03,0,.05-.03.11-.03.16.11-.05.22-.22.33-.22.08,0,.62.84.65,1.17,0,.38-.22.52-.46,1.09-.6,1.41-1.09,3.04-1.09,4.38.03.27.08.79.22.79.14-.03.35-.19.54-.3v.11s0,.05.14.05c.11-.03.49-.46.6-.71.19-.52.79-.76,1.11-1.52l.08.08c.11-.16.35-.43.35-.52.08,0,.14,0,.14.05.08-.16.14-.27.22-.41.03,0,.08.03.14.03s.11-.27.24-.49c.03-.08.05-.16.16-.19l.16-.08h-.03s0-.08.08-.08q.03.05.05.05c.08,0,.14-.38.22-.41l.03.03.03-.03h-.03l.49-.54h-.08c.11-.22.16-.41.44-.43,0,.08-.05.14-.05.22.03-.08.11-.14.22-.25v.05s.05-.05.11-.14l.03-.03c.27-.19.62-.44.62-.82-.08,0-.08.08-.08.11-.05-.03-.05-.05-.05-.05,0,0,.27-.52,1.09-.92.16,0,.35-.03.38.19,0,.05-.03.11-.03.16l-.3.27Zm-5.57-2.18c-.11,0-.35-.33-.38-.62,0-.35.24-1.36.54-1.36.03,0,.03.08.05.08,0,0,.08-.14.08-.22,0-.05-.19.03-.19-.08,0-.05.08-.05.14-.08.14,0,.11.25.25.25.05,0,.14-.05.22-.05.14,0,.41,0,.41.41,0,.38-.52,1.6-.71,1.6-.05,0-.11,0-.16-.05-.14.11-.19.14-.24.14Z"/>
    <path class="cls-1" d="m216.91,171.33c0,1.55-3.7,3.7-4.62,4.51-.9.79-2.39,1.69-3.02,2.31-.84.84-2.39,1.79-3.43,1.79-2.04-.11-2.61-1.69-2.61-3.13,0-5.14,2.5-7.4,4.35-7.4.84,0,1.77.38,1.77,1.41,0,.49-.27,1.82-1.01,1.82.03,0-.41-.05-.41-.16,0-.54.24-.98.24-1.47,0-.33-.08-.6-.35-.6-.71,0-1.41,1.6-1.74,2.2-.05.14-1.01,2.2-1.01,2.72.03.05.05.11.05.16,0,.49-.27,1.33-.27,2.07,0,.9.11,1.2.92,1.2.05,0,1.14-.54,1.2-.54.57-.05.92-.65,1.5-.82.33-.16,1.3-1.17,1.82-1.17,0,.05-.03.08-.08.14l.05-.03c.38-.38.6-.49.73-.57l-.08-.08c.16-.08.25-.27.44-.3l-.08.16c.05,0,.65-.3.95-.87,0,.08.03.08.05.08s.11-.03.11-.08h-.16c.16-.11.22-.33.43-.38,0,.27-.14.11-.19.3.35-.35.73-.3,1.06-.95-.22.05-.38.38-.71.46.22-.35.57-.57.9-.9v.19c.35-.52,2.42-2.37,2.8-2.37.3,0,.38.14.38.27Z"/>
    <path class="cls-1" d="m235.24,171.6s.6-.62.95-.62c.11,0,.22.14.27.41-.27.33-.84.95-.95.98l-.05.08c-.05.03-.08.08-.08.14-.9.82-1.85,1.58-2.77,2.37-.6.52-2.04,1.55-2.04,2.01,0,.16.03.35.03.52,0,.41-.16.87-.16,1.25,0,.05.03.11.08.14,0,1.01-.33,2.61-.33,3.45,0,.08.03.19.03.27,0,.25-.14.46-.14.68,0,.05.03.11.03.14,0,.43-.92,4.87-3.97,4.87-.33,0-2.75-.3-2.75-1.71,0-.11.08-.16.08-.22,0-.03-.08,0-.27-.3t.03-.03s.08.05.08.05t.03-.03c0-.24-.05-.52-.05-.73,0-.11.03-.19.08-.27-.03-.05-.03-.11-.03-.14,0-.6.27-1.39.76-2.23.57-1.01,1.47-2.09,2.58-3.02,0,0,1.88-1.36,1.88-1.85,0-.71.22-3.83.3-3.83-.08,0-.11-.3-.11-.6,0-.27.03-.54.03-.68-.95,1.41-1.5,2.5-2.67,3.67-.22.57-1.2.98-2.15.98-1.33,0-2.34-1.41-2.31-2.5.03-1.36.16-1.79,1.01-2.83.38-.71,1.88-1.58,2.47-1.63,0-.08.73,0,.73-.11.05-.05.65.08.73.08.03.03.03.05.08.08,0,0,.27.16.41.19.62.11.68.98.08.76-.9-.33-1.74.38-2.42.9-.62.49-1.41,2.07-1.41,3.15,0,.22.49.9.65.9,1.66,0,2.72-2.56,3.92-4.21,1.01-1.39,1.17-1.66,1.17-3.64.03.03.05.03.08.03.14,0,.14-.43.27-.46.03,0,.08.03.11.03.08,0,.19-.03.3-.03.33,0,1.11.65,1.11,1.25,0,.41-.16.82-.16,1.25,0,.14,0,.27.03.41,0,.3-.08.57-.08.84,0,.44.05.87.05,1.28,0,.87.03,1.74-.11,2.61.14,0,.19-.14.3-.14.05,0,.05.03.05.08,0-.43,4.16-3.75,4.16-4.02h.05Zm-6.77,7.04c-.49.35-.65.71-1.01,1.06-1.36,1.36-3.32,3.29-3.32,5.66,0,1.2.65,1.82,1.55,1.82,2.2,0,2.88-3.37,2.88-5.22,0-.73-.03-1.47-.03-2.2-.08-.35-.08-.71-.08-1.12Z"/>
    <path class="cls-1" d="m243.07,171.38c-.9,1.03-3.32,3.86-4.79,6.04-.22.33-1.69,1.63-2.12,1.63-1.36,0-2.01-1.22-2.01-2.83,0-1.25.27-2.18.54-3.13.08-.3,1.09-2.56,1.69-2.61.03,0,.05,0,.05.03,0,.05-.03.11-.03.16.11-.05.22-.22.33-.22.08,0,.62.84.65,1.17,0,.38-.22.52-.46,1.09-.6,1.41-1.09,3.04-1.09,4.38.03.27.08.79.22.79.14-.03.35-.19.54-.3v.11s0,.05.14.05c.11-.03.49-.46.6-.71.19-.52.79-.76,1.11-1.52l.08.08c.11-.16.35-.43.35-.52.08,0,.14,0,.14.05.08-.16.14-.27.22-.41.03,0,.08.03.14.03s.11-.27.24-.49c.03-.08.05-.16.16-.19l.16-.08h-.03s0-.08.08-.08q.03.05.05.05c.08,0,.14-.38.22-.41l.03.03.03-.03h-.03l.49-.54h-.08c.11-.22.16-.41.44-.43,0,.08-.05.14-.05.22.03-.08.11-.14.22-.25v.05s.05-.05.11-.14l.03-.03c.27-.19.62-.44.62-.82-.08,0-.08.08-.08.11-.05-.03-.05-.05-.05-.05,0,0,.27-.52,1.09-.92.16,0,.35-.03.38.19,0,.05-.03.11-.03.16l-.3.27Zm-5.57-2.18c-.11,0-.35-.33-.38-.62,0-.35.24-1.36.54-1.36.03,0,.03.08.05.08,0,0,.08-.14.08-.22,0-.05-.19.03-.19-.08,0-.05.08-.05.14-.08.14,0,.11.25.25.25.05,0,.14-.05.22-.05.14,0,.41,0,.41.41,0,.38-.52,1.6-.71,1.6-.05,0-.11,0-.16-.05-.14.11-.19.14-.24.14Z"/>
    <path class="cls-1" d="m246.03,179.4l-.03.03v.03s-.03,0-.03.03c0,.05,0,.08.03.08v.11c0,.05.03.11.05.22,0-.05.03-.11.03-.14.05.24.11.46.11.71,0,.08-.03.3-.05.3v.05l.08-.08c0,.76.05,1.55.05,2.26,0,1.77-1.41,4.79-3.32,4.79-1.33,0-2.45-1.36-2.75-2.58l-.08-.16s.05-.05.05-.08l-.08.08c-.03-.05-.05-.19-.08-.35v-.05h-.03v-.11s-.03,0-.03.03c-.03-.16-.03-.35-.05-.46.03-.03.05-.05.05-.08-.05-.65-.11-1.3-.11-1.96,0-1.88.43-3.86,1.01-5.76.08-.33.35-.84.35-1.09,0-.14-.71-.46-1.03-.46-.11,0-.22.03-.33.03-.27,0-.6-.33-.87-.76,0-.14.57-.3.68-.3.41,0,1.2.6,1.77.6.08,0,.11-.05.14-.16.68-2.83,2.2-6.31,3.86-8.16.14-.14,1.14-.9,1.14-1.17-.11.11-.19.25-.33.25.19-.33,0-.16.84-.79l-.03-.03c.73-.73,1.96-1.52,2.85-1.52.65,0,1.88.3,1.88,1.41,0,1.25-.82,3.18-1.74,4.16-.54.57-2.88,3.62-5.36,3.62-.11,0-.24-.03-.38-.03-.19,0-.24.84-.52.84,0,.05.08.03.08.14-.05.19-.25.52-.25.82,0,.05.03.11.03.16,0,.19-.33.52-.33.76,0,.08.05.08.16.08.6,0,1.2-.11,1.74-.11.08,0,.14.05.25.05.03,0,.08,0,.14-.03,1.74-.38,3.21-1.01,4.7-1.85,1.03,0,2.72-2.07,3.56-2.07.14,0,.25.05.35.11l.08-.03c.05.03.08.05.11.08,0,.76-1.22,1.25-1.69,1.69-1.03.95-2.72,1.41-4.05,2.07h-.08c-1.39.49-2.86.95-4.32.95-.38,0-.68-.05-1.06-.11.08.44,1.09,1.5,1.47,1.88l.03.05s.52.73.68.73c0,0,.03,0,.05-.03.08.08.27.19.3.35h.03c.14.25.3.44.3.63q-.08,0-.08-.08s-.03.08-.03.16v.05h-.03c0,.08-.03.16.03.22h.05Zm-2.77-2.26c-.16-.24-.35-.46-.62-.73,0,.82-.43,1.66-.84,2.77,0,.03.03.05.03.08-.14.79-.35,1.82-.35,2.04,0,.05,0,.08.05.14-.05.03-.08.03-.08.05s.11.08.11.24c0,.11-.03.52-.16.65.03.03.05.03.05.05,0,.05-.05.08-.05.14,0,.03.03.08.03.11s-.03.08-.11.08c.11.11.16.22.16.35,0,.16-.11.33-.11.52,0,.08.08.19.08.27,0,.05-.08.19-.08.3,0,.14.08.27.08.41,0,.05-.08.08-.08.16,0,.68.54,2.04,1.44,2.04.68,0,1.25-.52,1.82-2.04.19-.54.54-1.09.54-1.6,0-.08-.03-.19-.03-.27,0-.24.08-.49.08-.73,0-.3-.05-.6-.05-.9,0-.27,0-.54.05-.84-.03-.05-.05-.65-.35-1.28-.35-.73-1.14-1.25-1.58-1.9l-.03-.11Zm1.71-7.15l-.25.9c.92,0,2.42-1.11,3.34-2.04l.11-.08.33-.33c.11,0,.25-.14.38-.35.25-.41.54-1.01,1.01-1.25.63-.63.92-2.53.92-2.91,0-.19-.19-.43-.38-.43-.46,0-1.36.98-1.71,1.28-.71.6-1.69,1.41-2.12,2.28-.57.57-1.66,2.77-1.66,2.86l.03.08Z"/>
    <path class="cls-1" d="m250.9,184.02c-.19-.22-.24-.49-.24-.76,0-.11,0-.22.03-.33l.16.41c0-.68-.27-.82-.27-1.31,0-.11,0-.27.14-.27.03,0,.05.03.05.05,0,.16-.03.27-.03.54.08-.14.14-.68.22-1.36-.08.08,0,.19-.14.33-.03-.03-.08-.08-.08-.11.14-.41-.03-.92.27-1.22v.6c.05-.3.08-.6.14-.92-.03-.03-.03-.05-.03-.08-.08-.11-.11-.19-.11-.27,0-.33.16-.71.3-1.06-.03.25-.03.38-.03.57.08-.46.19-.82.27-1.22.11-.35.22-.73.33-1.12-.03.03-.05.05-.11.08l.08-.49c.03.05.05.14.05.22v.05c.25-.76.44-1.55.68-2.37-.05.11-.08.19-.11.24l-.05.25s-.03-.08-.03-.14q-.05.05-.11.05c.68-2.01,1.31-4.24,2.34-6.36.03-.05.05-.11.05-.14s-.03-.03-.08-.03c-1.39,0-2.53.54-3.89.54-.38,0-.6.27-.6.05,0-.92,3.32-1.33,5.06-1.52.87-.11,2.96-5.82,3.86-5.82.05.03.08.08.14.08.08,0,.08-.25.22-.25.41,0,.79.92.82,1.33,0,.05-.03.11-.05.16-.57,1.41-1.39,2.67-2.07,4.05,1.31,0,2.53-.16,3.86-.16.65,0,1.63.05,1.63.49,0,.22-4.13.43-5.87.6-.84.08-1.22,2.47-1.88,3.37-.11.11-.71,1.6-.71,1.77,0,.19-.22.24-.22.27.03.05.05.14.05.19,0,.25-.76,1.74-1.12,2.83-.73,2.2-1.55,4.89-1.55,7.02,0,.87-.05,1.11.41,1.11.19,0,1.09-1.14,1.79-2.07.33-.43.65-.84.82-1.03,0-.03.03-.03.05-.03.03.03.05.03.08.03,0,0,.05-.03.08-.05h-.11c.08-.27.22-.52.46-.68v.05c.03-.19.27-.38.41-.54.05-.03,2.94-3.67,2.99-3.7,1.14-1.33,2.69-2.31,3.67-3.62-.05.03-.08.03-.11.03s-.03-.03-.03-.05c0-.38,1.06-1.28,1.55-1.28.19,0,.35,0,.35.16,0,.41-1.82,2.04-2.09,2.17-.71.35-1.14,1.28-1.66,1.85-4.7,5.14-6.69,10.22-8.46,10.22-.9,0-1.25-.79-1.52-1.47l-.08.03Zm.33-5.85s-.03-.08-.03-.11c0-.24.24-1.06.49-1.47.03.03.03.08.03.11,0,.35-.27,1.09-.44,1.55l-.05-.08Zm.57-2.04c.03-.52.14-1.01.44-1.44-.14.46-.25.98-.44,1.44Zm1.09-2.99c.33-.9.68-1.77,1.09-2.66.14-.35.62-1.55.71-2.12-.3.11-1.12,2.88-1.47,3.75-.11.3-.22.65-.33,1.03Zm6.66,2.23c-.05.19-.3.24-.3.46-.14,0-2.8,3.62-2.99,3.73-.19.27-.19.41-.41.41,0,.14,3.29-4.38,3.7-4.59Zm.43-.49l-.33.33c0-.16.14-.27.33-.33Zm.38-.35c-.14.19-.16.24-.41.33.11-.14.16-.33.41-.33Zm.35-.38l-.08-.08.33-.16-.24.25Zm.46-.38c.05-.19.19-.3.35-.35-.11.14-.16.3-.35.35Zm.71-.63c-.03.11-.11.16-.22.16.03-.11.11-.16.22-.16Zm.73-.73c-.16.3-.44.46-.73.6.22-.22.38-.52.73-.6Z"/>
    <path class="cls-1" d="m261.34,185.14c-.08-.11-.14-.19-.14-.25.24-2.04.98-3.86,2.15-5.76.22-.35.98-1.06.98-1.44,0-.05,0-.11-.03-.16-.71-2.09-1.44-3.97-1.44-5.41,0-.14.03-.27.03-.41,0-.11-.05-.19-.05-.3,0-.52.11-.84.11-1.41,0-.05-.03-.11-.03-.19,0-.95.73-1.39.9-1.9.19-.6,1.14-1.01,1.66-1.01,1.44,0,1.99.71,1.99,1.71,0,1.06-.3,2.77-2.26,2.77-.14,0-.3,0-.52-.05-.03,0-.05.05-.05.14,0,.35.22,1.25.27,1.69,0,.03.57,2.91.76,2.91.03-.03.79-.6,1.06-.84,1.74-1.58,2.61-2.53,4.19-3.43.43-.24,1.55-.98,2.07-.98.05,0,.11.05.19.19-.05-.03-.11-.05-.16-.05-.03,0-.05.03-.08.03.03.03.05.08.08.08.05,0,.11-.03.16-.05.14,0,.14.08.22.11-.05.05-.05.11-.16.14,0,.44-1.28.71-1.66.92-1.44.84-1.79,1.09-4.32,3.37-.19.16-1.25,1.17-1.25,1.44,0,.79.9,1.85.9,2.37.22.92.3,1.79.3,2.77,0,.19-.05.38-.05.54,0,.22.05.46.05.68,0,1.2-.49,2.04-.87,2.8-.03.03-1.11,1.5-2.67,1.5-.95,0-1.85-.95-2.42-1.98,0,0,.03-.03.03-.05l.08.08c0-.27.11-.11.11-.22,0-.08-.03-.19-.05-.27l.16.25c0-.16.03-.25-.22-.3Zm4.02-2.58c0-1.14-.25-2.75-.63-3.94-.76.95-2.58,3.94-2.58,6.23,0,.6.82,1.69,1.55,1.69.38,0,.71-.22.95-.52h.08v-.08c.54-.76.73-2.15.73-3.29l-.11-.08Zm-.79-12.29c0,.22.05.33.33.33,1.22,0,1.79-1.01,1.79-1.77,0-.6-.3-1.09-.84-1.09-.95,0-1.12,1.39-1.33,2.2l.05.33Z"/>
  </g>
  <g>
    <g>
      <path class="cls-1" d="m71.24,148.03c.68,0,1.23-.55,1.23-1.23s-.55-1.23-1.23-1.23-1.23.55-1.23,1.23.55,1.23,1.23,1.23Z"/>
      <path class="cls-1" d="m58.24,147.75c.68,0,1.23-.55,1.23-1.23s-.55-1.23-1.23-1.23-1.23.55-1.23,1.23.55,1.23,1.23,1.23Z"/>
      <path class="cls-1" d="m64.08,159.51h1.32c1.24,0,2.24-1,2.24-2.24l.61-1.28c0-1.24-1-2.24-2.24-2.24h-2.54c-1.24,0-2.24,1-2.24,2.24l.61,1.28c0,1.24,1,2.24,2.24,2.24Z"/>
      <g>
        <path class="cls-1" d="m48.83,124.35c.29-.34.78-.42,1.15-.37.57.06,1.15.38,1.59.64,1.25.75,2.41,1.75,3.53,2.71l.2.17c.94.81,1.92,1.64,2.46,2.34l1.37-1.06c-.65-.84-1.7-1.74-2.71-2.6l-.2-.17c-1.18-1.01-2.39-2.05-3.77-2.88-.59-.36-1.39-.78-2.3-.88-1.06-.12-2.05.25-2.66.97-.45.52-.64,1.16-.79,1.71-.75,2.83-.89,5.85-.39,8.74l1.56-1.61c-.22-2.24-.06-4.52.51-6.69.1-.37.22-.78.43-1.03Z"/>
        <path class="cls-1" d="m40.8,154.89l1.81-.18-1.85-4.36,2.14-4.9-.71-5.25,3.34-3.09c-.11-.76-.18-1.52-.21-2.28l-4.97,4.77.76,5.6-2.24,5.14,1.93,4.55Z"/>
        <polygon class="cls-1" points="42.05 159.66 42.49 156.47 40.71 156.64 40.22 160.23 44.97 165.46 41.99 170.05 45.39 174.21 46.74 173.12 44.13 169.94 47.16 165.29 42.05 159.66"/>
        <polygon class="cls-1" points="64.74 125.07 64.73 125.07 64.73 125.08 61.59 126.59 61.04 125.93 59.71 127.04 61.1 128.73 64.74 126.98 68.38 128.73 69.78 127.04 68.44 125.93 67.9 126.59 64.75 125.08 64.75 125.07 64.74 125.07"/>
        <path class="cls-1" d="m81.98,123.23c-.62-.72-1.6-1.1-2.66-.97-.91.1-1.7.52-2.3.88-1.38.83-2.59,1.87-3.77,2.88l-.2.17c-1.01.86-2.06,1.76-2.71,2.6l1.37,1.06c.54-.7,1.52-1.54,2.46-2.34l.2-.17c1.12-.96,2.28-1.95,3.53-2.71.44-.27,1.02-.58,1.59-.64.38-.04.87.04,1.15.37.21.25.33.66.43,1.03.58,2.16.73,4.45.51,6.69l1.56,1.61c.49-2.89.36-5.91-.39-8.74-.15-.55-.34-1.18-.79-1.71Z"/>
        <path class="cls-1" d="m84.16,134.84c-.03.77-.09,1.53-.21,2.28l3.34,3.09-.71,5.25,2.14,4.9-1.85,4.36,1.81.18,1.93-4.55-2.24-5.14.76-5.6-4.97-4.77Z"/>
        <polygon class="cls-1" points="85.35 169.94 82.75 173.12 84.09 174.21 87.5 170.05 84.51 165.46 89.27 160.23 88.77 156.64 87 156.47 87.44 159.66 82.33 165.29 85.35 169.94"/>
        <polygon class="cls-1" points="64.74 176.04 64.75 176.04 64.75 176.03 67.9 174.52 68.44 175.18 69.78 174.07 68.38 172.39 64.74 174.13 61.1 172.39 59.71 174.07 61.04 175.18 61.59 174.52 64.73 176.03 64.73 176.04 64.74 176.04"/>
      </g>
      <path class="cls-1" d="m63.87,188v-1.76c-19.39-.46-35.05-16.12-35.51-35.51h-1.76c.46,20.35,16.92,36.81,37.26,37.26Z"/>
      <path class="cls-1" d="m26.61,149h1.76c.46-19.39,16.12-35.05,35.51-35.51v-1.76c-20.35.46-36.81,16.92-37.26,37.26Z"/>
      <path class="cls-1" d="m65.61,111.73v1.76c19.39.46,35.05,16.12,35.51,35.51h1.76c-.46-20.35-16.92-36.81-37.26-37.26Z"/>
      <path class="cls-1" d="m102.87,150.73h-1.76c-.46,19.39-16.12,35.05-35.51,35.51v1.76c20.35-.46,36.81-16.92,37.26-37.26Z"/>
    </g>
    <path class="cls-1" d="m71.23,160.76c-.47-.09-.93.22-1.03.69,0,0-.08.38-.38.72-.43.5-1.12.7-2.05.6-1.31-.14-1.78-.54-1.95-.76-.13-.17-.13-.31-.13-.31v.04s0,0,0,0c0-.02,0-.04,0-.06,0-.51-.42-.93-.93-.93s-.93.42-.93.93c0,0,0,.01,0,.02h-.01s0,.14-.13.31c-.17.23-.65.63-1.95.76-.93.1-1.62-.1-2.05-.6-.3-.34-.38-.71-.38-.71h0c-.09-.48-.54-.8-1.02-.71-.48.09-.8.54-.71,1.02.02.08.17.85.78,1.55.51.58,1.41,1.23,2.94,1.23.2,0,.4-.01.62-.03,1.26-.13,2.21-.5,2.84-1.09.63.59,1.58.96,2.84,1.09.22.02.42.03.62.03,1.53,0,2.44-.65,2.94-1.23.62-.71.77-1.47.78-1.55.09-.47-.23-.92-.7-1.01Z"/>
  </g>
</svg>