<?xml version="1.0" encoding="UTF-8"?>
<svg id="Layer_1" data-name="Layer 1" xmlns="http://www.w3.org/2000/svg" viewBox="0 0 300 300">
  <defs>
    <style>
      .cls-1 {
        fill: #fff;
        stroke-width: 0px;
      }
    </style>
  </defs>
  <g>
    <path class="cls-1" d="m39.05,142.2c.32-.05.6-.16.84-.31.24-.15.43-.37.58-.64.14-.27.21-.64.21-1.1v-17.1c0-.46-.07-.83-.21-1.1-.14-.27-.33-.49-.58-.64-.24-.15-.52-.26-.84-.31-.32-.05-.65-.08-1-.08v-.33c.62,0,1.11,0,1.48.02.37.01.68.02.92.03.24.01.45.02.63.03.18.01.38.02.63.02.44,0,.8-.02,1.09-.05.29-.03.68-.05,1.19-.05l7.15,16.97,6.75-16.97c.42,0,.75.02.99.05.24.03.61.05,1.12.05.29,0,.53,0,.72-.02.2-.01.42-.02.68-.03.25-.01.56-.02.94-.03.37-.01.88-.02,1.52-.02v.33c-.35,0-.69.03-1,.08-.32.06-.6.16-.84.31-.24.15-.43.37-.58.64-.14.27-.21.64-.21,1.1v17.1c0,.46.07.83.21,1.1.14.27.33.49.58.64.24.15.52.26.84.31s.65.08,1,.08v.33c-.66,0-1.19,0-1.58-.02-.4-.01-.74-.03-1.02-.05-.29-.02-.55-.04-.81-.05-.25-.01-.55-.02-.91-.02-.37,0-.68,0-.92.02-.24.01-.5.03-.79.05-.29.02-.63.04-1.02.05-.4.01-.92.02-1.58.02v-.33c.35,0,.69-.03,1-.08.32-.05.6-.16.84-.31.24-.15.43-.37.58-.64.14-.27.21-.64.21-1.1v-17.79l-8.07,20.29h-.07l-8.4-19.7v17.2c0,.46.07.83.21,1.1.14.27.33.49.58.64.24.15.52.26.84.31s.65.08,1,.08v.33c-.44,0-.8,0-1.07-.02-.27-.01-.51-.02-.71-.03-.2-.01-.38-.02-.56-.03-.18-.01-.38-.02-.63-.02s-.45,0-.63.02c-.18.01-.36.02-.56.03-.2.01-.43.02-.69.03-.26.01-.62.02-1.05.02v-.33c.35,0,.69-.03,1-.08Z"/>
    <path class="cls-1" d="m86.21,120.18c1.58,0,3.07.27,4.48.81,1.41.54,2.65,1.31,3.72,2.31,1.08,1,1.93,2.21,2.55,3.62s.94,2.99.94,4.73-.31,3.37-.94,4.78c-.63,1.41-1.47,2.6-2.54,3.59s-2.31,1.75-3.72,2.27c-1.42.53-2.92.79-4.5.79-1.69,0-3.25-.27-4.68-.81-1.43-.54-2.67-1.31-3.72-2.31-1.05-1-1.88-2.21-2.47-3.62-.59-1.42-.89-3-.89-4.76s.3-3.2.89-4.6c.59-1.39,1.41-2.6,2.45-3.61,1.04-1.01,2.28-1.8,3.72-2.36s3-.84,4.69-.84Zm0,.59c-1.3,0-2.44.3-3.44.91-1,.6-1.83,1.41-2.5,2.42s-1.17,2.17-1.52,3.49c-.34,1.32-.51,2.68-.51,4.08,0,1.49.17,2.9.51,4.21.34,1.32.85,2.46,1.52,3.44s1.5,1.75,2.5,2.32c1,.57,2.15.85,3.44.85s2.33-.28,3.31-.84,1.81-1.32,2.49-2.29c.68-.96,1.2-2.11,1.56-3.44.36-1.33.54-2.75.54-4.26s-.18-2.9-.54-4.23c-.36-1.33-.88-2.48-1.56-3.47s-1.51-1.77-2.49-2.34-2.08-.86-3.31-.86Z"/>
    <path class="cls-1" d="m108.51,120.57c.66,0,1.19,0,1.58.02.4.01.73.02,1,.02s.53,0,.77.02c.24.01.54.02.89.02.57,0,1.24-.03,1.99-.08.76-.05,1.6-.08,2.52-.08.86,0,1.75.07,2.69.2.93.13,1.79.4,2.57.79.78.4,1.42.96,1.93,1.7s.76,1.71.76,2.92c0,.81-.17,1.55-.49,2.21-.33.66-.76,1.23-1.3,1.71-.54.48-1.15.88-1.85,1.2-.69.32-1.4.53-2.12.64.22.29.6.76,1.15,1.42.55.66,1.16,1.4,1.84,2.22.68.82,1.39,1.67,2.12,2.54.74.87,1.4,1.64,1.99,2.32.5.57.98,1.04,1.43,1.4.45.36.95.54,1.5.54v.33c-.48,0-.87,0-1.17-.02-.3-.01-.54-.02-.74-.03-.2-.01-.38-.02-.56-.03-.18-.01-.39-.02-.66-.02s-.49,0-.68.02c-.19.01-.36.02-.53.03-.16.01-.35.02-.54.03-.2.01-.45.02-.76.02-.68-.86-1.31-1.66-1.88-2.42s-1.13-1.5-1.68-2.22c-.55-.72-1.11-1.45-1.68-2.19s-1.19-1.52-1.84-2.36c-.33-.42-.62-.71-.86-.87-.24-.17-.62-.25-1.12-.25h-.3v7.84c0,.46.07.83.21,1.1.14.27.33.49.58.64.24.15.52.26.84.31s.65.08,1,.08v.33c-.66,0-1.19,0-1.58-.02-.4-.01-.74-.03-1.02-.05-.29-.02-.55-.04-.81-.05-.25-.01-.55-.02-.91-.02-.37,0-.68,0-.92.02-.24.01-.51.03-.79.05-.29.02-.63.04-1.02.05-.39.01-.92.02-1.58.02v-.33c.35,0,.69-.03,1-.08s.6-.16.84-.31c.24-.15.43-.37.58-.64.14-.27.21-.64.21-1.1v-17.1c0-.46-.07-.83-.21-1.1-.14-.27-.34-.49-.58-.64-.24-.15-.52-.26-.84-.31-.32-.05-.65-.08-1-.08v-.33Zm6,11.13h1.65c1.78,0,3.11-.48,3.99-1.45.88-.97,1.32-2.38,1.32-4.25,0-.68-.11-1.32-.33-1.91-.22-.59-.54-1.11-.96-1.56-.42-.45-.93-.81-1.55-1.07s-1.31-.4-2.08-.4c-.18,0-.38,0-.63.02-.24.01-.47.06-.67.15-.21.09-.38.21-.53.38-.14.16-.21.39-.21.68v9.42Z"/>
    <path class="cls-1" d="m142.62,142.2c.32-.05.6-.16.84-.31.24-.15.43-.37.58-.64.14-.27.21-.64.21-1.1v-18.97c-1.25-.04-2.15-.08-2.7-.1s-.88-.03-.99-.03c-1.3.02-2.24.43-2.82,1.21-.58.79-.92,1.81-1,3.07h-.33l.16-4.81c.5-.02.97-.03,1.4-.03h1.2c.88,0,1.65.01,2.31.03.66.02,1.25.04,1.76.05.52.01.98.03,1.4.05.42.02.83.03,1.25.03s.83-.01,1.25-.03c.42-.02.89-.04,1.42-.05.53-.01,1.13-.03,1.8-.05s1.47-.03,2.39-.03h1.25c.44,0,.91.01,1.42.03l.2,4.81h-.33c-.04-.55-.14-1.09-.3-1.61-.15-.52-.38-.98-.69-1.39-.31-.41-.7-.74-1.17-.98-.47-.24-1.04-.37-1.7-.37-.11,0-.46.02-1.05.05-.59.03-1.52.08-2.77.15v18.97c0,.46.07.83.21,1.1s.33.49.58.64c.24.15.52.26.84.31s.65.08,1,.08v.33c-.66,0-1.19,0-1.58-.02-.4-.01-.74-.03-1.02-.05-.29-.02-.55-.04-.81-.05-.25-.01-.55-.02-.91-.02-.37,0-.68,0-.92.02-.24.01-.5.03-.79.05-.29.02-.63.04-1.02.05-.4.01-.92.02-1.58.02v-.33c.35,0,.69-.03,1-.08Z"/>
    <path class="cls-1" d="m176.6,120.18c1.58,0,3.07.27,4.48.81,1.41.54,2.65,1.31,3.72,2.31,1.08,1,1.93,2.21,2.55,3.62s.94,2.99.94,4.73-.31,3.37-.94,4.78c-.63,1.41-1.47,2.6-2.54,3.59s-2.31,1.75-3.72,2.27c-1.42.53-2.92.79-4.5.79-1.69,0-3.25-.27-4.68-.81-1.43-.54-2.67-1.31-3.72-2.31-1.05-1-1.88-2.21-2.47-3.62-.59-1.42-.89-3-.89-4.76s.3-3.2.89-4.6c.59-1.39,1.41-2.6,2.45-3.61,1.04-1.01,2.28-1.8,3.72-2.36s3-.84,4.69-.84Zm0,.59c-1.3,0-2.44.3-3.44.91-1,.6-1.83,1.41-2.5,2.42s-1.17,2.17-1.52,3.49c-.34,1.32-.51,2.68-.51,4.08,0,1.49.17,2.9.51,4.21.34,1.32.85,2.46,1.52,3.44s1.5,1.75,2.5,2.32c1,.57,2.15.85,3.44.85s2.33-.28,3.31-.84,1.81-1.32,2.49-2.29c.68-.96,1.2-2.11,1.56-3.44.36-1.33.54-2.75.54-4.26s-.18-2.9-.54-4.23c-.36-1.33-.88-2.48-1.56-3.47s-1.51-1.77-2.49-2.34-2.08-.86-3.31-.86Z"/>
    <path class="cls-1" d="m200.24,142.2c.32-.05.6-.16.84-.31.24-.15.43-.37.58-.64.14-.27.21-.64.21-1.1v-16.93l-.72-.92c-.31-.4-.64-.72-1-.99s-.83-.4-1.4-.4v-.33c.4,0,.74,0,1.02.02.29.01.54.02.77.03.23.01.44.02.63.03.19.01.4.02.64.02.22,0,.41,0,.56-.02.15-.01.31-.02.46-.03.15-.01.32-.02.49-.03.18-.01.4-.02.66-.02l13.7,16.87v-14.4c0-.46-.07-.83-.21-1.1-.14-.27-.33-.49-.58-.64-.24-.15-.52-.26-.84-.31-.32-.05-.65-.08-1-.08v-.33c.44,0,.79,0,1.05.02.26.01.49.02.69.03.2.01.38.02.56.03.18.01.38.02.63.02s.45,0,.63-.02c.18-.01.36-.02.56-.03.2-.01.43-.02.71-.03.27-.01.63-.02,1.07-.02v.33c-.35,0-.69.03-1,.08-.32.06-.6.16-.84.31-.24.15-.43.37-.58.64-.14.27-.21.64-.21,1.1v19.96h-.59l-15.22-19.07v16.21c0,.46.07.83.21,1.1.14.27.33.49.58.64.24.15.52.26.84.31s.65.08,1,.08v.33c-.44,0-.8,0-1.07-.02-.27-.01-.51-.02-.71-.03-.2-.01-.38-.02-.56-.03-.18-.01-.38-.02-.63-.02s-.45,0-.63.02c-.18.01-.36.02-.56.03-.2.01-.43.02-.69.03-.26.01-.62.02-1.05.02v-.33c.35,0,.69-.03,1-.08Z"/>
    <path class="cls-1" d="m232.41,128.58c.5-.35.91-.71,1.2-1.07.3-.36.53-.71.69-1.05.16-.34.27-.66.33-.96s.08-.57.08-.81c0-.04,0-.1-.02-.18-.01-.08-.02-.15-.02-.21v-.2c-.24.18-.45.29-.61.35-.17.06-.32.08-.48.08-.46,0-.86-.15-1.2-.44s-.51-.7-.51-1.2c0-.57.18-1.03.54-1.37.36-.34.77-.51,1.24-.51.29,0,.57.06.86.18.29.12.54.3.77.54s.42.54.56.91.21.8.21,1.3c0,1.05-.33,2-.99,2.83-.66.83-1.47,1.54-2.44,2.11l-.23-.3Z"/>
    <path class="cls-1" d="m260.06,121.77c-.01.41-.02.81-.02,1.2,0,.42.03.89.08,1.42.05.53.08,1.02.08,1.48h-.4c-.07-.63-.24-1.25-.53-1.87-.29-.61-.65-1.16-1.1-1.65-.45-.49-.98-.88-1.58-1.18-.6-.29-1.27-.44-1.99-.44-.57,0-1.1.11-1.6.33-.49.22-.92.51-1.27.87-.35.36-.63.79-.82,1.3-.2.5-.3,1.03-.3,1.58,0,.81.21,1.48.63,2.02.42.54.94.99,1.58,1.36.64.37,1.33.71,2.08,1,.75.3,1.45.61,2.11.94.68.35,1.32.72,1.93,1.12.6.4,1.12.85,1.56,1.35.44.51.79,1.09,1.05,1.76s.4,1.47.4,2.39-.19,1.77-.56,2.54c-.37.77-.89,1.43-1.55,1.98-.66.55-1.44.98-2.34,1.28s-1.89.46-2.96.46-2.08-.18-2.95-.54c-.87-.36-1.73-.83-2.59-1.4l-.76,1.28h-.33c0-.68.01-1.22.03-1.61.02-.4.03-.81.03-1.25,0-.46-.01-.96-.03-1.5-.02-.54-.03-1.16-.03-1.86h.39c.04.83.21,1.63.51,2.39.3.76.7,1.42,1.22,1.99.52.57,1.14,1.03,1.86,1.38.73.35,1.55.53,2.47.53.68,0,1.32-.11,1.93-.33.6-.22,1.13-.53,1.58-.94.45-.41.8-.88,1.05-1.43.25-.55.38-1.15.38-1.81s-.16-1.28-.49-1.81c-.33-.53-.75-.99-1.27-1.4-.52-.41-1.09-.77-1.73-1.09-.64-.32-1.25-.62-1.84-.91-.7-.33-1.4-.69-2.08-1.09s-1.29-.86-1.83-1.38c-.54-.53-.97-1.14-1.3-1.83-.33-.69-.49-1.51-.49-2.45,0-.79.17-1.54.51-2.24.34-.7.79-1.32,1.37-1.84.57-.53,1.23-.94,1.98-1.25.75-.31,1.53-.46,2.34-.46s1.64.15,2.4.44,1.49.72,2.17,1.27l.69-1.25h.33c0,.37,0,.76-.02,1.17Z"/>
  </g>
  <g>
    <path class="cls-1" d="m149.69,160.44c-.95,1.13-.84,1.05-2.73,4.11-.47.76-.95,2-1.78,2.54.04.04.04.07.04.11s-.22.36-.33.51c-.87,1.75-2.22,3.42-4.69,3.42-1.38,0-2-2.14-2-3.64,0-2.33.76-4.4,1.49-6.91.18-.58.55-1.56.55-2.04,0-.07-.07-.11-.07-.18s.04-.18.04-.29c.69-2.22,1.85-4.51,2.25-6.76,0,0-.04-.07-.07-.11q-.04.07-.07.07c-1.09,0-2.58,3.02-3.64,4.29-1.78,2.18-2.55,4.65-3.6,7.24-.29.73-.73,3.13-1.96,3.75-.11,0-.11-.11-.18-.18,0,.11-.11.22-.14.29,0-.07-.04-.07-.11-.07.04.04,0,.07.18.07-.04.29-.33.29-.44.29-1.31,0-1.49-1.85-1.49-2.98,0-1.38.25-2.73.47-4.11.11-.69.47-1.49.47-2.04,0-.04-.04-.11-.07-.11s-.11,0-.15.04c-2.69,2.36-3.96,5.2-5.13,8.22-.11.29-.4.47-.4.69,0,.11.15.22.15.33,0,.22-.51.51-.8.51-1.42,0-2-2.11-2-3.53,0-.51.22-2.36.33-2.36,0,.07.04.15.04.18,0-.04.04-.07.04-.11s-.04-.04-.07-.07c.15-.91.36-1.67.54-2.44.44-1.09.36-2.29,1.13-3.56,0-.11-.18-.04-.18-.18.65-.04.25-1.02.91-1.02.47,0,1.6.87,1.6,1.75-.51,1.75-.4,3.64-1.05,5.05q-.04.07-.04.11c0,.11.07.15.11.29.18-.25.44-.54.65-.87v-.04c1.13-1.67,2.73-4.25,5.09-4.25.58,0,1.85.22,1.85,1.35,0,.65-.54,1.85-.54,2.62,0,.11.07.22.07.33,0,.22-.18,1.02-.25,1.49,1.46-2.58,2.76-6.29,4.36-7.85,1.45-1.42,2.87-4.29,4.51-4.29,1.96,0,2.25.91,2.25,2.25,0,3.89-1.64,5.49-2.07,7.71-.58,2.18-1.53,4.4-1.96,6.76-.04.29,0,.62-.29.84,0,.4.15.65.15,1.02,0,.22-.11.18-.11.69,0,.18.04.4.15.4.76,0,1.38-.66,2.04-1.31,0,0,1.24-1.27,1.24-1.31s0-.07-.04-.15c.22-.15.58-.51.58-.73t-.04-.07c.62-.69,1.05-1.56,1.6-2.36,1.49-2.14,3.93-6.33,5.53-6.69.11.18.18.33.18.44,0,.15-.25.69-.44.87l-1.64,2Z"/>
    <path class="cls-1" d="m154.34,154.04c.98,0,2.4-.07,2.8,1.42.51,1.89-2.73,6.33-5.13,6.29-.8,0-1.27-.25-1.31-.25-.25,0-.55,1.82-.55,2.65,0,1.27.04,3.2,1.78,3.2,4.69,0,10.36-10.29,11.16-10.29.18,0,.18.33.18.65-.07,1.27-1.2,2.22-1.85,3.24-.87.95-2.58,3.2-3.49,4.11-1.38,1.38-3.96,3.78-6.18,3.78s-3.53-1.64-3.96-3.31h.11c-.04-.22-.04-.76-.22-.76l.11.66c-.18-.76-.25-1.53-.25-2.29,0-3.64,3.2-9.09,6.8-9.09Zm-3.35,6.29s.25.47.44.47c1.46,0,4.55-3.75,4.55-4.8,0-.25-.22-.51-.55-.47-2.4.4-3.56,3.6-4.29,4.62-.11.15-.15.18-.15.18Z"/>
    <path class="cls-1" d="m186.26,160.44c-.95,1.13-.84,1.05-2.73,4.11-.47.76-.95,2-1.78,2.54.04.04.04.07.04.11s-.22.36-.33.51c-.87,1.75-2.22,3.42-4.69,3.42-1.38,0-2-2.14-2-3.64,0-2.33.76-4.4,1.49-6.91.18-.58.55-1.56.55-2.04,0-.07-.07-.11-.07-.18s.04-.18.04-.29c.69-2.22,1.85-4.51,2.25-6.76,0,0-.04-.07-.07-.11q-.04.07-.07.07c-1.09,0-2.58,3.02-3.64,4.29-1.78,2.18-2.55,4.65-3.6,7.24-.29.73-.73,3.13-1.96,3.75-.11,0-.11-.11-.18-.18,0,.11-.11.22-.14.29,0-.07-.04-.07-.11-.07.04.04,0,.07.18.07-.04.29-.33.29-.44.29-1.31,0-1.49-1.85-1.49-2.98,0-1.38.25-2.73.47-4.11.11-.69.47-1.49.47-2.04,0-.04-.04-.11-.07-.11s-.11,0-.15.04c-2.69,2.36-3.96,5.2-5.13,8.22-.11.29-.4.47-.4.69,0,.11.15.22.15.33,0,.22-.51.51-.8.51-1.42,0-2-2.11-2-3.53,0-.51.22-2.36.33-2.36,0,.07.04.15.04.18,0-.04.04-.07.04-.11s-.04-.04-.07-.07c.15-.91.36-1.67.54-2.44.44-1.09.36-2.29,1.13-3.56,0-.11-.18-.04-.18-.18.65-.04.25-1.02.91-1.02.47,0,1.6.87,1.6,1.75-.51,1.75-.4,3.64-1.05,5.05q-.04.07-.04.11c0,.11.07.15.11.29.18-.25.44-.54.65-.87v-.04c1.13-1.67,2.73-4.25,5.09-4.25.58,0,1.85.22,1.85,1.35,0,.65-.54,1.85-.54,2.62,0,.11.07.22.07.33,0,.22-.18,1.02-.25,1.49,1.46-2.58,2.76-6.29,4.36-7.85,1.45-1.42,2.87-4.29,4.51-4.29,1.96,0,2.25.91,2.25,2.25,0,3.89-1.64,5.49-2.07,7.71-.58,2.18-1.53,4.4-1.96,6.76-.04.29,0,.62-.29.84,0,.4.15.65.15,1.02,0,.22-.11.18-.11.69,0,.18.04.4.15.4.76,0,1.38-.66,2.04-1.31,0,0,1.24-1.27,1.24-1.31s0-.07-.04-.15c.22-.15.58-.51.58-.73t-.04-.07c.62-.69,1.05-1.56,1.6-2.36,1.49-2.14,3.93-6.33,5.53-6.69.11.18.18.33.18.44,0,.15-.25.69-.44.87l-1.64,2Z"/>
    <path class="cls-1" d="m190.91,154.04c.98,0,2.4-.07,2.8,1.42.51,1.89-2.73,6.33-5.13,6.29-.8,0-1.27-.25-1.31-.25-.25,0-.55,1.82-.55,2.65,0,1.27.04,3.2,1.78,3.2,4.69,0,10.36-10.29,11.16-10.29.18,0,.18.33.18.65-.07,1.27-1.2,2.22-1.85,3.24-.87.95-2.58,3.2-3.49,4.11-1.38,1.38-3.96,3.78-6.18,3.78s-3.53-1.64-3.96-3.31h.11c-.04-.22-.04-.76-.22-.76l.11.66c-.18-.76-.25-1.53-.25-2.29,0-3.64,3.2-9.09,6.8-9.09Zm-3.35,6.29s.25.47.44.47c1.46,0,4.55-3.75,4.55-4.8,0-.25-.22-.51-.55-.47-2.4.4-3.56,3.6-4.29,4.62-.11.15-.15.18-.15.18Z"/>
    <path class="cls-1" d="m219.82,157.79v.04l-.07.11h.11c0,.36-.73,1.13-1.2,1.6,0-.04-.04-.04-.07-.07-1.27,1.27-2.25,3.27-2.54,3.49,0,.11-.22.33-.4.54.11-.11.22-.22.36-.22-.84,1.27-1.6,2.54-2.25,3.89.07-.22.15-.4.18-.62l-.04-.04c-.4,1.02-.84,1.82-1.13,2.4t-.07-.04l-.11.07s.04.04.07.04c-.62.98-2.33,4.25-4.29,4.25-.54,0-1.56-.4-1.78-1.05,0-.04,0-.07-.04-.07-.62-.4-.73-1.49-.73-2,.25-2.15.65-4.04,1.35-6.07,1.02-3.09,2.58-5.6,3.2-9.16-.8.73-1.67,1.31-2.51,2.04-.58.51-1.02,1.2-1.56,1.75l-.11-.11c-.33.33-1.09,1.09-1.09,1.27,0,.69-2.4,3.31-3.24,4.62-.44.69-1.49,2.65-2.58,2.65-.91,0-2-1.09-2-2.36,0-1.75.4-4.47,1.27-6.51.25-.58.73-1.42.73-1.38,0-.04-.04-.07-.04-.11,0-.07.33-.29.44-.29.15,0,.07.15.36.15,0-.07-.04-.15-.04-.22l.07-.07c.07.07.18.11.18.15.04,0,.04-.04.07-.04.15,0,1.05.73,1.13,1.31-.07,0-.36,1.42-.69,2.76-.25,1.02-1.02,2.76-1.02,4.29,1.31-1.53.18-.33,2.11-2.47.04.07.07.07.07.07-.04,0,.29-.29.29-.25,0-.04-.04-.07-.07-.11.04-.18.22-.29.33-.4v.11s.29-.18.29-.33c0-.04-.04-.07-.07-.15.29-.29.44-.07.44-.4.07,0,.18,0,.22.07v-.11c.11-.25.33-.47.69-.84,0,0,.15.07.22.07.15-.18,1.67-1.93,2.04-2.69h.11c.07-.15.22-.29.22-.44,0-.04-.07-.07-.15-.07.04-.07.07-.15.11-.15,0,0,.04.04.07.04.07-.18.65-.58.95-.91h-.04s-.07-.04-.11-.07c.51-.51,1.16-.91,1.75-1.42v.11s.07-.07.07-.07c-.04-.04-.07-.04-.07-.07,0-.33,1.67-1.31,1.75-1.31.54,0,1.89.44,1.89,2.65,0,3.35-1.6,6.11-2.69,9.09-.4.76-.62,1.85-.91,2.58-.29,1.16-.84,2.44-.84,3.67,0,.36.07.51.18.51.98,0,2.44-3.05,3.13-3.05.04,0,.04.04.07.04,0-.04.15-.29,1.02-1.42.07-.04.62-.76.65-.87.04,0,.07.04.11.04.07-.18.87-2.18.98-2.18.04,0,.04.04.07.04.33-.36,1.67-1.78,1.67-2.22,0-.04-.04-.07-.11-.11.33-.15.36-.58.51-.87,1.42-1.42,2.15-3.45,2.91-3.45.15,0,.22.04.36.15,0,.15-.15.11-.15.22Z"/>
    <path class="cls-1" d="m207.38,147.02c-1.2,0-.8-1.35-.8-1.45.73-1.24,2.15-1.31,3.09-1.31,2.33,0,13.45,2.4,13.67,2.62q.33,0,.66-.29c.4-1.67,2.07-4.15,2.07-5.24,0-.22-.04-.4-.15-.58,0,0,0-.33.33-.33q0,.33.29.33c0-.33.33-.33.65-.33.55.29,1.05.76,1.05,1.27,0,.11-.04.22-.07.33-.69,1.38-.18,2.04-1.64,4.84,0,.33,0,.65.65.65,1.75,0,8.29,2.07,9.96,2.07.33,0,.66.11,1.02.07.98,0,.44-.07,1.27-.07.11,0,.22-.04.33-.15.15.18.25.4.25.62,0,.58-.8.69-1.82.69-2.62,0-9.64-2.29-11.96-2.25-.54.47-.98,1.49-.98,2.55-.33.65-.62.95-.95,1.6,0,1.02-.07,1.09-.98,2.91-.07,0-.65,1.16-.65,1.38,0,.07,0,.15.04.22,0,.04-1.64,2.51-1.64,3.85,0,1.16-1.6,3.64-1.6,4.18,0,.07.04.15.04.18,0,.4-.22,1.38-.95,1.46.25.07.25.33.25.33-.11,0-.15.04-.15.11,0,.11.15.29.15.51-.33.33-.36,1.71-.36,2.87,0,.76-.04,2.07.29,2.07,0-.11,3.02-3.24,3.89-5.45.33-.66.65-.98.98-1.6.11-.84,3.78-5.27,5.02-5.82.04,0,.07-.04.11-.04l-.07.04c.73-.22.98-1.02,1.05-1.09.62-.33,1.31-1.02,2.04-1.05.15.11.36.36.36.36,0,.33-.98.98-1.38,1.24-3.31,2.04-6.98,8.11-6.98,8.62-.36,0-.22.62-.98,1.27,0,.62-1.82,2.84-2.33,4.04-.07.18-1.13.58-1.6.58-2.44,0-2.58-3.42-2.58-4.76,0-1.67.15-3.24.62-4.18.76-2.22,1.35-5.35,2.91-8.33.69-1.71,1.53-4.44,2.58-5.49,0-.11-.04-.18-.04-.29,0-.95.69-1.53.98-2.51-1.89-.87-3.82-1.2-5.96-1.56-1.27-.22-5.05-1.24-7.78-1.24-1.05,0-1.6.15-1.6.51,0,.22.07.47.36.47,0,.36-.73.58-.98.58Z"/>
    <path class="cls-1" d="m246.25,157.82c.11,0,.18.15.18.4,0,.36-1.56,1.6-1.89,1.93.04-.04-2.62,2.04-4.11,2.04-.8,0-.33,1.42-.8,1.89-1.16,2.15-3.05,5.13-5.75,5.13-1.96,0-3.75-1.6-3.75-2.91,0-2.58.91-3.45,2.47-5.02.07-.07.25,0,.25-.07,0-.44-.4-.51-.65-.69-.76-.29-.87-1.38-1.24-1.38.04.25.22.58.55.91,0,0-1.42-.55-1.42-1.82,0-3.24,3.42-4,5.53-4,2.73,0,4.91,2.87,4.91,5.35,0,.69,0,1.02-.07,1.67.4,0,1.82-.84,2.62-1.24.8-.58,1.75-1.75,2.8-2.07.15-.07.25-.11.36-.11Zm-15.34,7.96c-.04.15-.07.29-.07.4,0,.36.29.65.29.95,0-.4-.15-.91-.22-1.35Zm8.33-7.09c0-.07-.22-.22-.22-.29-.25-1.67-.98-2.65-2.8-2.8-.29,0-.36-.25-.55-.25-1.45,0-3.13,1.82-3.13,3.02,0,2,4.15,2.98,5.96,2.98.44,0,.58-1.64.65-2.36,0-.15.07-.22.07-.29Zm-.8,3.78c0-.25-2.15-.44-3.24-.58,0,.25-.22.33-.36.51-1.45,1.46-2.11,2.91-2.11,4.22,0,.66,0,1.05,1.02,1.05,1.64,0,3.2-2.22,4.04-3.64v-.04c.22-.4.36-.91.58-1.31.04-.15.07-.18.07-.22Z"/>
    <path class="cls-1" d="m241.92,176.51c-.11-.15-.18-.25-.18-.33.33-2.73,1.31-5.16,2.87-7.71.29-.47,1.31-1.42,1.31-1.93,0-.07,0-.15-.04-.22-.95-2.8-1.93-5.31-1.93-7.24,0-.18.04-.36.04-.55,0-.15-.07-.25-.07-.4,0-.69.15-1.13.15-1.89,0-.07-.04-.15-.04-.25,0-1.27.98-1.85,1.2-2.55.25-.8,1.53-1.35,2.22-1.35,1.93,0,2.66.95,2.66,2.29,0,1.42-.4,3.71-3.02,3.71-.18,0-.4,0-.69-.07-.04,0-.07.07-.07.18,0,.47.29,1.67.36,2.25,0,.04.76,3.89,1.02,3.89.04-.04,1.05-.8,1.42-1.13,2.33-2.11,3.49-3.38,5.6-4.58.58-.33,2.07-1.31,2.76-1.31.07,0,.15.07.25.25-.07-.04-.15-.07-.22-.07-.04,0-.07.04-.11.04.04.04.07.11.11.11.07,0,.15-.04.22-.07.18,0,.18.11.29.15-.07.07-.07.15-.22.18,0,.58-1.71.95-2.22,1.24-1.93,1.13-2.4,1.45-5.78,4.51-.25.22-1.67,1.56-1.67,1.93,0,1.05,1.2,2.47,1.2,3.16.29,1.24.4,2.4.4,3.71,0,.25-.07.51-.07.73,0,.29.07.62.07.91,0,1.6-.65,2.73-1.16,3.75-.04.04-1.49,2-3.56,2-1.27,0-2.47-1.27-3.24-2.65,0,0,.04-.04.04-.07l.11.11c0-.36.15-.15.15-.29,0-.11-.04-.25-.07-.36l.22.33c0-.22.04-.33-.29-.4Zm5.38-3.45c0-1.53-.33-3.67-.84-5.27-1.02,1.27-3.45,5.27-3.45,8.33,0,.8,1.09,2.25,2.07,2.25.51,0,.95-.29,1.27-.69h.11v-.11c.73-1.02.98-2.87.98-4.4l-.14-.11Zm-1.05-16.44c0,.29.07.44.44.44,1.64,0,2.4-1.35,2.4-2.36,0-.8-.4-1.45-1.13-1.45-1.27,0-1.49,1.85-1.78,2.95l.07.44Z"/>
  </g>
</svg>