<?xml version="1.0" encoding="UTF-8"?>
<svg id="Layer_1" data-name="Layer 1" xmlns="http://www.w3.org/2000/svg" viewBox="0 0 300 300">
  <defs>
    <style>
      .cls-1 {
        fill: #4f6b83;
        stroke-width: 0px;
      }
    </style>
  </defs>
  <g>
    <path class="cls-1" d="m26.23,141.3c.35-.06.67-.18.94-.35.27-.17.48-.41.64-.72.16-.31.24-.72.24-1.23v-19.07c0-.51-.08-.92-.24-1.23-.16-.31-.37-.54-.64-.72-.27-.17-.58-.29-.94-.35-.36-.06-.73-.09-1.12-.09v-.37c.69,0,1.24,0,1.65.02.42.01.76.02,1.03.04.27.01.5.02.7.04s.43.02.7.02c.49,0,.89-.02,1.21-.06.32-.04.76-.06,1.32-.06l7.97,18.93,7.53-18.93c.46,0,.83.02,1.1.06.27.04.69.06,1.25.06.32,0,.59,0,.81-.02.22-.01.47-.02.75-.04.28-.01.63-.02,1.05-.04.42-.01.98-.02,1.69-.02v.37c-.39,0-.77.03-1.12.09-.36.06-.67.18-.94.35-.27.17-.48.41-.64.72-.16.31-.24.72-.24,1.23v19.07c0,.51.08.93.24,1.23.16.31.37.55.64.72.27.17.58.29.94.35.35.06.73.09,1.12.09v.37c-.73,0-1.32,0-1.76-.02-.44-.01-.82-.03-1.14-.06-.32-.02-.62-.04-.9-.05-.28-.01-.62-.02-1.01-.02-.42,0-.76,0-1.03.02s-.56.03-.88.05c-.32.02-.7.04-1.14.06-.44.01-1.03.02-1.76.02v-.37c.39,0,.77-.03,1.12-.09.35-.06.67-.18.94-.35.27-.17.48-.41.64-.72.16-.31.24-.72.24-1.23v-19.84l-9,22.64h-.07l-9.37-21.98v19.18c0,.51.08.93.24,1.23.16.31.37.55.64.72.27.17.58.29.94.35.36.06.73.09,1.12.09v.37c-.49,0-.89,0-1.19-.02-.31-.01-.57-.02-.79-.04-.22-.01-.43-.02-.62-.04-.2-.01-.43-.02-.7-.02s-.5,0-.7.02c-.2.01-.4.02-.62.04-.22.01-.48.02-.77.04-.29.01-.69.02-1.18.02v-.37c.39,0,.77-.03,1.12-.09Z"/>
    <path class="cls-1" d="m78.84,116.73c1.76,0,3.43.3,5,.9,1.57.6,2.95,1.46,4.15,2.57,1.2,1.11,2.15,2.46,2.85,4.04.7,1.58,1.05,3.34,1.05,5.27s-.35,3.76-1.05,5.33-1.64,2.9-2.83,4.01c-1.19,1.1-2.57,1.95-4.15,2.54-1.58.59-3.25.88-5.02.88-1.89,0-3.63-.3-5.22-.9s-2.98-1.46-4.15-2.57c-1.18-1.11-2.09-2.46-2.76-4.04-.66-1.58-.99-3.35-.99-5.31s.33-3.57.99-5.13c.66-1.56,1.57-2.9,2.74-4.02,1.16-1.13,2.55-2,4.15-2.63,1.6-.62,3.35-.94,5.24-.94Zm0,.66c-1.45,0-2.73.34-3.84,1.01-1.12.67-2.05,1.57-2.79,2.7s-1.31,2.42-1.69,3.89-.57,2.98-.57,4.55c0,1.66.19,3.23.57,4.7s.94,2.75,1.69,3.83,1.68,1.95,2.79,2.59,2.39.95,3.84.95c1.37,0,2.6-.31,3.69-.94,1.09-.62,2.01-1.47,2.77-2.55.76-1.08,1.34-2.35,1.75-3.83.4-1.48.61-3.06.61-4.75s-.2-3.23-.61-4.72c-.4-1.48-.99-2.77-1.75-3.87-.76-1.1-1.68-1.97-2.77-2.61-1.09-.64-2.32-.95-3.69-.95Z"/>
    <path class="cls-1" d="m103.71,117.17c.74,0,1.32,0,1.76.02.44.01.81.02,1.12.02s.59,0,.86.02c.27.01.6.02.99.02.64,0,1.38-.03,2.22-.09.85-.06,1.78-.09,2.81-.09.96,0,1.95.07,3,.22s2,.44,2.87.88c.87.44,1.59,1.07,2.15,1.89.56.82.84,1.9.84,3.25,0,.91-.18,1.73-.55,2.46s-.85,1.37-1.45,1.91c-.6.54-1.29.99-2.06,1.34s-1.56.59-2.37.72c.24.32.67.85,1.29,1.58.61.74,1.3,1.56,2.06,2.48.76.92,1.55,1.86,2.37,2.83.82.97,1.56,1.83,2.22,2.59.56.64,1.1,1.16,1.6,1.56.5.4,1.06.61,1.67.61v.37c-.54,0-.97,0-1.3-.02-.33-.01-.61-.02-.83-.04-.22-.01-.43-.02-.62-.04-.2-.01-.44-.02-.74-.02s-.54,0-.75.02c-.21.01-.4.02-.59.04-.18.01-.39.02-.61.04-.22.01-.5.02-.84.02-.76-.96-1.46-1.86-2.09-2.7-.64-.85-1.26-1.67-1.88-2.48s-1.24-1.62-1.87-2.44c-.64-.82-1.32-1.7-2.06-2.63-.37-.47-.69-.79-.96-.97-.27-.18-.69-.28-1.25-.28h-.33v8.75c0,.51.08.93.24,1.23.16.31.37.55.64.72.27.17.58.29.94.35.35.06.73.09,1.12.09v.37c-.74,0-1.32,0-1.76-.02-.44-.01-.82-.03-1.14-.06-.32-.02-.62-.04-.9-.05-.28-.01-.62-.02-1.01-.02-.42,0-.76,0-1.03.02s-.56.03-.88.05c-.32.02-.7.04-1.14.06-.44.01-1.03.02-1.76.02v-.37c.39,0,.77-.03,1.12-.09.35-.06.67-.18.94-.35.27-.17.48-.41.64-.72.16-.31.24-.72.24-1.23v-19.07c0-.51-.08-.92-.24-1.23-.16-.31-.37-.54-.64-.72-.27-.17-.58-.29-.94-.35-.36-.06-.73-.09-1.12-.09v-.37Zm6.69,12.42h1.84c1.98,0,3.47-.54,4.45-1.62.98-1.08,1.47-2.66,1.47-4.74,0-.76-.12-1.47-.37-2.13-.25-.66-.6-1.24-1.07-1.75-.47-.5-1.04-.9-1.73-1.19-.69-.29-1.46-.44-2.32-.44-.2,0-.43,0-.7.02-.27.01-.52.07-.75.17-.23.1-.43.24-.59.42-.16.18-.24.44-.24.75v10.51Z"/>
    <path class="cls-1" d="m141.77,141.3c.35-.06.67-.18.94-.35.27-.17.48-.41.64-.72s.24-.72.24-1.23v-21.16c-1.4-.05-2.4-.09-3.01-.11-.61-.02-.98-.04-1.1-.04-1.45.02-2.49.48-3.14,1.35-.65.88-1.02,2.02-1.12,3.43h-.37l.18-5.37c.56-.02,1.08-.04,1.56-.04h1.34c.98,0,1.84.01,2.57.04.73.02,1.39.04,1.97.06.58.01,1.1.03,1.56.06.47.02.93.04,1.4.04s.93-.01,1.4-.04c.47-.02.99-.04,1.58-.06.59-.01,1.25-.03,2-.06.75-.02,1.64-.04,2.67-.04h1.4c.49,0,1.02.01,1.58.04l.22,5.37h-.37c-.05-.62-.16-1.22-.33-1.8-.17-.58-.43-1.1-.77-1.56-.34-.46-.78-.82-1.3-1.09-.53-.27-1.16-.41-1.89-.41-.12,0-.51.02-1.18.05-.66.04-1.69.09-3.09.17v21.16c0,.52.08.93.24,1.23.16.31.37.55.64.72.27.17.58.29.94.35.35.06.73.09,1.12.09v.37c-.74,0-1.32,0-1.76-.02-.44-.01-.82-.03-1.14-.06-.32-.02-.62-.04-.9-.05-.28-.01-.62-.02-1.01-.02-.42,0-.76,0-1.03.02s-.56.03-.88.05c-.32.02-.7.04-1.14.06-.44.01-1.03.02-1.76.02v-.37c.39,0,.77-.03,1.12-.09Z"/>
    <path class="cls-1" d="m179.68,116.73c1.76,0,3.43.3,5,.9,1.57.6,2.95,1.46,4.15,2.57,1.2,1.11,2.15,2.46,2.85,4.04.7,1.58,1.05,3.34,1.05,5.27s-.35,3.76-1.05,5.33-1.64,2.9-2.83,4.01c-1.19,1.1-2.57,1.95-4.15,2.54-1.58.59-3.25.88-5.02.88-1.89,0-3.63-.3-5.22-.9s-2.98-1.46-4.15-2.57c-1.18-1.11-2.09-2.46-2.76-4.04-.66-1.58-.99-3.35-.99-5.31s.33-3.57.99-5.13c.66-1.56,1.57-2.9,2.74-4.02,1.16-1.13,2.55-2,4.15-2.63,1.6-.62,3.35-.94,5.24-.94Zm0,.66c-1.45,0-2.73.34-3.84,1.01-1.12.67-2.05,1.57-2.79,2.7s-1.31,2.42-1.69,3.89-.57,2.98-.57,4.55c0,1.66.19,3.23.57,4.7s.94,2.75,1.69,3.83,1.68,1.95,2.79,2.59,2.39.95,3.84.95c1.37,0,2.6-.31,3.69-.94,1.09-.62,2.01-1.47,2.77-2.55.76-1.08,1.34-2.35,1.75-3.83.4-1.48.61-3.06.61-4.75s-.2-3.23-.61-4.72c-.4-1.48-.99-2.77-1.75-3.87-.76-1.1-1.68-1.97-2.77-2.61-1.09-.64-2.32-.95-3.69-.95Z"/>
    <path class="cls-1" d="m206.04,141.3c.36-.06.67-.18.94-.35.27-.17.48-.41.64-.72.16-.31.24-.72.24-1.23v-18.89l-.81-1.03c-.34-.44-.72-.81-1.12-1.1-.4-.29-.93-.44-1.56-.44v-.37c.44,0,.82,0,1.14.02.32.01.61.02.86.04.26.01.49.02.7.04s.45.02.72.02c.24,0,.45,0,.62-.02.17-.01.34-.02.51-.04.17-.01.36-.02.55-.04.2-.01.44-.02.74-.02l15.29,18.82v-16.06c0-.51-.08-.92-.24-1.23-.16-.31-.37-.54-.64-.72-.27-.17-.58-.29-.94-.35-.36-.06-.73-.09-1.12-.09v-.37c.49,0,.88,0,1.18.02.29.01.55.02.77.04.22.01.43.02.62.04.2.01.43.02.7.02s.5,0,.7-.02c.2-.01.4-.02.62-.04.22-.01.48-.02.79-.04.31-.01.7-.02,1.19-.02v.37c-.39,0-.77.03-1.12.09-.36.06-.67.18-.94.35-.27.17-.48.41-.64.72-.16.31-.24.72-.24,1.23v22.27h-.66l-16.98-21.28v18.08c0,.51.08.93.24,1.23.16.31.37.55.64.72.27.17.58.29.94.35.35.06.73.09,1.12.09v.37c-.49,0-.89,0-1.19-.02-.31-.01-.57-.02-.79-.04-.22-.01-.43-.02-.62-.04-.2-.01-.43-.02-.7-.02s-.5,0-.7.02c-.2.01-.4.02-.62.04-.22.01-.48.02-.77.04-.29.01-.69.02-1.18.02v-.37c.39,0,.76-.03,1.12-.09Z"/>
    <path class="cls-1" d="m241.93,126.1c.56-.39,1.01-.79,1.34-1.19s.59-.8.77-1.18.31-.73.37-1.07c.06-.33.09-.63.09-.9,0-.05,0-.12-.02-.2-.01-.09-.02-.17-.02-.24v-.22c-.27.2-.5.32-.68.39-.18.06-.36.09-.53.09-.51,0-.96-.17-1.34-.5s-.57-.78-.57-1.34c0-.64.2-1.15.61-1.53.4-.38.86-.57,1.38-.57.32,0,.64.07.96.2.32.13.61.34.86.61s.46.61.62,1.01c.16.4.24.89.24,1.45,0,1.18-.37,2.23-1.1,3.16-.73.93-1.64,1.71-2.72,2.35l-.26-.33Z"/>
    <path class="cls-1" d="m272.78,118.51c-.01.45-.02.9-.02,1.34,0,.47.03.99.09,1.58.06.59.09,1.14.09,1.65h-.44c-.07-.71-.27-1.4-.59-2.08s-.73-1.3-1.23-1.84c-.5-.55-1.09-.99-1.76-1.31s-1.41-.49-2.22-.49c-.64,0-1.23.12-1.78.37-.55.24-1.02.57-1.42.97-.39.4-.7.88-.92,1.45s-.33,1.15-.33,1.76c0,.9.23,1.65.7,2.25s1.05,1.1,1.76,1.52c.71.42,1.48.79,2.31,1.12s1.62.68,2.35,1.04c.76.39,1.48.81,2.15,1.25.67.44,1.26.94,1.75,1.51.49.56.88,1.22,1.18,1.97.29.75.44,1.64.44,2.66s-.21,1.97-.62,2.83c-.42.86-.99,1.59-1.73,2.21-.74.61-1.6,1.09-2.61,1.43-1,.34-2.11.51-3.31.51s-2.32-.2-3.29-.61-1.93-.92-2.88-1.56l-.84,1.43h-.37c0-.76.01-1.36.04-1.8s.04-.91.04-1.4c0-.51-.01-1.07-.04-1.67-.02-.6-.04-1.29-.04-2.08h.44c.05.93.24,1.82.57,2.66.33.85.78,1.59,1.36,2.22.58.64,1.27,1.15,2.08,1.54.81.39,1.73.59,2.76.59.76,0,1.48-.12,2.15-.37.67-.24,1.26-.59,1.76-1.05.5-.45.89-.99,1.18-1.6.28-.61.42-1.29.42-2.02s-.18-1.43-.55-2.02c-.37-.59-.84-1.11-1.41-1.56-.58-.45-1.22-.86-1.93-1.21-.71-.35-1.4-.69-2.06-1.01-.78-.37-1.56-.77-2.32-1.21-.76-.44-1.44-.96-2.04-1.54-.6-.59-1.08-1.27-1.45-2.04-.37-.77-.55-1.68-.55-2.74,0-.88.19-1.71.57-2.5.38-.78.89-1.47,1.52-2.06.64-.59,1.37-1.05,2.21-1.4.83-.34,1.7-.51,2.61-.51s1.83.17,2.68.5,1.67.8,2.43,1.42l.77-1.4h.37c0,.42,0,.85-.02,1.3Z"/>
  </g>
  <g>
    <path class="cls-1" d="m149.65,161.65c-1.05,1.26-.93,1.18-3.04,4.58-.53.85-1.05,2.23-1.99,2.84.04.04.04.08.04.12s-.24.41-.37.57c-.97,1.95-2.47,3.81-5.23,3.81-1.54,0-2.23-2.39-2.23-4.06,0-2.6.85-4.91,1.66-7.71.2-.65.61-1.74.61-2.27,0-.08-.08-.12-.08-.2s.04-.2.04-.32c.77-2.47,2.07-5.03,2.51-7.54,0,0-.04-.08-.08-.12q-.04.08-.08.08c-1.22,0-2.88,3.37-4.06,4.79-1.99,2.43-2.84,5.19-4.02,8.07-.32.81-.81,3.49-2.19,4.18-.12,0-.12-.12-.2-.2,0,.12-.12.24-.16.32,0-.08-.04-.08-.12-.08.04.04,0,.08.2.08-.04.32-.37.32-.49.32-1.46,0-1.66-2.07-1.66-3.33,0-1.54.28-3.04.53-4.58.12-.77.53-1.66.53-2.27,0-.04-.04-.12-.08-.12s-.12,0-.16.04c-3,2.64-4.42,5.8-5.72,9.17-.12.32-.45.53-.45.77,0,.12.16.24.16.37,0,.24-.57.57-.89.57-1.58,0-2.23-2.35-2.23-3.93,0-.57.24-2.64.37-2.64,0,.08.04.16.04.2,0-.04.04-.08.04-.12s-.04-.04-.08-.08c.16-1.01.41-1.87.61-2.72.49-1.22.41-2.56,1.26-3.98,0-.12-.2-.04-.2-.2.73-.04.28-1.14,1.01-1.14.53,0,1.78.97,1.78,1.95-.57,1.95-.45,4.06-1.18,5.64q-.04.08-.04.12c0,.12.08.16.12.32.2-.28.49-.61.73-.97v-.04c1.26-1.87,3.04-4.75,5.68-4.75.65,0,2.07.24,2.07,1.5,0,.73-.61,2.07-.61,2.92,0,.12.08.24.08.36,0,.24-.2,1.14-.28,1.66,1.62-2.88,3.08-7.02,4.87-8.76,1.62-1.58,3.2-4.79,5.03-4.79,2.19,0,2.51,1.01,2.51,2.51,0,4.34-1.83,6.12-2.31,8.6-.65,2.43-1.7,4.91-2.19,7.54-.04.32,0,.69-.32.93,0,.45.16.73.16,1.14,0,.24-.12.2-.12.77,0,.2.04.45.16.45.85,0,1.54-.73,2.27-1.46,0,0,1.38-1.42,1.38-1.46s0-.08-.04-.16c.24-.16.65-.57.65-.81t-.04-.08c.69-.77,1.18-1.74,1.79-2.64,1.66-2.39,4.38-7.06,6.17-7.46.12.2.2.37.2.49,0,.16-.28.77-.49.97l-1.83,2.23Z"/>
    <path class="cls-1" d="m154.84,154.51c1.09,0,2.68-.08,3.12,1.58.57,2.11-3.04,7.06-5.72,7.02-.89,0-1.42-.28-1.46-.28-.28,0-.61,2.03-.61,2.96,0,1.42.04,3.57,1.99,3.57,5.23,0,11.56-11.48,12.45-11.48.2,0,.2.36.2.73-.08,1.42-1.34,2.47-2.07,3.61-.97,1.05-2.88,3.57-3.89,4.58-1.54,1.54-4.42,4.22-6.9,4.22s-3.93-1.83-4.42-3.69h.12c-.04-.24-.04-.85-.24-.85l.12.73c-.2-.85-.28-1.7-.28-2.56,0-4.06,3.57-10.14,7.58-10.14Zm-3.73,7.02s.28.53.49.53c1.62,0,5.07-4.18,5.07-5.35,0-.28-.24-.57-.61-.53-2.68.45-3.97,4.02-4.79,5.15-.12.16-.16.2-.16.2Z"/>
    <path class="cls-1" d="m190.45,161.65c-1.05,1.26-.93,1.18-3.04,4.58-.53.85-1.05,2.23-1.99,2.84.04.04.04.08.04.12s-.24.41-.37.57c-.97,1.95-2.47,3.81-5.23,3.81-1.54,0-2.23-2.39-2.23-4.06,0-2.6.85-4.91,1.66-7.71.2-.65.61-1.74.61-2.27,0-.08-.08-.12-.08-.2s.04-.2.04-.32c.77-2.47,2.07-5.03,2.51-7.54,0,0-.04-.08-.08-.12q-.04.08-.08.08c-1.22,0-2.88,3.37-4.06,4.79-1.99,2.43-2.84,5.19-4.02,8.07-.32.81-.81,3.49-2.19,4.18-.12,0-.12-.12-.2-.2,0,.12-.12.24-.16.32,0-.08-.04-.08-.12-.08.04.04,0,.08.2.08-.04.32-.37.32-.49.32-1.46,0-1.66-2.07-1.66-3.33,0-1.54.28-3.04.53-4.58.12-.77.53-1.66.53-2.27,0-.04-.04-.12-.08-.12s-.12,0-.16.04c-3,2.64-4.42,5.8-5.72,9.17-.12.32-.45.53-.45.77,0,.12.16.24.16.37,0,.24-.57.57-.89.57-1.58,0-2.23-2.35-2.23-3.93,0-.57.24-2.64.37-2.64,0,.08.04.16.04.2,0-.04.04-.08.04-.12s-.04-.04-.08-.08c.16-1.01.41-1.87.61-2.72.49-1.22.41-2.56,1.26-3.98,0-.12-.2-.04-.2-.2.73-.04.28-1.14,1.01-1.14.53,0,1.78.97,1.78,1.95-.57,1.95-.45,4.06-1.18,5.64q-.04.08-.04.12c0,.12.08.16.12.32.2-.28.49-.61.73-.97v-.04c1.26-1.87,3.04-4.75,5.68-4.75.65,0,2.07.24,2.07,1.5,0,.73-.61,2.07-.61,2.92,0,.12.08.24.08.36,0,.24-.2,1.14-.28,1.66,1.62-2.88,3.08-7.02,4.87-8.76,1.62-1.58,3.2-4.79,5.03-4.79,2.19,0,2.51,1.01,2.51,2.51,0,4.34-1.83,6.12-2.31,8.6-.65,2.43-1.7,4.91-2.19,7.54-.04.32,0,.69-.32.93,0,.45.16.73.16,1.14,0,.24-.12.2-.12.77,0,.2.04.45.16.45.85,0,1.54-.73,2.27-1.46,0,0,1.38-1.42,1.38-1.46s0-.08-.04-.16c.24-.16.65-.57.65-.81t-.04-.08c.69-.77,1.18-1.74,1.79-2.64,1.66-2.39,4.38-7.06,6.17-7.46.12.2.2.37.2.49,0,.16-.28.77-.49.97l-1.83,2.23Z"/>
    <path class="cls-1" d="m195.64,154.51c1.09,0,2.68-.08,3.12,1.58.57,2.11-3.04,7.06-5.72,7.02-.89,0-1.42-.28-1.46-.28-.28,0-.61,2.03-.61,2.96,0,1.42.04,3.57,1.99,3.57,5.23,0,11.56-11.48,12.45-11.48.2,0,.2.36.2.73-.08,1.42-1.34,2.47-2.07,3.61-.97,1.05-2.88,3.57-3.89,4.58-1.54,1.54-4.42,4.22-6.9,4.22s-3.93-1.83-4.42-3.69h.12c-.04-.24-.04-.85-.24-.85l.12.73c-.2-.85-.28-1.7-.28-2.56,0-4.06,3.57-10.14,7.58-10.14Zm-3.73,7.02s.28.53.49.53c1.62,0,5.07-4.18,5.07-5.35,0-.28-.24-.57-.61-.53-2.68.45-3.97,4.02-4.79,5.15-.12.16-.16.2-.16.2Z"/>
    <path class="cls-1" d="m227.88,158.69v.04l-.08.12h.12c0,.41-.81,1.26-1.34,1.78,0-.04-.04-.04-.08-.08-1.42,1.42-2.51,3.65-2.84,3.89,0,.12-.24.37-.45.61.12-.12.24-.24.41-.24-.93,1.42-1.78,2.84-2.51,4.34.08-.24.16-.45.2-.69l-.04-.04c-.45,1.14-.93,2.03-1.26,2.68t-.08-.04l-.12.08s.04.04.08.04c-.69,1.1-2.6,4.75-4.79,4.75-.61,0-1.74-.45-1.99-1.18,0-.04,0-.08-.04-.08-.69-.45-.81-1.66-.81-2.23.28-2.39.73-4.5,1.5-6.77,1.14-3.45,2.88-6.25,3.57-10.22-.89.81-1.87,1.46-2.8,2.27-.65.57-1.14,1.34-1.74,1.95l-.12-.12c-.37.37-1.22,1.22-1.22,1.42,0,.77-2.68,3.69-3.61,5.15-.49.77-1.66,2.96-2.88,2.96-1.01,0-2.23-1.22-2.23-2.64,0-1.95.45-4.99,1.42-7.26.28-.65.81-1.58.81-1.54,0-.04-.04-.08-.04-.12,0-.08.37-.32.49-.32.16,0,.08.16.41.16,0-.08-.04-.16-.04-.24l.08-.08c.08.08.2.12.2.16.04,0,.04-.04.08-.04.16,0,1.18.81,1.26,1.46-.08,0-.41,1.58-.77,3.08-.28,1.14-1.13,3.08-1.13,4.79,1.46-1.7.2-.36,2.35-2.76.04.08.08.08.08.08-.04,0,.33-.32.33-.28,0-.04-.04-.08-.08-.12.04-.2.24-.32.36-.45v.12s.33-.2.33-.37c0-.04-.04-.08-.08-.16.32-.32.49-.08.49-.45.08,0,.2,0,.24.08v-.12c.12-.28.37-.53.77-.93,0,0,.16.08.24.08.16-.2,1.87-2.15,2.27-3h.12c.08-.16.24-.32.24-.49,0-.04-.08-.08-.16-.08.04-.08.08-.16.12-.16,0,0,.04.04.08.04.08-.2.73-.65,1.05-1.01h-.04s-.08-.04-.12-.08c.57-.57,1.3-1.01,1.95-1.58v.12s.08-.08.08-.08c-.04-.04-.08-.04-.08-.08,0-.36,1.87-1.46,1.95-1.46.61,0,2.11.49,2.11,2.96,0,3.73-1.79,6.81-3,10.14-.45.85-.69,2.07-1.01,2.88-.32,1.3-.93,2.72-.93,4.1,0,.41.08.57.2.57,1.09,0,2.72-3.41,3.49-3.41.04,0,.04.04.08.04,0-.04.16-.32,1.14-1.58.08-.04.69-.85.73-.97.04,0,.08.04.12.04.08-.2.97-2.43,1.1-2.43.04,0,.04.04.08.04.37-.41,1.87-1.99,1.87-2.47,0-.04-.04-.08-.12-.12.36-.16.41-.65.57-.97,1.58-1.58,2.39-3.85,3.25-3.85.16,0,.24.04.41.16,0,.16-.16.12-.16.24Z"/>
    <path class="cls-1" d="m214.01,146.68c-1.34,0-.89-1.5-.89-1.62.81-1.38,2.39-1.46,3.45-1.46,2.6,0,15.01,2.68,15.25,2.92q.37,0,.73-.32c.45-1.87,2.31-4.62,2.31-5.84,0-.24-.04-.45-.16-.65,0,0,0-.37.37-.37q0,.37.32.37c0-.37.37-.37.73-.37.61.32,1.18.85,1.18,1.42,0,.12-.04.24-.08.36-.77,1.54-.2,2.27-1.83,5.39,0,.37,0,.73.73.73,1.95,0,9.25,2.31,11.11,2.31.37,0,.73.12,1.14.08,1.09,0,.49-.08,1.42-.08.12,0,.24-.04.36-.16.16.2.28.45.28.69,0,.65-.89.77-2.03.77-2.92,0-10.75-2.56-13.34-2.51-.61.53-1.1,1.66-1.1,2.84-.36.73-.69,1.05-1.05,1.78,0,1.14-.08,1.22-1.1,3.24-.08,0-.73,1.3-.73,1.54,0,.08,0,.16.04.24,0,.04-1.83,2.8-1.83,4.3,0,1.3-1.78,4.06-1.78,4.66,0,.08.04.16.04.2,0,.45-.24,1.54-1.05,1.62.28.08.28.36.28.36-.12,0-.16.04-.16.12,0,.12.16.32.16.57-.36.37-.41,1.91-.41,3.2,0,.85-.04,2.31.32,2.31,0-.12,3.37-3.61,4.34-6.08.37-.73.73-1.1,1.1-1.78.12-.93,4.22-5.88,5.6-6.49.04,0,.08-.04.12-.04l-.08.04c.81-.24,1.1-1.14,1.18-1.22.69-.37,1.46-1.14,2.27-1.18.16.12.41.41.41.41,0,.36-1.09,1.09-1.54,1.38-3.69,2.27-7.79,9.04-7.79,9.61-.41,0-.24.69-1.1,1.42,0,.69-2.03,3.16-2.6,4.5-.08.2-1.26.65-1.78.65-2.72,0-2.88-3.81-2.88-5.31,0-1.87.16-3.61.69-4.66.85-2.47,1.5-5.96,3.25-9.29.77-1.91,1.7-4.95,2.88-6.12,0-.12-.04-.2-.04-.32,0-1.05.77-1.7,1.09-2.8-2.11-.97-4.26-1.34-6.65-1.74-1.42-.24-5.64-1.38-8.68-1.38-1.18,0-1.79.16-1.79.57,0,.24.08.53.41.53,0,.41-.81.65-1.09.65Z"/>
    <path class="cls-1" d="m257.36,158.73c.12,0,.2.16.2.45,0,.41-1.74,1.78-2.11,2.15.04-.04-2.92,2.27-4.58,2.27-.89,0-.37,1.58-.89,2.11-1.3,2.39-3.41,5.72-6.41,5.72-2.19,0-4.18-1.78-4.18-3.24,0-2.88,1.01-3.85,2.76-5.6.08-.08.28,0,.28-.08,0-.49-.45-.57-.73-.77-.85-.32-.97-1.54-1.38-1.54.04.28.24.65.61,1.01,0,0-1.58-.61-1.58-2.03,0-3.61,3.81-4.46,6.17-4.46,3.04,0,5.47,3.2,5.47,5.96,0,.77,0,1.14-.08,1.87.45,0,2.03-.93,2.92-1.38.89-.65,1.95-1.95,3.12-2.31.16-.08.28-.12.41-.12Zm-17.12,8.88c-.04.16-.08.32-.08.45,0,.41.33.73.33,1.05,0-.45-.16-1.01-.24-1.5Zm9.29-7.91c0-.08-.24-.24-.24-.32-.28-1.87-1.09-2.96-3.12-3.12-.32,0-.41-.28-.61-.28-1.62,0-3.49,2.03-3.49,3.37,0,2.23,4.62,3.33,6.65,3.33.49,0,.65-1.83.73-2.64,0-.16.08-.24.08-.32Zm-.89,4.22c0-.28-2.39-.49-3.61-.65,0,.28-.24.37-.41.57-1.62,1.62-2.35,3.24-2.35,4.7,0,.73,0,1.18,1.14,1.18,1.83,0,3.57-2.47,4.5-4.06v-.04c.24-.45.41-1.01.65-1.46.04-.16.08-.2.08-.24Z"/>
    <path class="cls-1" d="m252.54,179.57c-.12-.16-.2-.28-.2-.37.36-3.04,1.46-5.76,3.2-8.6.32-.53,1.46-1.58,1.46-2.15,0-.08,0-.16-.04-.24-1.05-3.12-2.15-5.92-2.15-8.07,0-.2.04-.41.04-.61,0-.16-.08-.28-.08-.45,0-.77.16-1.26.16-2.11,0-.08-.04-.16-.04-.28,0-1.42,1.09-2.07,1.34-2.84.28-.89,1.7-1.5,2.47-1.5,2.15,0,2.96,1.05,2.96,2.56,0,1.58-.45,4.14-3.37,4.14-.2,0-.45,0-.77-.08-.04,0-.08.08-.08.2,0,.53.32,1.87.41,2.51,0,.04.85,4.34,1.14,4.34.04-.04,1.18-.89,1.58-1.26,2.6-2.35,3.89-3.77,6.25-5.11.65-.37,2.31-1.46,3.08-1.46.08,0,.16.08.28.28-.08-.04-.16-.08-.24-.08-.04,0-.08.04-.12.04.04.04.08.12.12.12.08,0,.16-.04.24-.08.2,0,.2.12.33.16-.08.08-.08.16-.24.2,0,.65-1.91,1.05-2.47,1.38-2.15,1.26-2.68,1.62-6.45,5.03-.28.24-1.87,1.74-1.87,2.15,0,1.18,1.34,2.76,1.34,3.53.32,1.38.45,2.68.45,4.14,0,.28-.08.57-.08.81,0,.33.08.69.08,1.01,0,1.78-.73,3.04-1.3,4.18-.04.04-1.66,2.23-3.97,2.23-1.42,0-2.76-1.42-3.61-2.96,0,0,.04-.04.04-.08l.12.12c0-.41.16-.16.16-.32,0-.12-.04-.28-.08-.41l.24.37c0-.24.04-.37-.32-.45Zm6-3.85c0-1.7-.37-4.1-.93-5.88-1.14,1.42-3.85,5.88-3.85,9.29,0,.89,1.22,2.51,2.31,2.51.57,0,1.05-.32,1.42-.77h.12v-.12c.81-1.14,1.09-3.2,1.09-4.91l-.16-.12Zm-1.18-18.33c0,.32.08.49.49.49,1.83,0,2.68-1.5,2.68-2.64,0-.89-.45-1.62-1.26-1.62-1.42,0-1.66,2.07-1.99,3.29l.08.49Z"/>
  </g>
</svg>