<?xml version="1.0" encoding="UTF-8"?>
<svg id="Layer_1" data-name="Layer 1" xmlns="http://www.w3.org/2000/svg" viewBox="0 0 300 300">
  <defs>
    <style>
      .cls-1 {
        fill: #221f1f;
        stroke-width: 0px;
      }
    </style>
  </defs>
  <g>
    <path class="cls-1" d="m165.52,144.58c1.63,0,2.95-1.32,2.95-2.95s-1.32-2.95-2.95-2.95-2.95,1.32-2.95,2.95,1.32,2.95,2.95,2.95Z"/>
    <path class="cls-1" d="m134.41,143.9c1.63,0,2.95-1.32,2.95-2.95s-1.32-2.95-2.95-2.95-2.95,1.32-2.95,2.95,1.32,2.95,2.95,2.95Z"/>
    <path class="cls-1" d="m148.39,172.06h3.15c2.96,0,5.36-2.4,5.36-5.36l1.46-3.07c0-2.96-2.4-5.36-5.36-5.36h-6.08c-2.96,0-5.36,2.4-5.36,5.36l1.46,3.07c0,2.96,2.4,5.36,5.36,5.36Z"/>
    <path class="cls-1" d="m111.86,87.89c.68-.81,1.86-.99,2.76-.89,1.37.15,2.75.9,3.81,1.54,3,1.81,5.78,4.18,8.46,6.49l.48.41c2.26,1.94,4.6,3.93,5.89,5.61l3.29-2.54c-1.56-2.02-4.06-4.16-6.49-6.23l-.48-.41c-2.82-2.41-5.73-4.91-9.02-6.89-1.42-.86-3.33-1.87-5.5-2.11-2.53-.3-4.9.59-6.37,2.33-1.07,1.26-1.54,2.77-1.89,4.09-1.8,6.77-2.12,14-.94,20.92l3.72-3.85c-.52-5.36-.15-10.83,1.23-16.01.24-.88.53-1.86,1.03-2.46Z"/>
    <path class="cls-1" d="m92.65,160.99l4.33-.43-4.43-10.43,5.12-11.72-1.7-12.57,8.01-7.39c-.27-1.81-.43-3.63-.49-5.46l-11.9,11.42,1.82,13.41-5.37,12.29,4.63,10.89Z"/>
    <polygon class="cls-1" points="95.64 172.41 96.69 164.77 92.44 165.19 91.26 173.77 102.64 186.3 95.5 197.29 103.64 207.25 106.86 204.62 100.63 197.01 107.87 185.88 95.64 172.41"/>
    <polygon class="cls-1" points="149.97 89.61 149.94 89.6 149.94 89.62 142.41 93.24 141.11 91.67 137.91 94.32 141.26 98.35 149.97 94.18 158.68 98.35 162.02 94.32 158.83 91.67 157.52 93.24 149.99 89.62 149.99 89.6 149.97 89.61"/>
    <path class="cls-1" d="m191.23,85.19c-1.48-1.73-3.84-2.62-6.37-2.33-2.17.24-4.08,1.25-5.5,2.11-3.29,1.98-6.21,4.48-9.02,6.89l-.48.41c-2.42,2.07-4.93,4.21-6.49,6.23l3.29,2.54c1.29-1.68,3.63-3.68,5.9-5.61l.48-.41c2.69-2.3,5.46-4.68,8.46-6.49,1.06-.63,2.44-1.39,3.81-1.54.9-.1,2.08.09,2.76.89.51.6.8,1.58,1.03,2.46,1.38,5.18,1.76,10.65,1.23,16.01l3.72,3.85c1.18-6.92.86-14.15-.94-20.92-.35-1.32-.82-2.83-1.89-4.09Z"/>
    <path class="cls-1" d="m196.45,112.98c-.06,1.83-.22,3.65-.49,5.46l8.01,7.39-1.7,12.57,5.12,11.72-4.43,10.43,4.33.43,4.63-10.89-5.37-12.29,1.82-13.41-11.9-11.42Z"/>
    <polygon class="cls-1" points="199.3 197.01 193.07 204.62 196.29 207.25 204.44 197.29 197.3 186.3 208.67 173.77 207.49 165.19 203.24 164.77 204.29 172.41 192.07 185.88 199.3 197.01"/>
    <polygon class="cls-1" points="149.97 211.62 149.99 211.63 149.99 211.6 157.52 207.98 158.83 209.56 162.02 206.9 158.68 202.87 149.97 207.04 141.26 202.87 137.91 206.9 141.11 209.56 142.41 207.98 149.94 211.6 149.94 211.63 149.97 211.62"/>
    <path class="cls-1" d="m147.89,240.24v-4.21c-46.41-1.1-83.9-38.59-85-85h-4.21c1.1,48.71,40.5,88.11,89.21,89.21Z"/>
    <path class="cls-1" d="m58.68,146.88h4.21c1.1-46.41,38.59-83.9,85-85v-4.21c-48.71,1.1-88.11,40.5-89.21,89.21Z"/>
    <path class="cls-1" d="m152.04,57.67v4.21c46.41,1.1,83.9,38.59,85,85h4.21c-1.1-48.71-40.5-88.11-89.21-89.21Z"/>
    <path class="cls-1" d="m241.25,151.04h-4.21c-1.1,46.41-38.59,83.9-85,85v4.21c48.71-1.1,88.11-40.5,89.21-89.21Z"/>
    <path class="cls-1" d="m50.98,109.94c.99-.4,1.7-1.1,2.12-2.09.42-.99.43-1.97.02-2.97s-1.1-1.7-2.07-2.12c-.99-.42-1.99-.43-2.98-.02-.99.41-1.7,1.1-2.11,2.07-.42.98-.42,1.97-.03,2.97.4,1,1.09,1.71,2.09,2.14.98.42,1.97.43,2.97.03Z"/>
    <path class="cls-1" d="m59.36,79.57c.45-.02,1.01.28,1.69.92l7.08,6.63c.64.59,1.06,1.06,1.29,1.4.22.34.3.77.23,1.29-.07.52-.3.99-.7,1.41l1.1,1.03,4.54-4.85-1.1-1.03c-.42.45-.88.74-1.38.86-.5.12-.94.09-1.31-.1-.38-.19-.87-.58-1.5-1.16l-6.96-6.52,15.18,4.82.72-.78-6-14.97,7.92,7.41c.6.56.93,1.06.99,1.5.06.44-.22.99-.85,1.66l-.25.27,1.1,1.03,6.86-7.33-1.1-1.03-.29.31c-.62.66-1.15.98-1.58.97-.44-.02-.96-.31-1.58-.89l-7.97-7.45c-.6-.56-.93-1.06-.99-1.5-.06-.43.23-.99.86-1.66l.25-.27-1.1-1.03-5.07,5.41,4.93,12.47-12.74-4.13-5.05,5.39,1.1,1.03c.67-.72,1.23-1.08,1.68-1.11Z"/>
    <path class="cls-1" d="m91.33,65.23c1.38.99,3.02,1.47,4.92,1.43,1.9-.03,3.79-.59,5.67-1.67,2.74-1.58,4.45-3.63,5.12-6.16.67-2.53.36-4.91-.92-7.16-1.35-2.36-3.3-3.89-5.83-4.6-2.53-.71-5.21-.25-8.02,1.37-1.57.9-2.85,2.07-3.84,3.51-1,1.44-1.5,3.08-1.52,4.91-.02,1.83.39,3.46,1.21,4.9.75,1.31,1.82,2.47,3.21,3.45Zm1.87-15.26c1.42-.81,2.77-.84,4.07-.09s2.6,2.27,3.91,4.55c1.43,2.49,2.09,4.44,1.97,5.83-.12,1.39-.86,2.48-2.22,3.26-1.31.75-2.6.77-3.89.06s-2.64-2.3-4.05-4.76c-1.31-2.28-1.93-4.13-1.87-5.56.06-1.42.76-2.52,2.1-3.29Z"/>
    <path class="cls-1" d="m112.08,40.94c.87-.22,1.49-.21,1.85.03.36.25.65.78.86,1.6l2.74,10.56c.21.8.22,1.4.04,1.8-.18.4-.72.71-1.62.95l-.36.09.38,1.46,9.63-2.49-.38-1.46-.32.08c-.87.23-1.49.21-1.85-.03-.36-.25-.65-.78-.86-1.6l-1.09-4.23c.99-.25,1.64-.36,1.96-.33.32.03.67.18,1.04.47s1.07.96,2.09,2.03c2.02,2.11,3.36,3.4,4.03,3.88l5.58-1.45-.38-1.46c-.54.14-1.07.1-1.61-.12-.54-.22-1.54-1.02-3.02-2.39-1.9-1.77-3.23-2.78-3.97-3.02,2.2-1.4,3.03-3.17,2.48-5.29-.21-.8-.6-1.49-1.19-2.08-.59-.59-1.29-.99-2.1-1.21-.81-.21-1.6-.28-2.36-.2-.76.08-1.94.33-3.52.74l-1.6.43-7.16,1.87.38,1.46.36-.09Zm7.57-1.79c1.45-.37,2.53-.4,3.25-.07s1.24,1.12,1.56,2.38c.23.88.26,1.61.09,2.2-.17.59-.48,1.05-.95,1.38s-1.44.68-2.93,1.05l-1.75-6.74c.3-.09.54-.15.72-.2Z"/>
    <path class="cls-1" d="m140.37,38.8c.05-.82.22-1.53.5-2.12s.64-1,1.08-1.21c.43-.21,1.11-.32,2.04-.33l1.55-.03.22,13.03c.01.83-.12,1.41-.39,1.75s-.87.52-1.79.54h-.44s.03,1.52.03,1.52l10.19-.17-.03-1.51h-.48c-.92.02-1.52-.13-1.81-.46-.29-.33-.44-.91-.46-1.75l-.22-13.03,1.59-.03c1.15-.02,1.99.21,2.53.7s.96,1.43,1.27,2.84l1.54-.03-.09-5.25-18.46.31.09,5.25,1.54-.03Z"/>
    <path class="cls-1" d="m167.28,52.22c1.41,1.28,3.16,2.17,5.27,2.67,3.08.73,5.73.41,7.95-.97s3.63-3.33,4.23-5.84c.63-2.65.27-5.1-1.09-7.34-1.36-2.25-3.62-3.75-6.78-4.51-1.75-.42-3.49-.44-5.21-.07-1.72.37-3.21,1.21-4.47,2.53-1.27,1.32-2.09,2.79-2.48,4.4-.35,1.47-.36,3.04-.03,4.71.33,1.67,1.2,3.14,2.6,4.42Zm3-7.96c.61-2.56,1.43-4.34,2.45-5.33,1.02-1,2.28-1.32,3.78-.96,1.59.38,2.59,1.29,3.02,2.72.43,1.43.33,3.43-.28,5.99-.67,2.8-1.52,4.66-2.57,5.59-1.04.93-2.33,1.21-3.85.85-1.46-.35-2.42-1.22-2.87-2.62-.45-1.4-.34-3.48.32-6.24Z"/>
    <path class="cls-1" d="m194.87,61.08c-.67-.37-1.13-.85-1.38-1.43s-.04-1.47.62-2.66l4.11-7.41,3.92,17.6,1.52.84,6.86-12.39c.36-.66.71-1.12,1.02-1.4.32-.27.72-.43,1.19-.45s.92.07,1.32.3l.73-1.32-5.79-3.21-.73,1.32c1.48.82,1.74,2.11.76,3.87l-3.28,5.91-3.37-14.78-5.45-3.02-.73,1.32c1.54.85,1.85,2.1.94,3.74l-4.56,8.23c-.39.71-.73,1.2-1.01,1.47-.29.27-.69.43-1.21.47-.52.04-1.04-.09-1.55-.37l-.73,1.32,6.06,3.36.73-1.32Z"/>
    <path class="cls-1" d="m224.67,65.69c.83-.96,1.25-1.91,1.27-2.83.02-.92-.33-1.69-1.04-2.29-.6-.51-1.23-.73-1.89-.66-.66.07-1.23.38-1.68.91-.46.54-.65,1.1-.58,1.69.07.59.3,1.05.69,1.38.11.09.28.2.51.33.22.12.36.2.43.26.28.24.27.52-.02.86-.51.59-1.23.85-2.15.77-.93-.08-1.7-.38-2.31-.91l-1.05,1.23c1.18.95,2.5,1.4,3.96,1.34,1.46-.06,2.76-.75,3.89-2.08Z"/>
    <path class="cls-1" d="m225.81,77.92l-4.86,4.03,1.04,1.26c.52-.3,1-.5,1.45-.6-.16.84-.11,1.74.17,2.7.27.96.72,1.8,1.32,2.53,1.07,1.28,2.4,2.04,4,2.28,1.6.24,3.03-.17,4.29-1.21.68-.56,1.19-1.23,1.53-2,.34-.77.5-1.57.47-2.38-.03-.81-.22-1.94-.59-3.38-.42-1.6-.68-2.66-.77-3.18-.1-.52-.08-1.01.05-1.47.13-.46.37-.84.73-1.13.46-.38.98-.54,1.56-.47.58.07,1.09.38,1.55.93.61.73.86,1.64.74,2.73-.11,1.08-.55,2.12-1.3,3.09l.97,1.17,4.19-3.47-1-1.2c-.51.27-.93.42-1.25.45.11-1.52-.34-2.88-1.34-4.09-.96-1.15-2.19-1.84-3.71-2.06-1.52-.22-2.89.18-4.11,1.19-.76.63-1.29,1.36-1.6,2.19-.3.83-.41,1.68-.31,2.55.1.87.41,2.45.95,4.73.28,1.19.34,2.03.18,2.54-.16.51-.41.9-.75,1.19-.48.4-1.05.57-1.7.51-.65-.06-1.23-.39-1.72-.99-.67-.81-.99-1.82-.94-3.04.04-1.21.64-2.59,1.81-4.15l-1.04-1.26Z"/>
    <path class="cls-1" d="m254.05,104.99c-.41-.98-1.12-1.67-2.11-2.08s-1.99-.41-2.99.01c-.99.42-1.68,1.12-2.08,2.11-.4.99-.39,1.99.03,2.98.42.99,1.12,1.68,2.12,2.08s1.98.4,2.96-.02c.99-.42,1.69-1.13,2.09-2.13.4-1,.39-1.98-.02-2.96Z"/>
    <path class="cls-1" d="m55.57,189.76c.42-.99.43-1.98.04-2.96-.4-.98-1.09-1.69-2.08-2.12-.99-.43-1.98-.44-2.98-.04-.99.4-1.7,1.09-2.12,2.07-.42.99-.43,1.98-.03,2.98.4.99,1.09,1.7,2.08,2.12.99.42,1.98.43,2.96.04,1-.4,1.71-1.1,2.13-2.09Z"/>
    <path class="cls-1" d="m70.3,233.29c.06-.43.41-.93,1.04-1.48l8.2-7.2c.62-.54,1.15-.82,1.59-.84s.96.32,1.57,1.02l.24.28,1.14-1-4.89-5.57-12.9,3.68,5.36-12.27-4.87-5.55-1.14,1c.65.74.96,1.33.94,1.78s-.38.98-1.08,1.59l-7.29,6.4c-.65.57-1.16.96-1.52,1.14s-.79.22-1.3.1c-.51-.12-.96-.4-1.34-.83l-1.13,1,4.38,4.99,1.13-1c-.41-.46-.65-.95-.72-1.46-.07-.51,0-.94.23-1.3.23-.36.66-.81,1.3-1.38l7.17-6.29-6.29,14.64.7.8,15.49-4.5-8.15,7.15c-.62.54-1.15.82-1.59.84-.44.02-.96-.32-1.56-1.01l-.24-.28-1.14,1,6.62,7.55,1.13-1-.28-.32c-.6-.68-.87-1.24-.81-1.67Z"/>
    <path class="cls-1" d="m88.06,226.78l-.82,1.24.28.19c.75.5,1.15.96,1.21,1.4.05.43-.15,1-.62,1.7l-6.05,9.11c-.46.69-.89,1.1-1.31,1.23-.42.13-1.01-.06-1.77-.56l-.28-.19-.83,1.26,14.06,9.33,3.45-4.98-1.27-.84c-.64.6-1.35,1.09-2.14,1.47-.79.38-1.5.54-2.14.47-.64-.06-1.46-.43-2.46-1.1-.74-.49-1.24-.93-1.51-1.32s-.37-.72-.3-1c.06-.28.34-.78.82-1.51l2.52-3.8,1.47.98c.76.51,1.12,1,1.07,1.48-.05.48-.22.94-.51,1.37-.03.04-.08.11-.15.21l1.28.85,3.46-5.21-1.28-.85c-.53.73-.99,1.16-1.39,1.27-.39.11-.93-.06-1.61-.51l-1.43-.95,3.52-5.31,2.87,1.9c.67.45,1.11.82,1.32,1.13.21.31.31.76.32,1.35,0,.6-.11,1.32-.34,2.17l1.27.84,2.41-4.13-13.09-8.69Z"/>
    <path class="cls-1" d="m115.02,254.53l-1.6-13.29-7.02-2.31-.47,1.43c.93.31,1.5.66,1.71,1.06s.17,1.04-.12,1.91l-3.04,9.21c-.27.83-.52,1.41-.73,1.76-.21.35-.57.59-1.07.75-.5.16-1.03.14-1.58-.04l-.47,1.43,6.3,2.08.47-1.43c-.59-.19-1.04-.49-1.36-.89-.32-.4-.47-.81-.46-1.23s.16-1.04.42-1.84l2.99-9.06,2.01,15.8,1.01.33,11.06-11.74-3.4,10.3c-.26.78-.57,1.29-.94,1.53s-.99.21-1.86-.08l-.35-.11-.47,1.43,9.53,3.14.47-1.43-.4-.13c-.86-.28-1.38-.63-1.54-1.03-.17-.4-.12-1.01.14-1.81l3.42-10.36c.26-.78.57-1.29.94-1.53.37-.24.99-.21,1.87.08l.35.11.47-1.43-7.04-2.32-9.25,9.71Z"/>
    <path class="cls-1" d="m149.77,262.96c-.49.73-1.02,1.23-1.6,1.5-.58.27-1.47.37-2.68.31-.89-.05-1.54-.17-1.97-.37s-.68-.44-.77-.71c-.09-.27-.11-.84-.06-1.71l.24-4.55,1.77.09c.91.05,1.47.29,1.67.73s.29.92.26,1.44c0,.05-.01.14-.03.26l1.54.08.33-6.25-1.54-.08c-.08.9-.27,1.5-.55,1.8-.28.29-.83.42-1.65.38l-1.71-.09.33-6.36,3.44.18c.81.04,1.38.14,1.71.3.33.16.65.49.96,1,.31.51.58,1.19.81,2.04l1.52.08-.02-4.78-15.69-.82-.08,1.48.34.02c.9.05,1.48.24,1.75.59.27.35.38.94.34,1.78l-.57,10.92c-.04.82-.21,1.4-.51,1.72-.29.33-.9.46-1.81.42l-.34-.02-.08,1.51,16.85.88.44-6.04-1.52-.08c-.24.84-.61,1.63-1.1,2.35Z"/>
    <path class="cls-1" d="m176.69,247.68c.07-.42.28-.78.63-1.11s.75-.53,1.21-.61l-.28-1.48-6.51,1.21.28,1.48c1.67-.31,2.69.52,3.05,2.5l1.24,6.65-12.01-9.25-6.12,1.14.28,1.48c1.73-.32,2.77.44,3.11,2.28l1.72,9.26c.15.79.2,1.39.15,1.78-.05.39-.26.77-.63,1.13-.38.36-.85.59-1.43.7l.28,1.48,6.81-1.27-.28-1.48c-.76.14-1.42.06-1.97-.23-.56-.29-.96-1.11-1.21-2.45l-1.55-8.33,14.23,11.08,1.71-.32-2.59-13.92c-.14-.74-.17-1.32-.1-1.73Z"/>
    <path class="cls-1" d="m202.56,252.47c-.83.38-1.45.48-1.85.3-.4-.18-.77-.65-1.13-1.42l-5.45-11.84,1.45-.67c1.05-.48,1.91-.61,2.6-.38s1.45.93,2.31,2.09l1.4-.64-2.2-4.77-16.77,7.72,2.2,4.77,1.4-.64c-.28-.77-.42-1.48-.4-2.15.02-.66.18-1.18.5-1.54.31-.36.89-.74,1.73-1.12l1.41-.65,5.45,11.84c.35.75.46,1.34.35,1.76-.11.42-.58.83-1.42,1.22l-.4.18.63,1.37,9.26-4.26-.63-1.37-.43.2Z"/>
    <path class="cls-1" d="m219.2,223.61c-2.61-.31-5.19.55-7.72,2.57-1.41,1.13-2.5,2.48-3.26,4.06-.76,1.58-1.01,3.27-.75,5.09.26,1.81.91,3.36,1.95,4.66.95,1.18,2.18,2.16,3.7,2.92,1.52.77,3.21.99,5.09.66,1.87-.32,3.65-1.16,5.35-2.51,2.47-1.98,3.85-4.26,4.12-6.87.28-2.6-.39-4.91-2-6.93-1.7-2.13-3.85-3.34-6.46-3.65Zm3.12,16.15c-1.18.94-2.45,1.16-3.83.65-1.38-.51-2.95-1.87-4.73-4.08-1.64-2.05-2.54-3.79-2.7-5.21-.16-1.42.37-2.61,1.57-3.57,1.28-1.02,2.61-1.26,4-.71s2.91,1.85,4.55,3.9c1.8,2.25,2.74,4.07,2.83,5.46.09,1.39-.47,2.58-1.7,3.56Z"/>
    <path class="cls-1" d="m242.46,212.83c-.69-.54-1.45-.9-2.28-1.07-.83-.17-1.64-.16-2.43.04s-1.85.63-3.18,1.29c-1.47.74-2.46,1.22-2.94,1.42s-.97.29-1.45.26-.9-.19-1.26-.47c-.47-.37-.73-.84-.79-1.42-.05-.58.14-1.15.58-1.71.59-.75,1.43-1.18,2.51-1.3,1.08-.12,2.18.09,3.3.62l.94-1.2-4.28-3.36-.97,1.23c.37.44.6.82.71,1.13-1.51.21-2.74.94-3.71,2.17-.93,1.18-1.33,2.53-1.23,4.06.11,1.53.78,2.79,2.03,3.77.78.61,1.6.98,2.48,1.1s1.73.04,2.56-.23c.84-.28,2.31-.92,4.43-1.92,1.1-.52,1.92-.75,2.44-.71.53.05.97.21,1.32.48.49.39.78.91.85,1.55.08.65-.13,1.28-.61,1.89-.65.83-1.57,1.35-2.77,1.56-1.2.21-2.67-.08-4.44-.89l-1.01,1.28,4.96,3.9,1.01-1.28c-.4-.44-.7-.87-.89-1.29.86-.02,1.72-.26,2.6-.73s1.61-1.08,2.2-1.83c1.03-1.31,1.49-2.78,1.39-4.39-.11-1.62-.8-2.93-2.08-3.94Z"/>
    <path class="cls-1" d="m249.31,184.87c-1-.4-1.99-.4-2.98.03-.99.42-1.68,1.13-2.08,2.11-.4.98-.39,1.97.03,2.97.42,1,1.12,1.69,2.12,2.1.99.4,1.98.39,2.97-.03s1.68-1.13,2.08-2.13c.4-.99.39-1.98-.03-2.97-.42-.99-1.13-1.68-2.11-2.08Z"/>
  </g>
  <path class="cls-1" d="m165.53,175.05c-1.13-.22-2.23.52-2.47,1.65,0,0-.2.9-.91,1.72-1.03,1.19-2.68,1.67-4.91,1.44-3.13-.33-4.27-1.28-4.68-1.83-.3-.4-.32-.73-.32-.75v.1s-.02,0-.02,0c0-.05.01-.1.01-.15,0-1.23-1-2.23-2.23-2.23s-2.23,1-2.23,2.23c0,.02,0,.03,0,.04h-.03s-.01.34-.32.75c-.41.54-1.55,1.5-4.68,1.83-2.22.23-3.87-.25-4.91-1.44-.71-.81-.9-1.69-.9-1.69h0c-.21-1.15-1.3-1.91-2.45-1.7-1.15.21-1.91,1.3-1.7,2.45.04.2.4,2.02,1.88,3.72,1.21,1.39,3.38,2.94,7.04,2.94.47,0,.96-.03,1.48-.08,3.01-.32,5.28-1.2,6.8-2.61,1.52,1.41,3.79,2.29,6.8,2.61.52.06,1.01.08,1.48.08,3.66,0,5.83-1.55,7.04-2.94,1.48-1.7,1.84-3.52,1.88-3.72.2-1.14-.54-2.21-1.68-2.43Z"/>
</svg>