<?xml version="1.0" encoding="UTF-8"?>
<svg id="Layer_1" data-name="Layer 1" xmlns="http://www.w3.org/2000/svg" viewBox="0 0 300 300">
  <defs>
    <style>
      .cls-1 {
        fill: #4f6b83;
      }

      .cls-1, .cls-2 {
        stroke-width: 0px;
      }

      .cls-2 {
        fill: #fff;
      }
    </style>
  </defs>
  <path class="cls-1" d="m149.26,171.99c0-.1-.1-.1-.2-.2,0,.2.1.4.1.5,0-.1.1-.2.1-.3Z"/>
  <path class="cls-2" d="m189.13,55.54h-78.25l-55.33,55.33v78.25l55.33,55.33h78.25l55.33-55.33v-78.25l-55.33-55.33Zm35.93,107.51l-4.52,5.52c-2.61,3.11-2.31,2.91-7.53,11.34-1.31,2.11-2.61,5.52-4.92,7.03.1.1.1.2.1.3s-.6,1-.9,1.41c-2.41,4.82-6.12,9.44-12.95,9.44-3.81,0-5.52-5.92-5.52-10.04,0-6.42,2.11-12.15,4.12-19.07.5-1.61,1.51-4.32,1.51-5.62,0-.2-.2-.3-.2-.5s.1-.5.1-.8c1.91-6.12,5.12-12.45,6.22-18.67,0,0-.1-.2-.2-.3q-.1.2-.2.2c-3.01,0-7.13,8.33-10.04,11.85-4.92,6.02-7.03,12.85-9.94,19.98-.8,2.01-2.01,8.63-5.42,10.34-.3,0-.3-.3-.5-.5,0,.3-.29.59-.39.79.06,0,.1.01.19.01-.1.8-.9.8-1.2.8-3.61,0-4.12-5.12-4.12-8.23,0-3.81.7-7.53,1.31-11.34.3-1.91,1.3-4.12,1.3-5.62,0-.1-.1-.3-.2-.3s-.3,0-.4.1c-7.43,6.52-10.94,14.36-14.15,22.69-.3.8-1.1,1.31-1.1,1.91,0,.3.4.6.4.9,0,.6-1.41,1.41-2.21,1.41-3.92,0-5.52-5.82-5.52-9.74,0-.83.21-2.97.45-4.57-.32,0-.63-.01-.9-.02-1.09-.03-2.03-.08-2.82-.14-.79-.06-1.53-.11-2.23-.14-.7-.03-1.53-.04-2.5-.04-1.03,0-1.88.02-2.55.04-.67.03-1.4.08-2.18.14s-1.73.11-2.82.14c-1.09.03-2.55.04-4.37.04v-.91c.97,0,1.89-.07,2.77-.23.88-.15,1.65-.44,2.32-.86.67-.42,1.2-1.01,1.59-1.77.39-.76.59-1.77.59-3.05v-49.12l-22.29,56.03h-.18l-23.19-54.39v47.48c0,1.27.2,2.29.59,3.05.39.76.92,1.35,1.59,1.77.67.42,1.44.71,2.32.86.88.15,1.8.23,2.77.23v.91c-1.21,0-2.2-.01-2.96-.04-.76-.03-1.41-.06-1.96-.09-.55-.03-1.06-.06-1.55-.09-.49-.03-1.06-.05-1.73-.05s-1.24.02-1.73.05c-.49.03-1,.06-1.55.09-.55.03-1.18.06-1.91.09-.73.03-1.7.04-2.91.04v-.91c.97,0,1.89-.07,2.77-.23.88-.15,1.65-.44,2.32-.86.67-.42,1.2-1.01,1.59-1.77.39-.76.59-1.77.59-3.05v-47.21c0-1.27-.2-2.29-.59-3.05-.39-.76-.92-1.35-1.59-1.77-.67-.42-1.44-.71-2.32-.87-.88-.15-1.8-.23-2.77-.23v-.91c1.7,0,3.06.02,4.09.05,1.03.03,1.88.06,2.55.09.67.03,1.24.06,1.73.09.48.03,1.06.05,1.73.05,1.21,0,2.21-.05,3-.14.79-.09,1.88-.14,3.27-.14l19.74,46.84,18.65-46.84c1.15,0,2.06.05,2.73.14.67.09,1.7.14,3.09.14.79,0,1.46-.01,2-.05.55-.03,1.17-.06,1.86-.09.7-.03,1.56-.06,2.59-.09,1.03-.03,2.42-.05,4.18-.05v.91c-.97,0-1.9.08-2.77.23-.88.15-1.65.44-2.32.87-.67.42-1.2,1.02-1.59,1.77-.39.76-.59,1.77-.59,3.05v47.21c0,1.27.2,2.29.59,3.05.39.76.92,1.35,1.59,1.77.54.34,1.17.57,1.84.74.09-.43.18-.71.24-.71.4-2.51,1-4.62,1.51-6.73,1.21-3.01,1-6.32,3.11-9.84,0-.3-.5-.1-.5-.5,1.81-.1.7-2.81,2.51-2.81,1.3,0,4.42,2.41,4.42,4.82-1.41,4.82-1.1,10.04-2.91,13.95q-.1.2-.1.3c0,.3.2.4.3.8.5-.7,1.21-1.51,1.81-2.41v-.1c3.11-4.62,7.53-11.75,14.05-11.75,1.61,0,5.12.6,5.12,3.71,0,1.81-1.51,5.12-1.51,7.23,0,.3.2.6.2.9,0,.6-.5,2.81-.7,4.12,4.02-7.13,7.63-17.37,12.05-21.68,4.02-3.91,7.93-11.85,12.45-11.85,5.42,0,6.22,2.51,6.22,6.22,0,10.74-4.52,15.16-5.72,21.28-1.61,6.02-4.22,12.15-5.42,18.67-.1.8,0,1.71-.8,2.31,0,1.1.4,1.81.4,2.81,0,.6-.3.5-.3,1.91,0,.5.1,1.1.4,1.1,2.11,0,3.81-1.81,5.62-3.61,0,0,3.41-3.51,3.41-3.61s0-.2-.1-.4c.6-.4,1.61-1.41,1.61-2.01q0-.1-.1-.2c1.71-1.91,2.91-4.32,4.42-6.53,4.12-5.92,10.84-17.47,15.26-18.47.3.5.5.9.5,1.2,0,.4-.7,1.91-1.21,2.41Z"/>
  <path class="cls-1" d="m173.55,185.54c.08.08.05.16.3.19,0-.19-.1-.19-.3-.19Z"/>
</svg>