<?xml version="1.0" encoding="UTF-8"?>
<svg id="Layer_1" data-name="Layer 1" xmlns="http://www.w3.org/2000/svg" viewBox="0 0 300 300">
  <defs>
    <style>
      .cls-1 {
        fill: #221f1f;
        stroke-width: 0px;
      }
    </style>
  </defs>
  <path class="cls-1" d="m67.47,125.75h-12.1v-1.64c1.04,0,1.81-.1,2.29-.31.49-.21.8-.51.95-.91s.22-.94.22-1.63v-15.12l-9.11,19.61h-1.08l-9.23-19.61v14.36c0,.76.03,1.34.08,1.74s.19.75.41,1.03c.22.28.57.5,1.04.63.47.14,1.13.21,1.97.21v1.64h-8.93v-1.64c.85,0,1.51-.07,1.98-.21.47-.14.81-.36,1.02-.64.21-.29.34-.63.39-1.02s.07-.98.07-1.73v-13.66c0-1.02-.05-1.76-.16-2.21-.11-.45-.4-.79-.88-1.02s-1.29-.35-2.43-.35v-1.64h8.82l8,17.03,8.02-17.03h8.63v1.64c-1.48,0-2.44.22-2.87.65s-.65,1.17-.65,2.2v15.16c0,.65.07,1.18.21,1.58.14.4.47.71.99.93.52.22,1.29.33,2.32.33v1.64Z"/>
  <path class="cls-1" d="m101.38,113.68c0,2.19-.52,4.25-1.57,6.17s-2.59,3.45-4.63,4.61-4.46,1.73-7.25,1.73c-2.28,0-4.28-.37-6.01-1.1s-3.15-1.72-4.24-2.95c-1.1-1.23-1.91-2.59-2.44-4.06-.53-1.47-.79-2.95-.79-4.43,0-2.15.5-4.17,1.51-6.08,1.01-1.91,2.53-3.45,4.55-4.62s4.45-1.75,7.28-1.75c2.57,0,4.76.42,6.56,1.26,1.8.84,3.21,1.9,4.22,3.18s1.73,2.62,2.16,4.03c.43,1.41.65,2.74.65,4.01Zm-5.76-.07c0-1.35-.12-2.63-.35-3.84-.23-1.21-.64-2.3-1.22-3.28s-1.38-1.75-2.38-2.33c-1.01-.58-2.25-.86-3.74-.86-2.04,0-3.63.51-4.78,1.52-1.14,1.01-1.92,2.28-2.33,3.81-.41,1.52-.61,3.19-.61,4.99,0,1,.07,2.03.2,3.11.13,1.08.44,2.19.94,3.32.5,1.13,1.29,2.09,2.38,2.86,1.09.78,2.5,1.17,4.23,1.17s3.12-.4,4.19-1.2c1.07-.8,1.86-1.78,2.35-2.94s.8-2.26.93-3.32c.12-1.05.19-2.06.19-3.01Z"/>
  <path class="cls-1" d="m134.43,125.75h-6.46c-.24-.26-.53-.64-.88-1.14s-.73-1.08-1.15-1.75-.76-1.22-1.03-1.66l-1.64-2.7c-.74-1.21-1.29-2.04-1.66-2.48-.37-.45-.8-.73-1.28-.85-.48-.12-1.3-.19-2.45-.19h-.91v6.3c0,.66.07,1.2.21,1.6s.48.71,1,.92c.53.21,1.3.32,2.3.32v1.64h-12.1v-1.64c1.47,0,2.42-.21,2.84-.64s.63-1.16.63-2.21v-15.23c0-1.03-.21-1.76-.61-2.2s-1.36-.65-2.85-.65v-1.67l5.59-.18c.43-.02.92-.04,1.47-.05s1.06-.02,1.54-.02c.37,0,.98.01,1.83.04,1.2.04,2.32.11,3.36.21,1.04.11,1.87.24,2.47.41.89.22,1.74.6,2.54,1.12.8.52,1.45,1.21,1.96,2.06.5.85.76,1.84.76,2.97,0,.81-.18,1.59-.53,2.35-.35.76-.91,1.43-1.69,2.03-.78.59-1.8,1.06-3.07,1.41.87.51,1.6,1.14,2.21,1.89s1.55,2.14,2.85,4.15c.75,1.15,1.36,2.02,1.85,2.61.49.59.93.99,1.34,1.19.41.21.93.34,1.56.4v1.64Zm-10-17.7c0-1.92-.58-3.2-1.75-3.82-1.17-.63-2.7-.94-4.58-.94-.26,0-.47,0-.61,0-.15,0-.32,0-.51,0v9.7h1.12c1.79,0,3.29-.29,4.51-.87s1.82-1.94,1.82-4.07Z"/>
  <path class="cls-1" d="m161.61,108.47h-1.69c-.15-1.5-.48-2.6-.99-3.31s-1.05-1.15-1.63-1.32-1.25-.25-2.01-.25h-3.06v17.67c0,.7.07,1.24.21,1.63.14.39.47.68,1,.9.52.21,1.29.32,2.29.32v1.64h-12.1v-1.64c1.48,0,2.44-.21,2.86-.64s.64-1.16.64-2.21v-17.67h-2.56c-1.01,0-1.84.08-2.51.24-.67.16-1.25.6-1.75,1.32s-.79,1.82-.86,3.32h-1.69v-6.85h23.84v6.85Z"/>
  <path class="cls-1" d="m194.59,113.68c0,2.19-.52,4.25-1.57,6.17s-2.59,3.45-4.63,4.61-4.46,1.73-7.25,1.73c-2.28,0-4.28-.37-6.01-1.1s-3.15-1.72-4.24-2.95c-1.1-1.23-1.91-2.59-2.44-4.06-.53-1.47-.79-2.95-.79-4.43,0-2.15.5-4.17,1.51-6.08,1.01-1.91,2.53-3.45,4.55-4.62s4.45-1.75,7.28-1.75c2.57,0,4.76.42,6.56,1.26,1.8.84,3.21,1.9,4.22,3.18s1.73,2.62,2.16,4.03c.43,1.41.65,2.74.65,4.01Zm-5.76-.07c0-1.35-.12-2.63-.35-3.84-.23-1.21-.64-2.3-1.22-3.28s-1.38-1.75-2.38-2.33c-1.01-.58-2.25-.86-3.74-.86-2.04,0-3.63.51-4.78,1.52-1.14,1.01-1.92,2.28-2.33,3.81-.41,1.52-.61,3.19-.61,4.99,0,1,.07,2.03.2,3.11.13,1.08.44,2.19.94,3.32.5,1.13,1.29,2.09,2.38,2.86,1.09.78,2.5,1.17,4.23,1.17s3.12-.4,4.19-1.2c1.07-.8,1.86-1.78,2.35-2.94s.8-2.26.93-3.32c.12-1.05.19-2.06.19-3.01Z"/>
  <path class="cls-1" d="m227.78,103.26c-1.15,0-1.97.12-2.47.35-.5.23-.81.57-.92,1.02-.12.45-.18,1.19-.18,2.21v19.12h-1.64l-15.78-18.75v13.29c0,1.01.06,1.74.19,2.2.12.46.44.81.95,1.05.51.24,1.33.36,2.47.36v1.64h-8.97v-1.64c1.07,0,1.84-.12,2.32-.36s.78-.59.89-1.05c.11-.46.17-1.19.17-2.2v-12.31c0-1-.03-1.74-.08-2.24-.05-.5-.18-.93-.38-1.31-.2-.37-.53-.68-.99-.91-.46-.23-1.09-.39-1.89-.47v-1.64h7.03l13.73,16.22v-11.01c0-.9-.06-1.59-.19-2.07-.12-.48-.43-.85-.93-1.11s-1.27-.39-2.34-.39v-1.64h9v1.64Z"/>
  <path class="cls-1" d="m241.21,106.07c0,1.19-.25,2.27-.74,3.24s-1.22,1.78-2.19,2.42c-.97.64-2.11,1.05-3.44,1.23v-1.64c.84-.17,1.59-.42,2.26-.77.66-.35,1.19-.79,1.57-1.33.38-.53.58-1.14.58-1.83,0-.58-.21-.87-.62-.87-.12,0-.34.03-.67.09s-.59.09-.79.09c-.64,0-1.23-.26-1.78-.77-.55-.52-.82-1.16-.82-1.93,0-.84.29-1.52.86-2.03s1.25-.76,2.02-.76c.56,0,1.13.18,1.71.54.58.36,1.07.92,1.46,1.66.39.75.59,1.64.59,2.67Z"/>
  <path class="cls-1" d="m266.63,118.83c0,.75-.16,1.54-.48,2.38-.32.84-.8,1.64-1.45,2.4-.65.76-1.46,1.39-2.45,1.87-.99.48-2.12.72-3.42.72s-2.55-.28-3.82-.84c-1.26-.56-2.33-1.39-3.21-2.49-.38.88-.62,1.69-.73,2.44h-1.64v-8.25h1.64c.3,1.19.71,2.3,1.23,3.34.52,1.04,1.26,1.94,2.21,2.7.96.75,2.13,1.13,3.51,1.13,1.21,0,2.18-.33,2.91-1s1.09-1.5,1.09-2.51c0-.57-.11-1.07-.34-1.49-.23-.43-.55-.81-.98-1.15s-1.01-.7-1.75-1.08-1.59-.79-2.54-1.22c-1.46-.69-2.66-1.38-3.59-2.08-.94-.7-1.65-1.38-2.13-2.04-.48-.66-.81-1.28-1-1.88-.18-.59-.28-1.19-.28-1.8,0-1.08.29-2.14.87-3.19.58-1.05,1.43-1.91,2.55-2.58s2.42-1,3.89-1c1.13,0,2.2.25,3.22.76,1.02.5,1.9,1.2,2.65,2.07.21-.5.41-1.2.59-2.1h1.67v6.72h-1.67c-1.19-3.67-3.25-5.5-6.19-5.5-1.07,0-1.92.28-2.57.84s-.97,1.29-.97,2.18c0,.7.2,1.31.61,1.82.4.52.93.96,1.59,1.33.66.37,1.72.9,3.19,1.58,1.78.84,3.17,1.57,4.17,2.19,1,.62,1.85,1.39,2.54,2.33.69.94,1.04,2.07,1.04,3.4Z"/>
  <path class="cls-1" d="m65.21,160.66h-12.1v-1.64c1.04,0,1.81-.1,2.29-.31.49-.21.8-.51.95-.91s.22-.94.22-1.63v-15.12l-9.11,19.61h-1.08l-9.23-19.61v14.36c0,.76.03,1.34.08,1.74s.19.75.41,1.03c.22.28.57.5,1.04.63.47.14,1.13.21,1.97.21v1.64h-8.93v-1.64c.85,0,1.51-.07,1.98-.21.47-.14.81-.36,1.02-.64.21-.29.34-.63.39-1.02s.07-.98.07-1.73v-13.66c0-1.02-.05-1.76-.16-2.21-.11-.45-.4-.79-.88-1.02s-1.29-.35-2.43-.35v-1.64h8.82l8,17.03,8.02-17.03h8.63v1.64c-1.48,0-2.44.22-2.87.65s-.65,1.17-.65,2.2v15.16c0,.65.07,1.18.21,1.58.14.4.47.71.99.93.52.22,1.29.33,2.32.33v1.64Z"/>
  <path class="cls-1" d="m90.85,152.73l-.2,7.93h-21.49v-1.64c1.48,0,2.44-.21,2.86-.64.43-.43.64-1.16.64-2.21v-15.16c0-.69-.07-1.22-.21-1.61s-.46-.69-.96-.91-1.28-.33-2.34-.33v-1.64h20.01l.32,6.26h-1.64c-.37-1.39-.79-2.38-1.27-2.98s-1.02-.97-1.62-1.1c-.6-.14-1.5-.2-2.7-.2h-4.52v8.52h2.46c.84,0,1.47-.07,1.89-.22s.71-.43.87-.85c.17-.42.28-1.07.34-1.96h1.71v8.02h-1.64c-.05-.89-.17-1.54-.36-1.97-.19-.42-.49-.7-.9-.84s-1.04-.21-1.88-.21h-2.49v5.68c0,.95.02,1.64.07,2.08.05.44.17.8.38,1.09.21.29.55.5,1.01.63.47.13,1.14.2,2,.2h1.94c.82,0,1.6-.1,2.34-.31.74-.21,1.47-.74,2.18-1.6.71-.86,1.21-2.21,1.5-4.05h1.67Z"/>
  <path class="cls-1" d="m128.79,160.66h-12.1v-1.64c1.04,0,1.81-.1,2.29-.31.49-.21.8-.51.95-.91s.22-.94.22-1.63v-15.12l-9.11,19.61h-1.08l-9.23-19.61v14.36c0,.76.03,1.34.08,1.74s.19.75.41,1.03c.22.28.57.5,1.04.63.47.14,1.13.21,1.97.21v1.64h-8.93v-1.64c.85,0,1.51-.07,1.98-.21.47-.14.81-.36,1.02-.64.21-.29.34-.63.39-1.02s.07-.98.07-1.73v-13.66c0-1.02-.05-1.76-.16-2.21-.11-.45-.4-.79-.88-1.02s-1.29-.35-2.43-.35v-1.64h8.82l8,17.03,8.02-17.03h8.63v1.64c-1.48,0-2.44.22-2.87.65s-.65,1.17-.65,2.2v15.16c0,.65.07,1.18.21,1.58.14.4.47.71.99.93.52.22,1.29.33,2.32.33v1.64Z"/>
  <path class="cls-1" d="m154.43,152.73l-.2,7.93h-21.49v-1.64c1.48,0,2.44-.21,2.86-.64.43-.43.64-1.16.64-2.21v-15.16c0-.69-.07-1.22-.21-1.61s-.46-.69-.96-.91-1.28-.33-2.34-.33v-1.64h20.01l.32,6.26h-1.64c-.37-1.39-.79-2.38-1.27-2.98s-1.02-.97-1.62-1.1c-.6-.14-1.5-.2-2.7-.2h-4.52v8.52h2.46c.84,0,1.47-.07,1.89-.22s.71-.43.87-.85c.17-.42.28-1.07.34-1.96h1.71v8.02h-1.64c-.05-.89-.17-1.54-.36-1.97-.19-.42-.49-.7-.9-.84s-1.04-.21-1.88-.21h-2.49v5.68c0,.95.02,1.64.07,2.08.05.44.17.8.38,1.09.21.29.55.5,1.01.63.47.13,1.14.2,2,.2h1.94c.82,0,1.6-.1,2.34-.31.74-.21,1.47-.74,2.18-1.6.71-.86,1.21-2.21,1.5-4.05h1.67Z"/>
  <path class="cls-1" d="m185.06,138.17c-1.15,0-1.97.12-2.47.35-.5.23-.81.57-.92,1.02-.12.45-.18,1.19-.18,2.21v19.12h-1.64l-15.78-18.75v13.29c0,1.01.06,1.74.19,2.2.12.46.44.81.95,1.05.51.24,1.33.36,2.47.36v1.64h-8.97v-1.64c1.07,0,1.84-.12,2.32-.36s.78-.59.89-1.05c.11-.46.17-1.19.17-2.2v-12.31c0-1-.03-1.74-.08-2.24-.05-.5-.18-.93-.38-1.31-.2-.37-.53-.68-.99-.91-.46-.23-1.09-.39-1.89-.47v-1.64h7.03l13.73,16.22v-11.01c0-.9-.06-1.59-.19-2.07-.12-.48-.43-.85-.93-1.11s-1.27-.39-2.34-.39v-1.64h9v1.64Z"/>
  <path class="cls-1" d="m212.64,143.39h-1.69c-.15-1.5-.48-2.6-.99-3.31s-1.05-1.15-1.63-1.32-1.25-.25-2.01-.25h-3.06v17.67c0,.7.07,1.24.21,1.63.14.39.47.68,1,.9.52.21,1.29.32,2.29.32v1.64h-12.1v-1.64c1.48,0,2.44-.21,2.86-.64s.64-1.16.64-2.21v-17.67h-2.56c-1.01,0-1.84.08-2.51.24-.67.16-1.25.6-1.75,1.32s-.79,1.82-.86,3.32h-1.69v-6.85h23.84v6.85Z"/>
  <path class="cls-1" d="m243.43,148.6c0,2.19-.52,4.25-1.57,6.17s-2.59,3.45-4.63,4.61-4.46,1.73-7.25,1.73c-2.28,0-4.28-.37-6.01-1.1s-3.15-1.72-4.24-2.95c-1.1-1.23-1.91-2.59-2.44-4.06-.53-1.47-.79-2.95-.79-4.43,0-2.15.5-4.17,1.51-6.08,1.01-1.91,2.53-3.45,4.55-4.62s4.45-1.75,7.28-1.75c2.57,0,4.76.42,6.56,1.26,1.8.84,3.21,1.9,4.22,3.18s1.73,2.62,2.16,4.03c.43,1.41.65,2.74.65,4.01Zm-5.76-.07c0-1.35-.12-2.63-.35-3.84-.23-1.21-.64-2.3-1.22-3.28s-1.38-1.75-2.38-2.33c-1.01-.58-2.25-.86-3.74-.86-2.04,0-3.63.51-4.78,1.52-1.14,1.01-1.92,2.28-2.33,3.81-.41,1.52-.61,3.19-.61,4.99,0,1,.07,2.03.2,3.11.13,1.08.44,2.19.94,3.32.5,1.13,1.29,2.09,2.38,2.86,1.09.78,2.5,1.17,4.23,1.17s3.12-.4,4.19-1.2c1.07-.8,1.86-1.78,2.35-2.94s.8-2.26.93-3.32c.12-1.05.19-2.06.19-3.01Z"/>
  <path class="cls-1" d="m266.63,153.74c0,.75-.16,1.54-.48,2.38-.32.84-.8,1.64-1.45,2.4-.65.76-1.46,1.39-2.45,1.87-.99.48-2.12.72-3.42.72s-2.55-.28-3.82-.84c-1.26-.56-2.33-1.39-3.21-2.49-.38.88-.62,1.69-.73,2.44h-1.64v-8.25h1.64c.3,1.19.71,2.3,1.23,3.34.52,1.04,1.26,1.94,2.21,2.7.96.75,2.13,1.13,3.51,1.13,1.21,0,2.18-.33,2.91-1s1.09-1.5,1.09-2.51c0-.57-.11-1.07-.34-1.49-.23-.43-.55-.81-.98-1.15s-1.01-.7-1.75-1.08-1.59-.79-2.54-1.22c-1.46-.69-2.66-1.38-3.59-2.08-.94-.7-1.65-1.38-2.13-2.04-.48-.66-.81-1.28-1-1.88-.18-.59-.28-1.19-.28-1.8,0-1.08.29-2.14.87-3.19.58-1.05,1.43-1.91,2.55-2.58s2.42-1,3.89-1c1.13,0,2.2.25,3.22.76,1.02.5,1.9,1.2,2.65,2.07.21-.5.41-1.2.59-2.1h1.67v6.72h-1.67c-1.19-3.67-3.25-5.5-6.19-5.5-1.07,0-1.92.28-2.57.84s-.97,1.29-.97,2.18c0,.7.2,1.31.61,1.82.4.52.93.96,1.59,1.33.66.37,1.72.9,3.19,1.58,1.78.84,3.17,1.57,4.17,2.19,1,.62,1.85,1.39,2.54,2.33.69.94,1.04,2.07,1.04,3.4Z"/>
  <path class="cls-1" d="m116.47,187.75c.19-.15.37-.22.55-.22s.31.05.41.14.12.22.08.38c-.04.16-.18.3-.42.43-.24.15-.53.28-.85.38-.33.1-.65.15-.97.15-.93,0-1.8-.33-2.6-.98-.3.28-.67.55-1.12.81-.45.26-.92.46-1.41.59-.5.13-.98.16-1.44.1-.47-.06-.88-.3-1.23-.71-.43-.48-.7-.97-.81-1.44-.11-.48-.13-.91-.06-1.3.11-.47.31-.92.6-1.37.29-.45.62-.87.99-1.26.37-.39.78-.75,1.22-1.06.44-.32.85-.59,1.25-.81.02-1.31.24-2.43.67-3.36s.94-1.67,1.52-2.21c.58-.54,1.19-.87,1.83-.99.64-.12,1.18-.02,1.63.29.37.26.66.58.84.97.19.38.28.74.28,1.08,0,.49-.18.97-.55,1.44-.37.48-.81.93-1.32,1.37-.52.44-1.06.84-1.62,1.19s-1.05.65-1.46.9c0,.21.01.46.04.76.03.3.06.61.1.92.04.32.08.62.13.91.05.29.1.53.15.71.28-.21.58-.47.91-.78.33-.32.63-.65.91-.99.28-.35.52-.69.71-1.02.2-.34.29-.63.29-.9,0-.19-.04-.3-.11-.35-.08-.05-.2-.05-.36-.01-.06,0-.08-.04-.08-.11,0-.13.1-.2.31-.2.15,0,.32.03.5.1s.36.16.52.28c.16.12.29.27.39.43s.15.35.15.56c0,.45-.11.9-.34,1.36-.22.46-.5.89-.84,1.29s-.69.76-1.06,1.08c-.37.32-.71.57-1.01.76.17.28.38.49.63.63.25.14.51.23.77.28.26.05.51.05.74.01.23-.04.42-.1.55-.2Zm-7.39-2.35c-.56.65-.89,1.19-.98,1.62-.09.43,0,.71.27.84.27.13.7.08,1.27-.15.58-.23,1.26-.68,2.04-1.33-.13-.34-.28-.77-.45-1.3-.17-.53-.29-.97-.36-1.3-.04,0-.12.05-.24.14-.12.09-.27.21-.43.36s-.35.32-.55.5c-.2.19-.39.39-.57.62Zm6.86-8.51c-.37.04-.72.18-1.05.43-.33.25-.63.55-.91.9-.28.35-.53.71-.74,1.11-.21.39-.41.76-.57,1.09.19-.11.45-.3.8-.56.34-.26.69-.56,1.05-.9.35-.34.67-.69.94-1.05s.43-.7.49-1.02Z"/>
  <path class="cls-1" d="m131.95,178.28c.76,0,1.85-.06,2.16,1.09.39,1.46-2.1,4.87-3.95,4.84-.62,0-.98-.2-1.01-.2-.2,0-.42,1.4-.42,2.04,0,.98.03,2.46,1.37,2.46,3.61,0,7.98-7.92,8.6-7.92.14,0,.14.25.14.5-.06.98-.92,1.71-1.43,2.49-.67.73-1.99,2.46-2.69,3.16-1.06,1.06-3.05,2.91-4.76,2.91s-2.72-1.26-3.05-2.55h.08c-.03-.17-.03-.59-.17-.59l.08.5c-.14-.59-.2-1.18-.2-1.76,0-2.8,2.46-7,5.24-7Zm-2.58,4.84s.2.36.34.36c1.12,0,3.5-2.88,3.5-3.7,0-.2-.17-.39-.42-.36-1.85.31-2.74,2.77-3.3,3.56-.08.11-.11.14-.11.14Z"/>
  <path class="cls-1" d="m150.12,181.36c0,1.6-3.81,3.81-4.76,4.65-.92.81-2.46,1.74-3.11,2.38-.87.87-2.46,1.85-3.53,1.85-2.1-.11-2.69-1.74-2.69-3.22,0-5.29,2.58-7.62,4.48-7.62.87,0,1.82.39,1.82,1.46,0,.5-.28,1.88-1.04,1.88.03,0-.42-.06-.42-.17,0-.56.25-1.01.25-1.51,0-.34-.08-.62-.36-.62-.73,0-1.46,1.65-1.79,2.27-.06.14-1.04,2.27-1.04,2.8.03.06.06.11.06.17,0,.5-.28,1.37-.28,2.13,0,.92.11,1.23.95,1.23.06,0,1.18-.56,1.23-.56.59-.06.95-.67,1.54-.84.34-.17,1.34-1.2,1.88-1.2,0,.06-.03.08-.08.14l.06-.03c.39-.39.62-.5.76-.59l-.08-.08c.17-.08.25-.28.45-.31l-.08.17c.06,0,.67-.31.98-.9,0,.08.03.08.06.08s.11-.03.11-.08h-.17c.17-.11.22-.34.45-.39,0,.28-.14.11-.2.31.36-.36.76-.31,1.09-.98-.22.06-.39.39-.73.48.22-.36.59-.59.92-.92v.2c.36-.53,2.49-2.44,2.88-2.44.31,0,.39.14.39.28Z"/>
  <path class="cls-1" d="m158.6,183.24c-1.54,1.93-2.63,4.84-4.2,6.8-1.43,1.79-2.1,3.58-4.09,3.58-2.72,0-2.97-3.28-2.97-5.43,0-.76.03-1.48.11-2.24.06-.36.25-.73.25-1.04,0-.06,0-.11-.03-.2.31-.42.62-1.85.9-2.74.22-.76.84-1.76.84-2.41,0-.17.34-1.2.45-1.34,0-.03-.03-.03-.06-.03,0,0,.36-.81.62-1.48.17-.45.78-1.15.78-1.46,0-.03-.03-.06-.08-.08.36-.87,1.54-3.44,3.42-3.44,1.04,0,1.79,1.32,1.79,1.88,0,1.37-.14,2.6-.53,3.64-.34.9-2.32,4.98-4.73,6.47-.7.45-1.68.53-1.68,1.57-.06,0-.36,1.37-.36,3,0,.62.08,1.29.14,1.9,0,.11-.11.17-.11.25,0,.42.45,1.99.95,1.99.84,0,1.51-.78,1.93-1.46.06-.08.53-.53.84-.81v.06s.03-.06.06-.08h-.06l.31-.28s-.03-.06-.03-.08c0-.11.11-.17.14-.28.08,0,.76-1.15.84-1.26.11-.14.81-.87,1.6-2.07.03-.03.48-.78,1.12-1.76v.14s.06-.06.06-.08-.03-.06-.03-.08c.9-1.29,2.18-2.88,3.36-3.42.25,0,.36.08.39.22-.08.53-1.34,1.26-1.88,2.18l-.06-.11Zm-8.57-.22c0,.08.03.17.03.25.08-.03.14-.08.22-.14,1.51-1.12,2.74-2.83,3.72-4.59-.08.25-.25.5-.36.73.17,0,1.43-2.35,1.46-3,.17-1.32.2-1.68.2-2.38,0-.28-.48-.7-.64-.7-.7,0-1.43,2.72-1.76,3.14-.2.87-1.09,1.9-1.26,2.72-.14.59-.7,1.34-.7,1.71,0,.03-.45,1.71-.78,2.16-.11.03-.11.06-.11.11Z"/>
  <path class="cls-1" d="m162.44,178.28c.76,0,1.85-.06,2.16,1.09.39,1.46-2.1,4.87-3.95,4.84-.62,0-.98-.2-1.01-.2-.2,0-.42,1.4-.42,2.04,0,.98.03,2.46,1.37,2.46,3.61,0,7.98-7.92,8.6-7.92.14,0,.14.25.14.5-.06.98-.92,1.71-1.43,2.49-.67.73-1.99,2.46-2.69,3.16-1.06,1.06-3.05,2.91-4.76,2.91s-2.72-1.26-3.05-2.55h.08c-.03-.17-.03-.59-.17-.59l.08.5c-.14-.59-.2-1.18-.2-1.76,0-2.8,2.46-7,5.24-7Zm-2.58,4.84s.2.36.34.36c1.12,0,3.5-2.88,3.5-3.7,0-.2-.17-.39-.42-.36-1.85.31-2.74,2.77-3.3,3.56-.08.11-.11.14-.11.14Z"/>
  <path class="cls-1" d="m180.61,181.36c0,1.6-3.81,3.81-4.76,4.65-.92.81-2.46,1.74-3.11,2.38-.87.87-2.46,1.85-3.53,1.85-2.1-.11-2.69-1.74-2.69-3.22,0-5.29,2.58-7.62,4.48-7.62.87,0,1.82.39,1.82,1.46,0,.5-.28,1.88-1.04,1.88.03,0-.42-.06-.42-.17,0-.56.25-1.01.25-1.51,0-.34-.08-.62-.36-.62-.73,0-1.46,1.65-1.79,2.27-.06.14-1.04,2.27-1.04,2.8.03.06.06.11.06.17,0,.5-.28,1.37-.28,2.13,0,.92.11,1.23.95,1.23.06,0,1.18-.56,1.23-.56.59-.06.95-.67,1.54-.84.34-.17,1.34-1.2,1.88-1.2,0,.06-.03.08-.08.14l.06-.03c.39-.39.62-.5.76-.59l-.08-.08c.17-.08.25-.28.45-.31l-.08.17c.06,0,.67-.31.98-.9,0,.08.03.08.06.08s.11-.03.11-.08h-.17c.17-.11.22-.34.45-.39,0,.28-.14.11-.2.31.36-.36.76-.31,1.09-.98-.22.06-.39.39-.73.48.22-.36.59-.59.92-.92v.2c.36-.53,2.49-2.44,2.88-2.44.31,0,.39.14.39.28Z"/>
  <path class="cls-1" d="m177.22,194.44c-.2-.22-.25-.5-.25-.78,0-.11,0-.22.03-.34l.17.42c0-.7-.28-.84-.28-1.34,0-.11,0-.28.14-.28.03,0,.06.03.06.06,0,.17-.03.28-.03.56.08-.14.14-.7.22-1.4-.08.08,0,.2-.14.34-.03-.03-.08-.08-.08-.11.14-.42-.03-.95.28-1.26v.62c.06-.31.08-.62.14-.95-.03-.03-.03-.06-.03-.08-.08-.11-.11-.2-.11-.28,0-.34.17-.73.31-1.09-.03.25-.03.39-.03.59.08-.48.2-.84.28-1.26.11-.36.22-.76.34-1.15-.03.03-.06.06-.11.08l.08-.5c.03.06.06.14.06.22v.06c.25-.78.45-1.6.7-2.44-.06.11-.08.2-.11.25l-.06.25s-.03-.08-.03-.14q-.06.06-.11.06c.7-2.07,1.34-4.37,2.41-6.55.03-.06.06-.11.06-.14s-.03-.03-.08-.03c-1.43,0-2.6.56-4,.56-.39,0-.62.28-.62.06,0-.95,3.42-1.37,5.21-1.57.9-.11,3.05-5.99,3.98-5.99.06.03.08.08.14.08.08,0,.08-.25.22-.25.42,0,.81.95.84,1.37,0,.06-.03.11-.06.17-.59,1.46-1.43,2.74-2.13,4.17,1.34,0,2.6-.17,3.98-.17.67,0,1.68.06,1.68.5,0,.22-4.26.45-6.05.62-.87.08-1.26,2.55-1.93,3.47-.11.11-.73,1.65-.73,1.82,0,.2-.22.25-.22.28.03.06.06.14.06.2,0,.25-.78,1.79-1.15,2.91-.76,2.27-1.6,5.04-1.6,7.22,0,.9-.06,1.15.42,1.15.2,0,1.12-1.18,1.85-2.13.34-.45.67-.87.84-1.06,0-.03.03-.03.06-.03.03.03.06.03.08.03,0,0,.06-.03.08-.06h-.11c.08-.28.22-.53.48-.7v.06c.03-.2.28-.39.42-.56.06-.03,3.02-3.78,3.08-3.81,1.18-1.37,2.77-2.38,3.78-3.72-.06.03-.08.03-.11.03s-.03-.03-.03-.06c0-.39,1.09-1.32,1.6-1.32.2,0,.36,0,.36.17,0,.42-1.88,2.1-2.16,2.24-.73.36-1.18,1.32-1.71,1.9-4.84,5.29-6.89,10.53-8.71,10.53-.92,0-1.29-.81-1.57-1.51l-.08.03Zm.34-6.02s-.03-.08-.03-.11c0-.25.25-1.09.5-1.51.03.03.03.08.03.11,0,.36-.28,1.12-.45,1.6l-.06-.08Zm.59-2.1c.03-.53.14-1.04.45-1.48-.14.48-.25,1.01-.45,1.48Zm1.12-3.08c.34-.92.7-1.82,1.12-2.74.14-.36.64-1.6.73-2.18-.31.11-1.15,2.97-1.51,3.86-.11.31-.22.67-.34,1.06Zm6.86,2.3c-.06.2-.31.25-.31.48-.14,0-2.88,3.72-3.08,3.84-.2.28-.2.42-.42.42,0,.14,3.39-4.51,3.81-4.73Zm.45-.5l-.34.34c0-.17.14-.28.34-.34Zm.39-.36c-.14.2-.17.25-.42.34.11-.14.17-.34.42-.34Zm.36-.39l-.08-.08.34-.17-.25.25Zm.48-.39c.06-.2.2-.31.36-.36-.11.14-.17.31-.36.36Zm.73-.64c-.03.11-.11.17-.22.17.03-.11.11-.17.22-.17Zm.76-.76c-.17.31-.45.48-.76.62.22-.22.39-.53.76-.62Z"/>
  <path class="cls-1" d="m198.22,181.42c-.92,1.06-3.42,3.98-4.93,6.22-.22.34-1.74,1.68-2.18,1.68-1.4,0-2.07-1.26-2.07-2.91,0-1.29.28-2.24.56-3.22.08-.31,1.12-2.63,1.74-2.69.03,0,.06,0,.06.03,0,.06-.03.11-.03.17.11-.06.22-.22.34-.22.08,0,.64.87.67,1.2,0,.39-.22.53-.48,1.12-.62,1.46-1.12,3.14-1.12,4.51.03.28.08.81.22.81.14-.03.36-.2.56-.31v.11s0,.06.14.06c.11-.03.5-.48.62-.73.2-.53.81-.78,1.15-1.57l.08.08c.11-.17.36-.45.36-.53.08,0,.14,0,.14.06.08-.17.14-.28.22-.42.03,0,.08.03.14.03s.11-.28.25-.5c.03-.08.06-.17.17-.2l.17-.08h-.03s0-.08.08-.08q.03.06.06.06c.08,0,.14-.39.22-.42l.03.03.03-.03h-.03l.5-.56h-.08c.11-.22.17-.42.45-.45,0,.08-.06.14-.06.22.03-.08.11-.14.22-.25v.06s.06-.06.11-.14l.03-.03c.28-.2.64-.45.64-.84-.08,0-.08.08-.08.11-.06-.03-.06-.06-.06-.06,0,0,.28-.53,1.12-.95.17,0,.36-.03.39.2,0,.06-.03.11-.03.17l-.31.28Zm-5.74-2.24c-.11,0-.36-.34-.39-.64,0-.36.25-1.4.56-1.4.03,0,.03.08.06.08,0,0,.08-.14.08-.22,0-.06-.2.03-.2-.08,0-.06.08-.06.14-.08.14,0,.11.25.25.25.06,0,.14-.06.22-.06.14,0,.42,0,.42.42,0,.39-.53,1.65-.73,1.65-.06,0-.11,0-.17-.06-.14.11-.2.14-.25.14Z"/>
  <path class="cls-1" d="m210.12,181.36c0,1.6-3.81,3.81-4.76,4.65-.92.81-2.46,1.74-3.11,2.38-.87.87-2.46,1.85-3.53,1.85-2.1-.11-2.69-1.74-2.69-3.22,0-5.29,2.58-7.62,4.48-7.62.87,0,1.82.39,1.82,1.46,0,.5-.28,1.88-1.04,1.88.03,0-.42-.06-.42-.17,0-.56.25-1.01.25-1.51,0-.34-.08-.62-.36-.62-.73,0-1.46,1.65-1.79,2.27-.06.14-1.04,2.27-1.04,2.8.03.06.06.11.06.17,0,.5-.28,1.37-.28,2.13,0,.92.11,1.23.95,1.23.06,0,1.18-.56,1.23-.56.59-.06.95-.67,1.54-.84.34-.17,1.34-1.2,1.88-1.2,0,.06-.03.08-.08.14l.06-.03c.39-.39.62-.5.76-.59l-.08-.08c.17-.08.25-.28.45-.31l-.08.17c.06,0,.67-.31.98-.9,0,.08.03.08.06.08s.11-.03.11-.08h-.17c.17-.11.22-.34.45-.39,0,.28-.14.11-.2.31.36-.36.76-.31,1.09-.98-.22.06-.39.39-.73.48.22-.36.59-.59.92-.92v.2c.36-.53,2.49-2.44,2.88-2.44.31,0,.39.14.39.28Z"/>
  <path class="cls-1" d="m228.99,181.64s.62-.64.98-.64c.11,0,.22.14.28.42-.28.34-.87.98-.98,1.01l-.06.08c-.06.03-.08.08-.08.14-.92.84-1.9,1.62-2.86,2.44-.62.53-2.1,1.6-2.1,2.07,0,.17.03.36.03.53,0,.42-.17.9-.17,1.29,0,.06.03.11.08.14,0,1.04-.34,2.69-.34,3.56,0,.08.03.2.03.28,0,.25-.14.48-.14.7,0,.06.03.11.03.14,0,.45-.95,5.01-4.09,5.01-.34,0-2.83-.31-2.83-1.76,0-.11.08-.17.08-.22,0-.03-.08,0-.28-.31t.03-.03s.08.06.08.06t.03-.03c0-.25-.06-.53-.06-.76,0-.11.03-.2.08-.28-.03-.06-.03-.11-.03-.14,0-.62.28-1.43.78-2.3.59-1.04,1.51-2.16,2.66-3.11,0,0,1.93-1.4,1.93-1.9,0-.73.22-3.95.31-3.95-.08,0-.11-.31-.11-.62,0-.28.03-.56.03-.7-.98,1.46-1.54,2.58-2.74,3.78-.22.59-1.23,1.01-2.21,1.01-1.37,0-2.41-1.46-2.38-2.58.03-1.4.17-1.85,1.04-2.91.39-.73,1.93-1.62,2.55-1.68,0-.08.76,0,.76-.11.06-.06.67.08.76.08.03.03.03.06.08.08,0,0,.28.17.42.2.64.11.7,1.01.08.78-.92-.34-1.79.39-2.49.92-.64.5-1.46,2.13-1.46,3.25,0,.22.5.92.67.92,1.71,0,2.8-2.63,4.03-4.34,1.04-1.43,1.2-1.71,1.2-3.75.03.03.06.03.08.03.14,0,.14-.45.28-.48.03,0,.08.03.11.03.08,0,.2-.03.31-.03.34,0,1.15.67,1.15,1.29,0,.42-.17.84-.17,1.29,0,.14,0,.28.03.42,0,.31-.08.59-.08.87,0,.45.06.9.06,1.32,0,.9.03,1.79-.11,2.69.14,0,.2-.14.31-.14.06,0,.06.03.06.08,0-.45,4.28-3.86,4.28-4.14h.06Zm-6.97,7.25c-.5.36-.67.73-1.04,1.09-1.4,1.4-3.42,3.39-3.42,5.82,0,1.23.67,1.88,1.6,1.88,2.27,0,2.97-3.47,2.97-5.38,0-.76-.03-1.51-.03-2.27-.08-.36-.08-.73-.08-1.15Z"/>
  <path class="cls-1" d="m237.05,181.42c-.92,1.06-3.42,3.98-4.93,6.22-.22.34-1.74,1.68-2.18,1.68-1.4,0-2.07-1.26-2.07-2.91,0-1.29.28-2.24.56-3.22.08-.31,1.12-2.63,1.74-2.69.03,0,.06,0,.06.03,0,.06-.03.11-.03.17.11-.06.22-.22.34-.22.08,0,.64.87.67,1.2,0,.39-.22.53-.48,1.12-.62,1.46-1.12,3.14-1.12,4.51.03.28.08.81.22.81.14-.03.36-.2.56-.31v.11s0,.06.14.06c.11-.03.5-.48.62-.73.2-.53.81-.78,1.15-1.57l.08.08c.11-.17.36-.45.36-.53.08,0,.14,0,.14.06.08-.17.14-.28.22-.42.03,0,.08.03.14.03s.11-.28.25-.5c.03-.08.06-.17.17-.2l.17-.08h-.03s0-.08.08-.08q.03.06.06.06c.08,0,.14-.39.22-.42l.03.03.03-.03h-.03l.5-.56h-.08c.11-.22.17-.42.45-.45,0,.08-.06.14-.06.22.03-.08.11-.14.22-.25v.06s.06-.06.11-.14l.03-.03c.28-.2.64-.45.64-.84-.08,0-.08.08-.08.11-.06-.03-.06-.06-.06-.06,0,0,.28-.53,1.12-.95.17,0,.36-.03.39.2,0,.06-.03.11-.03.17l-.31.28Zm-5.74-2.24c-.11,0-.36-.34-.39-.64,0-.36.25-1.4.56-1.4.03,0,.03.08.06.08,0,0,.08-.14.08-.22,0-.06-.2.03-.2-.08,0-.06.08-.06.14-.08.14,0,.11.25.25.25.06,0,.14-.06.22-.06.14,0,.42,0,.42.42,0,.39-.53,1.65-.73,1.65-.06,0-.11,0-.17-.06-.14.11-.2.14-.25.14Z"/>
  <path class="cls-1" d="m240.1,189.68l-.03.03v.03s-.03,0-.03.03c0,.06,0,.08.03.08v.11c0,.06.03.11.06.22,0-.06.03-.11.03-.14.06.25.11.48.11.73,0,.08-.03.31-.06.31v.06l.08-.08c0,.78.06,1.6.06,2.32,0,1.82-1.46,4.93-3.42,4.93-1.37,0-2.52-1.4-2.83-2.66l-.08-.17s.06-.06.06-.08l-.08.08c-.03-.06-.06-.2-.08-.36v-.06h-.03v-.11s-.03,0-.03.03c-.03-.17-.03-.36-.06-.48.03-.03.06-.06.06-.08-.06-.67-.11-1.34-.11-2.02,0-1.93.45-3.98,1.04-5.94.08-.34.36-.87.36-1.12,0-.14-.73-.48-1.06-.48-.11,0-.22.03-.34.03-.28,0-.62-.34-.9-.78,0-.14.59-.31.7-.31.42,0,1.23.62,1.82.62.08,0,.11-.06.14-.17.7-2.91,2.27-6.5,3.98-8.4.14-.14,1.18-.92,1.18-1.2-.11.11-.2.25-.34.25.2-.34,0-.17.87-.81l-.03-.03c.76-.76,2.02-1.57,2.94-1.57.67,0,1.93.31,1.93,1.46,0,1.29-.84,3.28-1.79,4.28-.56.59-2.97,3.72-5.52,3.72-.11,0-.25-.03-.39-.03-.2,0-.25.87-.53.87,0,.06.08.03.08.14-.06.2-.25.53-.25.84,0,.06.03.11.03.17,0,.2-.34.53-.34.78,0,.08.06.08.17.08.62,0,1.23-.11,1.79-.11.08,0,.14.06.25.06.03,0,.08,0,.14-.03,1.79-.39,3.3-1.04,4.84-1.9,1.06,0,2.8-2.13,3.67-2.13.14,0,.25.06.36.11l.08-.03c.06.03.08.06.11.08,0,.78-1.26,1.29-1.74,1.74-1.06.98-2.8,1.46-4.17,2.13h-.08c-1.43.5-2.94.98-4.45.98-.39,0-.7-.06-1.09-.11.08.45,1.12,1.54,1.51,1.93l.03.06s.53.76.7.76c0,0,.03,0,.06-.03.08.08.28.2.31.36h.03c.14.25.31.45.31.64q-.08,0-.08-.08s-.03.08-.03.17v.06h-.03c0,.08-.03.17.03.22h.06Zm-2.86-2.32c-.17-.25-.36-.48-.64-.76,0,.84-.45,1.71-.87,2.86,0,.03.03.06.03.08-.14.81-.36,1.88-.36,2.1,0,.06,0,.08.06.14-.06.03-.08.03-.08.06s.11.08.11.25c0,.11-.03.53-.17.67.03.03.06.03.06.06,0,.06-.06.08-.06.14,0,.03.03.08.03.11s-.03.08-.11.08c.11.11.17.22.17.36,0,.17-.11.34-.11.53,0,.08.08.2.08.28,0,.06-.08.2-.08.31,0,.14.08.28.08.42,0,.06-.08.08-.08.17,0,.7.56,2.1,1.48,2.1.7,0,1.29-.53,1.88-2.1.2-.56.56-1.12.56-1.65,0-.08-.03-.2-.03-.28,0-.25.08-.5.08-.76,0-.31-.06-.62-.06-.92,0-.28,0-.56.06-.87-.03-.06-.06-.67-.36-1.32-.36-.76-1.18-1.29-1.62-1.96l-.03-.11Zm1.76-7.36l-.25.92c.95,0,2.49-1.15,3.44-2.1l.11-.08.34-.34c.11,0,.25-.14.39-.36.25-.42.56-1.04,1.04-1.29.64-.64.95-2.6.95-3,0-.2-.2-.45-.39-.45-.48,0-1.4,1.01-1.76,1.32-.73.62-1.74,1.46-2.18,2.35-.59.59-1.71,2.86-1.71,2.94l.03.08Z"/>
  <path class="cls-1" d="m245.11,194.44c-.2-.22-.25-.5-.25-.78,0-.11,0-.22.03-.34l.17.42c0-.7-.28-.84-.28-1.34,0-.11,0-.28.14-.28.03,0,.06.03.06.06,0,.17-.03.28-.03.56.08-.14.14-.7.22-1.4-.08.08,0,.2-.14.34-.03-.03-.08-.08-.08-.11.14-.42-.03-.95.28-1.26v.62c.06-.31.08-.62.14-.95-.03-.03-.03-.06-.03-.08-.08-.11-.11-.2-.11-.28,0-.34.17-.73.31-1.09-.03.25-.03.39-.03.59.08-.48.2-.84.28-1.26.11-.36.22-.76.34-1.15-.03.03-.06.06-.11.08l.08-.5c.03.06.06.14.06.22v.06c.25-.78.45-1.6.7-2.44-.06.11-.08.2-.11.25l-.06.25s-.03-.08-.03-.14q-.06.06-.11.06c.7-2.07,1.34-4.37,2.41-6.55.03-.06.06-.11.06-.14s-.03-.03-.08-.03c-1.43,0-2.6.56-4,.56-.39,0-.62.28-.62.06,0-.95,3.42-1.37,5.21-1.57.9-.11,3.05-5.99,3.98-5.99.06.03.08.08.14.08.08,0,.08-.25.22-.25.42,0,.81.95.84,1.37,0,.06-.03.11-.06.17-.59,1.46-1.43,2.74-2.13,4.17,1.34,0,2.6-.17,3.98-.17.67,0,1.68.06,1.68.5,0,.22-4.26.45-6.05.62-.87.08-1.26,2.55-1.93,3.47-.11.11-.73,1.65-.73,1.82,0,.2-.22.25-.22.28.03.06.06.14.06.2,0,.25-.78,1.79-1.15,2.91-.76,2.27-1.6,5.04-1.6,7.22,0,.9-.06,1.15.42,1.15.2,0,1.12-1.18,1.85-2.13.34-.45.67-.87.84-1.06,0-.03.03-.03.06-.03.03.03.06.03.08.03,0,0,.06-.03.08-.06h-.11c.08-.28.22-.53.48-.7v.06c.03-.2.28-.39.42-.56.06-.03,3.02-3.78,3.08-3.81,1.18-1.37,2.77-2.38,3.78-3.72-.06.03-.08.03-.11.03s-.03-.03-.03-.06c0-.39,1.09-1.32,1.6-1.32.2,0,.36,0,.36.17,0,.42-1.88,2.1-2.16,2.24-.73.36-1.18,1.32-1.71,1.9-4.84,5.29-6.89,10.53-8.71,10.53-.92,0-1.29-.81-1.57-1.51l-.08.03Zm.34-6.02s-.03-.08-.03-.11c0-.25.25-1.09.5-1.51.03.03.03.08.03.11,0,.36-.28,1.12-.45,1.6l-.06-.08Zm.59-2.1c.03-.53.14-1.04.45-1.48-.14.48-.25,1.01-.45,1.48Zm1.12-3.08c.34-.92.7-1.82,1.12-2.74.14-.36.64-1.6.73-2.18-.31.11-1.15,2.97-1.51,3.86-.11.31-.22.67-.34,1.06Zm6.86,2.3c-.06.2-.31.25-.31.48-.14,0-2.88,3.72-3.08,3.84-.2.28-.2.42-.42.42,0,.14,3.39-4.51,3.81-4.73Zm.45-.5l-.34.34c0-.17.14-.28.34-.34Zm.39-.36c-.14.2-.17.25-.42.34.11-.14.17-.34.42-.34Zm.36-.39l-.08-.08.34-.17-.25.25Zm.48-.39c.06-.2.2-.31.36-.36-.11.14-.17.31-.36.36Zm.73-.64c-.03.11-.11.17-.22.17.03-.11.11-.17.22-.17Zm.76-.76c-.17.31-.45.48-.76.62.22-.22.39-.53.76-.62Z"/>
  <path class="cls-1" d="m255.86,195.58c-.08-.11-.14-.2-.14-.25.25-2.1,1.01-3.98,2.21-5.94.22-.36,1.01-1.09,1.01-1.48,0-.06,0-.11-.03-.17-.73-2.16-1.48-4.09-1.48-5.57,0-.14.03-.28.03-.42,0-.11-.06-.2-.06-.31,0-.53.11-.87.11-1.46,0-.06-.03-.11-.03-.2,0-.98.76-1.43.92-1.96.2-.62,1.18-1.04,1.71-1.04,1.48,0,2.04.73,2.04,1.76,0,1.09-.31,2.86-2.32,2.86-.14,0-.31,0-.53-.06-.03,0-.06.06-.06.14,0,.36.22,1.29.28,1.74,0,.03.59,3,.78,3,.03-.03.81-.62,1.09-.87,1.79-1.62,2.69-2.6,4.31-3.53.45-.25,1.6-1.01,2.13-1.01.06,0,.11.06.2.2-.06-.03-.11-.06-.17-.06-.03,0-.06.03-.08.03.03.03.06.08.08.08.06,0,.11-.03.17-.06.14,0,.14.08.22.11-.06.06-.06.11-.17.14,0,.45-1.32.73-1.71.95-1.48.87-1.85,1.12-4.45,3.47-.2.17-1.29,1.2-1.29,1.48,0,.81.92,1.9.92,2.44.22.95.31,1.85.31,2.86,0,.2-.06.39-.06.56,0,.22.06.48.06.7,0,1.23-.5,2.1-.9,2.88-.03.03-1.15,1.54-2.74,1.54-.98,0-1.9-.98-2.49-2.04,0,0,.03-.03.03-.06l.08.08c0-.28.11-.11.11-.22,0-.08-.03-.2-.06-.28l.17.25c0-.17.03-.25-.22-.31Zm4.14-2.66c0-1.18-.25-2.83-.64-4.06-.78.98-2.66,4.06-2.66,6.41,0,.62.84,1.74,1.6,1.74.39,0,.73-.22.98-.53h.08v-.08c.56-.78.76-2.21.76-3.39l-.11-.08Zm-.81-12.66c0,.22.06.34.34.34,1.26,0,1.85-1.04,1.85-1.82,0-.62-.31-1.12-.87-1.12-.98,0-1.15,1.43-1.37,2.27l.06.34Z"/>
</svg>