<?xml version="1.0" encoding="UTF-8"?>
<svg id="Layer_1" data-name="Layer 1" xmlns="http://www.w3.org/2000/svg" viewBox="0 0 300 300">
  <defs>
    <style>
      .cls-1 {
        fill: #4f6b83;
      }

      .cls-1, .cls-2, .cls-3, .cls-4 {
        stroke-width: 0px;
      }

      .cls-2 {
        fill: #809bae;
      }

      .cls-3 {
        fill: #374e60;
      }

      .cls-4 {
        fill: #d1d2d3;
      }
    </style>
  </defs>
  <g>
    <path class="cls-3" d="m164.63,144.89c1.53,0,2.78-1.25,2.78-2.78s-1.25-2.78-2.78-2.78-2.78,1.25-2.78,2.78,1.25,2.78,2.78,2.78Z"/>
    <path class="cls-3" d="m135.3,144.25c1.53,0,2.78-1.25,2.78-2.78s-1.25-2.78-2.78-2.78-2.78,1.25-2.78,2.78,1.25,2.78,2.78,2.78Z"/>
    <path class="cls-3" d="m148.48,170.79h2.97c2.59,0,4.73-1.95,5.02-4.47.04-.39.12-.77.29-1.12l.78-1.63c.26-.54.37-1.16.25-1.75-.47-2.3-2.51-4.03-4.95-4.03h-5.73c-2.44,0-4.48,1.73-4.95,4.03-.12.59-.01,1.21.25,1.75l.78,1.63c.17.35.24.74.29,1.12.29,2.51,2.43,4.47,5.02,4.47Z"/>
    <g>
      <path class="cls-4" d="m114.05,91.45c.64-.76,1.75-.94,2.6-.84,1.29.14,2.6.85,3.59,1.45,2.82,1.7,5.44,3.95,7.98,6.11l.46.39c2.13,1.82,4.34,3.71,5.56,5.29l3.1-2.39c-1.47-1.9-3.83-3.92-6.11-5.87l-.46-.39c-2.65-2.27-5.4-4.62-8.5-6.49-1.34-.81-3.14-1.76-5.18-1.99-2.39-.28-4.62.56-6.01,2.19-1.01,1.18-1.45,2.61-1.78,3.85-1.7,6.38-2,13.2-.89,19.72l3.51-3.63c-.49-5.05-.14-10.21,1.16-15.09.22-.83.5-1.76.98-2.32Z"/>
      <path class="cls-4" d="m95.94,160.36l4.08-.41-4.18-9.83,4.83-11.05-1.6-11.85,7.55-6.97c-.25-1.71-.4-3.42-.46-5.15l-11.22,10.76,1.71,12.64-5.06,11.59,4.36,10.26Z"/>
      <polygon class="cls-4" points="98.76 171.13 99.75 163.92 95.74 164.32 94.63 172.4 105.35 184.22 98.62 194.58 106.3 203.97 109.33 201.49 103.46 194.32 110.28 183.83 98.76 171.13"/>
      <polygon class="cls-4" points="149.97 93.07 149.94 93.06 149.94 93.08 142.85 96.5 141.61 95.01 138.6 97.51 141.76 101.31 149.97 97.38 158.18 101.31 161.34 97.51 158.32 95.01 157.09 96.5 149.99 93.08 149.99 93.06 149.97 93.07"/>
      <path class="cls-4" d="m188.87,88.91c-1.39-1.64-3.62-2.47-6.01-2.19-2.04.23-3.84,1.18-5.18,1.99-3.11,1.87-5.85,4.22-8.5,6.49l-.46.39c-2.28,1.95-4.65,3.97-6.11,5.87l3.1,2.39c1.22-1.58,3.42-3.47,5.56-5.29l.46-.39c2.53-2.17,5.15-4.41,7.98-6.11,1-.6,2.3-1.31,3.59-1.45.85-.1,1.96.08,2.6.84.48.56.75,1.49.98,2.32,1.3,4.88,1.66,10.04,1.16,15.09l3.51,3.63c1.11-6.52.81-13.34-.89-19.72-.33-1.24-.77-2.67-1.78-3.85Z"/>
      <path class="cls-4" d="m193.79,115.1c-.06,1.73-.21,3.44-.46,5.15l7.55,6.97-1.6,11.85,4.83,11.05-4.18,9.83,4.08.41,4.36-10.26-5.06-11.59,1.71-12.64-11.22-10.76Z"/>
      <polygon class="cls-4" points="196.48 194.32 190.61 201.49 193.64 203.97 201.32 194.58 194.59 184.22 205.31 172.4 204.2 164.32 200.19 163.92 201.18 171.13 189.66 183.83 196.48 194.32"/>
      <polygon class="cls-4" points="149.97 208.09 149.99 208.1 149.99 208.07 157.09 204.66 158.32 206.14 161.34 203.64 158.18 199.84 149.97 203.77 141.76 199.84 138.6 203.64 141.61 206.14 142.85 204.66 149.94 208.07 149.94 208.1 149.97 208.09"/>
    </g>
    <path class="cls-2" d="m148.01,235.07v-3.97c-43.75-1.04-79.09-36.38-80.13-80.13h-3.97c1.03,45.92,38.18,83.06,84.1,84.1Z"/>
    <path class="cls-2" d="m63.91,147.06h3.97c1.04-43.75,36.38-79.09,80.13-80.13v-3.97c-45.92,1.03-83.06,38.18-84.1,84.1Z"/>
    <path class="cls-2" d="m151.93,62.96v3.97c43.75,1.04,79.09,36.38,80.13,80.13h3.97c-1.03-45.92-38.18-83.06-84.1-84.1Z"/>
    <path class="cls-2" d="m236.02,150.98h-3.97c-1.04,43.75-36.38,79.09-80.13,80.13v3.97c45.92-1.03,83.06-38.18,84.1-84.1Z"/>
    <path class="cls-4" d="m56.65,112.24c.94-.38,1.6-1.03,2-1.97.39-.93.4-1.86.02-2.8s-1.03-1.6-1.95-1.99c-.94-.4-1.87-.4-2.81-.02-.94.38-1.6,1.03-1.99,1.95-.39.92-.4,1.85-.02,2.8.37.94,1.03,1.62,1.97,2.01.93.39,1.86.4,2.8.02Z"/>
    <path class="cls-1" d="m64.55,83.6c.42-.02.95.27,1.59.86l6.68,6.25c.6.56,1,1,1.21,1.32.21.32.28.72.22,1.21-.07.49-.29.93-.66,1.33l1.04.97,4.28-4.57-1.04-.97c-.4.43-.83.7-1.3.81-.47.12-.88.08-1.24-.09-.35-.18-.82-.54-1.41-1.09l-6.56-6.14,14.31,4.54.68-.73-5.66-14.11,7.46,6.98c.57.53.88,1,.94,1.41.06.41-.21.93-.8,1.56l-.24.25,1.04.97,6.47-6.91-1.04-.97-.27.29c-.58.62-1.08.93-1.49.91-.41-.02-.91-.3-1.49-.84l-7.51-7.03c-.57-.53-.88-1-.94-1.41-.06-.41.21-.93.81-1.57l.24-.25-1.04-.97-4.78,5.1,4.65,11.76-12.01-3.89-4.76,5.08,1.04.97c.63-.67,1.16-1.02,1.58-1.04Z"/>
    <path class="cls-1" d="m94.7,70.09c1.3.93,2.85,1.38,4.64,1.35,1.79-.03,3.57-.56,5.34-1.57,2.59-1.48,4.2-3.42,4.83-5.8.63-2.38.34-4.63-.87-6.75-1.28-2.22-3.11-3.67-5.5-4.33-2.39-.66-4.91-.24-7.56,1.29-1.48.85-2.68,1.95-3.62,3.31-.94,1.36-1.42,2.91-1.43,4.63-.02,1.72.37,3.26,1.14,4.62.71,1.24,1.72,2.32,3.02,3.26Zm1.77-14.39c1.33-.77,2.61-.79,3.83-.09,1.22.71,2.45,2.14,3.68,4.29,1.35,2.35,1.97,4.18,1.85,5.49-.11,1.31-.81,2.34-2.1,3.07-1.23.71-2.45.73-3.67.06-1.21-.67-2.48-2.16-3.82-4.49-1.23-2.15-1.82-3.9-1.77-5.24.06-1.34.71-2.38,1.98-3.1Z"/>
    <path class="cls-1" d="m114.25,47.19c.82-.21,1.4-.2,1.74.03.34.23.61.74.81,1.5l2.58,9.96c.2.75.21,1.32.03,1.69-.17.38-.68.67-1.52.89l-.34.09.36,1.38,9.08-2.35-.36-1.38-.3.08c-.82.21-1.4.2-1.74-.03-.34-.23-.61-.74-.81-1.51l-1.03-3.99c.93-.23,1.55-.34,1.85-.31.3.02.63.17.98.44s1.01.91,1.97,1.91c1.9,1.99,3.17,3.21,3.79,3.65l5.26-1.36-.36-1.38c-.5.13-1.01.09-1.51-.12-.5-.21-1.45-.96-2.85-2.25-1.79-1.67-3.04-2.62-3.74-2.85,2.08-1.32,2.86-2.99,2.34-4.99-.2-.75-.57-1.41-1.12-1.96s-1.21-.93-1.98-1.14c-.77-.2-1.51-.26-2.23-.18-.72.08-1.82.31-3.32.7l-1.51.4-6.75,1.76.36,1.38.33-.09Zm7.14-1.69c1.37-.35,2.39-.37,3.06-.06s1.17,1.06,1.47,2.24c.21.83.24,1.52.09,2.08-.16.56-.45.99-.89,1.3s-1.36.64-2.76.99l-1.65-6.36c.28-.08.51-.14.68-.19Z"/>
    <path class="cls-1" d="m140.93,45.18c.05-.77.2-1.44.47-2s.61-.94,1.01-1.14c.41-.19,1.05-.3,1.92-.31l1.46-.02.2,12.28c.01.78-.11,1.33-.36,1.65s-.82.49-1.69.51h-.41s.02,1.43.02,1.43l9.6-.16-.02-1.42h-.45c-.86.02-1.43-.12-1.71-.43-.27-.31-.42-.86-.43-1.65l-.2-12.28,1.5-.02c1.09-.02,1.88.2,2.38.66s.9,1.35,1.2,2.68l1.45-.02-.08-4.95-17.4.29.08,4.95,1.45-.02Z"/>
    <path class="cls-1" d="m166.29,57.82c1.33,1.2,2.98,2.04,4.97,2.52,2.9.69,5.4.39,7.5-.91s3.43-3.14,3.99-5.51c.6-2.49.25-4.8-1.03-6.92-1.28-2.12-3.41-3.54-6.39-4.25-1.65-.39-3.29-.42-4.91-.07-1.62.35-3.02,1.14-4.22,2.39-1.19,1.24-1.97,2.63-2.34,4.15-.33,1.39-.34,2.87-.03,4.44.31,1.57,1.13,2.96,2.45,4.17Zm2.83-7.5c.58-2.41,1.34-4.09,2.31-5.03.96-.94,2.15-1.24,3.56-.9,1.5.36,2.45,1.21,2.85,2.57.4,1.35.32,3.24-.26,5.65-.63,2.64-1.44,4.39-2.42,5.27s-2.19,1.14-3.63.8c-1.38-.33-2.28-1.15-2.71-2.47-.42-1.32-.32-3.28.3-5.88Z"/>
    <path class="cls-1" d="m192.3,66.18c-.64-.35-1.07-.8-1.3-1.35s-.03-1.38.59-2.5l3.87-6.99,3.69,16.59,1.44.8,6.47-11.68c.34-.62.67-1.06.97-1.32.3-.26.67-.4,1.12-.43s.86.07,1.25.28l.69-1.25-5.46-3.03-.69,1.25c1.4.77,1.64,1.99.72,3.65l-3.09,5.58-3.18-13.93-5.14-2.85-.69,1.25c1.45.8,1.75,1.98.89,3.53l-4.3,7.76c-.37.67-.69,1.13-.96,1.38-.27.26-.65.4-1.14.44-.49.04-.98-.08-1.46-.35l-.69,1.25,5.71,3.16.69-1.24Z"/>
    <path class="cls-1" d="m220.39,70.52c.78-.91,1.18-1.8,1.19-2.67.02-.87-.31-1.59-.98-2.16-.56-.48-1.16-.69-1.79-.63-.63.07-1.15.35-1.59.86-.43.51-.62,1.04-.55,1.6.07.56.28.99.65,1.3.1.09.26.19.48.31.21.11.34.19.4.24.26.22.25.49-.02.81-.48.56-1.15.8-2.03.73-.88-.07-1.6-.36-2.18-.85l-.99,1.16c1.11.9,2.36,1.32,3.73,1.26,1.37-.06,2.6-.71,3.67-1.96Z"/>
    <path class="cls-1" d="m221.47,82.05l-4.58,3.8.98,1.18c.49-.28.94-.47,1.36-.56-.15.79-.1,1.64.16,2.54.26.9.68,1.7,1.25,2.39,1,1.21,2.26,1.93,3.78,2.15,1.51.22,2.86-.16,4.05-1.14.64-.53,1.12-1.16,1.44-1.89.32-.73.47-1.48.45-2.24-.03-.77-.21-1.83-.56-3.18-.39-1.51-.64-2.5-.73-3-.09-.49-.08-.95.05-1.39.12-.43.35-.79.69-1.07.43-.36.92-.51,1.47-.44.54.07,1.03.36,1.46.88.57.69.81,1.55.7,2.57-.11,1.02-.52,1.99-1.23,2.92l.92,1.11,3.95-3.27-.94-1.14c-.48.25-.87.4-1.18.43.1-1.43-.32-2.71-1.26-3.85-.9-1.09-2.07-1.73-3.5-1.94-1.43-.21-2.72.17-3.88,1.12-.72.6-1.22,1.28-1.5,2.06-.29.78-.38,1.58-.29,2.41.09.82.39,2.31.89,4.46.26,1.12.32,1.92.17,2.39-.15.48-.38.85-.71,1.12-.45.38-.99.54-1.6.48-.61-.06-1.16-.37-1.63-.93-.63-.76-.93-1.72-.89-2.86.04-1.14.61-2.45,1.7-3.91l-.98-1.19Z"/>
    <path class="cls-4" d="m248.09,107.57c-.39-.92-1.05-1.58-1.99-1.96s-1.88-.38-2.81.01c-.93.39-1.58,1.06-1.96,1.99-.38.94-.37,1.87.02,2.81.39.93,1.06,1.58,2,1.96s1.87.37,2.79-.02c.94-.4,1.59-1.06,1.97-2,.38-.94.37-1.87-.02-2.79Z"/>
    <path class="cls-4" d="m60.98,187.49c.39-.93.41-1.86.03-2.79-.37-.93-1.03-1.59-1.96-2-.93-.4-1.87-.42-2.81-.04-.94.38-1.6,1.03-2,1.96-.4.93-.41,1.87-.03,2.81.38.94,1.03,1.6,1.96,2,.93.4,1.86.41,2.79.03.94-.38,1.61-1.03,2.01-1.97Z"/>
    <path class="cls-1" d="m74.87,228.52c.06-.41.38-.87.98-1.4l7.73-6.78c.58-.51,1.08-.78,1.5-.79s.91.31,1.48.96l.23.26,1.07-.94-4.61-5.25-12.16,3.47,5.05-11.57-4.59-5.23-1.07.94c.61.69.9,1.25.88,1.68s-.36.92-1.02,1.5l-6.87,6.03c-.62.54-1.09.9-1.43,1.08s-.75.21-1.23.1c-.48-.11-.9-.38-1.26-.79l-1.07.94,4.13,4.7,1.07-.94c-.38-.44-.61-.9-.68-1.38-.07-.48,0-.89.22-1.22.21-.33.62-.77,1.23-1.3l6.76-5.93-5.93,13.8.66.75,14.6-4.24-7.68,6.74c-.59.51-1.08.78-1.5.79-.41.02-.9-.3-1.47-.95l-.23-.26-1.07.94,6.24,7.11,1.07-.94-.26-.3c-.56-.64-.82-1.17-.76-1.58Z"/>
    <path class="cls-1" d="m91.61,222.38l-.77,1.17.27.18c.71.47,1.08.91,1.14,1.32.05.41-.14.94-.58,1.61l-5.7,8.59c-.43.65-.84,1.03-1.24,1.16-.39.12-.95-.05-1.67-.53l-.27-.18-.79,1.19,13.25,8.79,3.25-4.69-1.2-.79c-.6.57-1.27,1.03-2.02,1.38-.75.36-1.42.51-2.02.45-.6-.06-1.38-.4-2.32-1.03-.7-.46-1.17-.88-1.42-1.24s-.34-.68-.28-.94c.06-.26.32-.73.77-1.42l2.38-3.58,1.39.92c.72.48,1.05.94,1.01,1.39-.05.45-.21.88-.48,1.3-.03.04-.08.11-.15.2l1.21.8,3.26-4.92-1.21-.8c-.5.69-.94,1.09-1.31,1.19-.37.1-.88-.06-1.52-.48l-1.35-.89,3.32-5,2.7,1.79c.63.42,1.05.77,1.24,1.06.19.29.29.71.3,1.28,0,.56-.1,1.24-.32,2.04l1.2.79,2.28-3.89-12.34-8.19Z"/>
    <path class="cls-1" d="m117.02,248.54l-1.51-12.53-6.61-2.18-.45,1.35c.88.29,1.41.62,1.61,1s.16.98-.12,1.8l-2.86,8.68c-.26.78-.49,1.33-.69,1.66-.2.33-.54.56-1.01.71-.47.15-.97.13-1.49-.04l-.45,1.35,5.94,1.96.45-1.35c-.55-.18-.98-.46-1.28-.84-.3-.38-.45-.77-.43-1.16s.15-.98.4-1.74l2.82-8.54,1.89,14.9.95.31,10.43-11.06-3.2,9.71c-.24.74-.54,1.22-.89,1.44s-.93.2-1.75-.07l-.33-.11-.45,1.35,8.99,2.96.45-1.35-.38-.12c-.81-.27-1.3-.59-1.45-.97-.16-.38-.11-.95.14-1.7l3.22-9.77c.24-.74.54-1.22.89-1.44.35-.22.94-.2,1.76.08l.33.11.45-1.35-6.64-2.19-8.72,9.16Z"/>
    <path class="cls-1" d="m149.79,256.49c-.46.69-.96,1.16-1.51,1.41-.55.25-1.39.35-2.53.29-.84-.04-1.46-.16-1.86-.35s-.64-.41-.72-.67c-.08-.26-.1-.8-.06-1.61l.22-4.29,1.67.09c.86.04,1.39.27,1.58.69s.27.87.24,1.36c0,.05-.01.13-.03.24l1.45.08.31-5.89-1.45-.08c-.08.85-.25,1.42-.52,1.69-.27.28-.78.4-1.55.36l-1.61-.08.31-5.99,3.24.17c.76.04,1.3.13,1.61.28.31.15.62.46.91.95.29.48.54,1.12.76,1.92l1.43.07-.02-4.51-14.79-.77-.07,1.4.32.02c.85.04,1.39.23,1.65.55.25.33.36.89.32,1.68l-.54,10.3c-.04.78-.2,1.32-.48,1.63-.28.31-.85.44-1.71.39l-.32-.02-.07,1.42,15.88.83.41-5.69-1.43-.08c-.23.79-.57,1.53-1.03,2.22Z"/>
    <path class="cls-1" d="m175.16,242.08c.07-.39.26-.74.59-1.04s.71-.5,1.14-.58l-.26-1.4-6.14,1.14.26,1.4c1.57-.29,2.53.49,2.88,2.36l1.17,6.27-11.32-8.72-5.77,1.08.26,1.4c1.63-.3,2.61.41,2.93,2.15l1.63,8.72c.14.75.19,1.31.14,1.68-.04.37-.24.72-.6,1.06-.35.34-.8.56-1.35.66l.26,1.4,6.42-1.2-.26-1.4c-.71.13-1.33.06-1.86-.21-.53-.28-.91-1.04-1.14-2.31l-1.46-7.85,13.41,10.44,1.61-.3-2.45-13.12c-.13-.7-.16-1.24-.1-1.63Z"/>
    <path class="cls-1" d="m199.55,246.6c-.78.36-1.36.46-1.74.28-.38-.17-.73-.62-1.06-1.34l-5.14-11.16,1.36-.63c.99-.45,1.8-.57,2.45-.36s1.37.87,2.18,1.97l1.32-.61-2.07-4.5-15.81,7.28,2.07,4.5,1.32-.61c-.27-.72-.39-1.4-.37-2.02.02-.62.17-1.11.47-1.45.29-.34.84-.7,1.63-1.06l1.33-.61,5.14,11.16c.33.71.44,1.26.33,1.66-.1.4-.55.78-1.34,1.15l-.37.17.6,1.29,8.73-4.02-.6-1.29-.41.19Z"/>
    <path class="cls-1" d="m215.24,219.4c-2.46-.29-4.89.52-7.28,2.43-1.33,1.06-2.35,2.34-3.07,3.83-.72,1.49-.96,3.09-.71,4.79s.86,3.17,1.84,4.39c.89,1.12,2.05,2.03,3.48,2.76,1.43.72,3.03.93,4.79.63,1.76-.31,3.45-1.09,5.04-2.37,2.33-1.86,3.63-4.02,3.89-6.47.26-2.45-.37-4.63-1.89-6.54-1.6-2-3.63-3.15-6.09-3.45Zm2.95,15.22c-1.11.89-2.31,1.09-3.61.61-1.3-.48-2.79-1.76-4.46-3.85-1.55-1.94-2.4-3.57-2.55-4.91-.15-1.34.34-2.46,1.48-3.37,1.2-.96,2.46-1.18,3.77-.67s2.75,1.74,4.29,3.68c1.69,2.12,2.58,3.83,2.67,5.15.09,1.31-.45,2.43-1.6,3.36Z"/>
    <path class="cls-1" d="m237.16,209.23c-.65-.51-1.37-.85-2.15-1.01-.78-.16-1.54-.15-2.29.04s-1.74.59-3,1.22c-1.39.7-2.32,1.15-2.78,1.34s-.92.27-1.37.25-.85-.18-1.19-.45c-.44-.35-.69-.8-.74-1.34-.05-.55.13-1.08.55-1.61.55-.71,1.34-1.11,2.37-1.22,1.02-.11,2.06.09,3.11.59l.89-1.13-4.03-3.17-.91,1.16c.35.42.57.77.67,1.06-1.42.2-2.59.88-3.5,2.04-.87,1.11-1.26,2.39-1.16,3.83s.74,2.63,1.91,3.55c.73.58,1.51.92,2.33,1.04s1.63.04,2.42-.22c.79-.26,2.18-.86,4.17-1.81,1.04-.49,1.81-.71,2.3-.67.5.04.91.2,1.24.45.46.36.73.85.81,1.46.07.61-.12,1.21-.57,1.79-.61.78-1.48,1.27-2.61,1.47-1.13.2-2.52-.08-4.18-.84l-.95,1.21,4.68,3.68.95-1.21c-.38-.42-.66-.82-.84-1.21.81-.02,1.62-.25,2.45-.69s1.52-1.02,2.07-1.72c.97-1.24,1.41-2.62,1.31-4.14-.1-1.53-.76-2.76-1.96-3.72Z"/>
    <path class="cls-4" d="m243.62,182.87c-.94-.38-1.88-.37-2.81.03-.93.4-1.58,1.06-1.96,1.99-.37.93-.37,1.86.02,2.8.39.94,1.06,1.6,2,1.98.94.38,1.87.37,2.8-.02s1.58-1.06,1.97-2.01c.38-.94.37-1.87-.03-2.8s-1.06-1.58-1.99-1.96Z"/>
  </g>
  <path class="cls-3" d="m164.64,173.61c-1.06-.21-2.11.49-2.33,1.56,0,0-.18.85-.86,1.62-.97,1.12-2.53,1.57-4.63,1.35-2.95-.31-4.03-1.21-4.41-1.72-.29-.38-.3-.69-.3-.7v.09s-.02,0-.02,0c0-.05.01-.09.01-.14,0-1.16-.94-2.1-2.1-2.1s-2.1.94-2.1,2.1c0,.01,0,.03,0,.04h-.03s-.01.33-.3.71c-.38.51-1.46,1.41-4.41,1.72-2.1.22-3.65-.24-4.63-1.35-.67-.76-.85-1.6-.85-1.6h0c-.19-1.08-1.23-1.8-2.31-1.61-1.08.19-1.8,1.23-1.61,2.31.03.19.37,1.91,1.77,3.51,1.14,1.31,3.19,2.77,6.64,2.77.44,0,.91-.02,1.4-.08,2.84-.3,4.98-1.13,6.41-2.46,1.43,1.33,3.57,2.16,6.41,2.46.49.05.96.08,1.4.08,3.45,0,5.5-1.46,6.64-2.77,1.4-1.6,1.74-3.32,1.77-3.51.19-1.07-.51-2.08-1.58-2.29Z"/>
</svg>